<svg width="25" height="26" viewBox="0 0 25 26" fill="none" xmlns="http://www.w3.org/2000/svg">
<path d="M8.33301 9.0415L8.33301 7.99984C8.33301 5.69865 10.1985 3.83317 12.4997 3.83317V3.83317C14.8009 3.83317 16.6663 5.69865 16.6663 7.99984L16.6663 9.0415" stroke="white" stroke-width="2" stroke-linecap="round"/>
<path d="M4.16699 13.0415C4.16699 11.1559 4.16699 10.2131 4.75278 9.62729C5.33857 9.0415 6.28137 9.0415 8.16699 9.0415H16.8337C18.7193 9.0415 19.6621 9.0415 20.2479 9.62729C20.8337 10.2131 20.8337 11.1559 20.8337 13.0415V14.5832C20.8337 18.3544 20.8337 20.24 19.6621 21.4116C18.4905 22.5832 16.6049 22.5832 12.8337 22.5832H12.167C8.39576 22.5832 6.51014 22.5832 5.33857 21.4116C4.16699 20.24 4.16699 18.3544 4.16699 14.5832V13.0415Z" stroke="white" stroke-width="2"/>
<path d="M9.42334 19.0833H10.188V12.7419H9.41455L7.72705 13.9548V14.7502L9.40576 13.5813H9.42334V19.0833ZM14.0068 19.1887C15.4658 19.1887 16.3403 17.9275 16.3403 15.9148V15.906C16.3403 13.8933 15.4658 12.6365 14.0068 12.6365C12.5479 12.6365 11.6821 13.8933 11.6821 15.906V15.9148C11.6821 17.9275 12.5479 19.1887 14.0068 19.1887ZM14.0068 18.4988C13.04 18.4988 12.4775 17.5056 12.4775 15.9148V15.906C12.4775 14.3152 13.04 13.3308 14.0068 13.3308C14.9736 13.3308 15.5449 14.3152 15.5449 15.906V15.9148C15.5449 17.5056 14.9736 18.4988 14.0068 18.4988Z" fill="white"/>
</svg>
