<svg width="85" height="83" viewBox="0 0 85 83" fill="none" xmlns="http://www.w3.org/2000/svg">
<path fill-rule="evenodd" clip-rule="evenodd" d="M80.0849 3.33362C80.7621 3.88853 80.7967 4.9662 80.1621 5.74067L76.1178 10.6767L81.8299 6.90855C82.6546 6.36454 83.6682 6.55759 84.094 7.33975C84.5197 8.12191 84.1963 9.19699 83.3716 9.741L70.6737 18.1175L74.9033 21.583C75.8079 22.3243 75.7085 23.8277 74.6976 24.6938L71.2114 27.6804H73.1009C74.0887 27.6804 75.0766 28.6683 75.0766 29.6561V61.2673C75.0766 62.3786 74.0887 63.243 73.1009 63.243H25.6841C24.5728 63.243 23.7084 62.3786 23.7084 61.2673V29.6561C23.7084 28.6683 24.5728 27.6804 25.6841 27.6804H27.5762V53.2812H38.705C38.2012 52.7476 38.0282 51.8821 38.5375 50.9727L59.9967 12.6485C60.6471 11.487 62.1016 11.0939 63.0063 11.8351L67.2905 15.3454L73.0065 1.24824C73.3777 0.332691 74.3682 -0.195796 75.2188 0.0678286C76.0694 0.331453 76.4581 1.28736 76.0868 2.20291L73.2703 9.14926L77.7096 3.73116C78.3442 2.9567 79.4076 2.77871 80.0849 3.33362ZM41.3283 53.2812H70.7781V28.0516L41.3414 53.2701C41.337 53.2738 41.3326 53.2775 41.3283 53.2812ZM59.0864 17.7053C58.8607 17.5204 58.5062 17.5797 58.2947 17.8378C58.0832 18.096 58.0947 18.4552 58.3205 18.6402L62.2036 21.8219C62.4294 22.0069 62.7839 21.9475 62.9954 21.6894C63.2069 21.4312 63.1954 21.072 62.9696 20.887L59.0864 17.7053ZM61.8833 18.0439C62.0949 17.7857 62.4493 17.7264 62.6751 17.9114L66.5583 21.0931C66.784 21.278 66.7956 21.6373 66.584 21.8954C66.3725 22.1536 66.018 22.2129 65.7923 22.0279L61.9091 18.8462C61.6833 18.6613 61.6718 18.302 61.8833 18.0439ZM51.6215 39.3229C51.3957 39.138 51.0413 39.1973 50.8297 39.4555C50.6182 39.7136 50.6297 40.0728 50.8555 40.2578L52.8993 41.9324C53.125 42.1174 53.4795 42.058 53.691 41.7999C53.9025 41.5417 53.891 41.1825 53.6653 40.9975L51.6215 39.3229ZM49.7306 36.2111C49.9421 35.9529 50.2966 35.8936 50.5223 36.0786L54.8142 39.5952C55.04 39.7802 55.0515 40.1394 54.84 40.3976C54.6285 40.6557 54.274 40.7151 54.0483 40.5301L49.7563 37.0135C49.5306 36.8285 49.519 36.4693 49.7306 36.2111ZM15.8056 71.1458H78.0401C78.534 71.1458 79.028 71.6397 79.028 72.1337V74.1094C79.028 74.7268 78.534 75.0972 78.0401 75.0972H66.8033C66.8405 75.2829 66.8888 75.4797 66.9382 75.681C67.053 76.1491 67.1738 76.6412 67.1738 77.0729C67.1738 80.4069 64.4572 83 61.2467 83C57.9127 83 55.3196 80.4069 55.3196 77.0729C55.3196 76.4555 55.4431 75.7146 55.69 75.0972H31.2407C31.2779 75.2829 31.3262 75.4797 31.3756 75.681C31.4904 76.1491 31.6112 76.6412 31.6112 77.0729C31.6112 80.4069 28.8946 83 25.6841 83C22.3501 83 19.757 80.4069 19.757 77.0729C19.757 76.4555 19.8805 75.7146 20.004 75.0972H12.842C12.2246 75.0972 11.8542 74.7268 11.8542 74.1094V23.729H0.98785C0.370444 23.729 0 23.3586 0 22.7412V20.7655C0 20.2716 0.370444 19.7776 0.98785 19.7776H14.8177C15.3117 19.7776 15.8056 20.2716 15.8056 20.7655V71.1458Z" fill="#C08D9B"/>
</svg>
