<svg width="25" height="26" viewBox="0 0 25 26" fill="none" xmlns="http://www.w3.org/2000/svg">
<path d="M4.63644 15.1961L11.8787 21.9994C12.1421 22.2468 12.2737 22.3705 12.431 22.3925C12.477 22.3989 12.5236 22.3989 12.5696 22.3925C12.7269 22.3705 12.8586 22.2468 13.1219 21.9994L20.3642 15.1961C22.4019 13.2819 22.6493 10.1319 20.9355 7.92299L20.6133 7.50765C18.5631 4.86519 14.4479 5.30835 13.0073 8.32672C12.8038 8.75308 12.1969 8.75308 11.9934 8.32672C10.5528 5.30835 6.43753 4.86519 4.38735 7.50765L4.0651 7.92299C2.35131 10.1319 2.59876 13.2819 4.63644 15.1961Z" stroke="#3F4C6D" stroke-width="2"/>
</svg>
