<svg width="23" height="20" viewBox="0 0 23 20" fill="none" xmlns="http://www.w3.org/2000/svg">
<path d="M3.63644 11.1961L10.8787 17.9994C11.1421 18.2468 11.2737 18.3705 11.431 18.3925C11.477 18.3989 11.5236 18.3989 11.5696 18.3925C11.7269 18.3705 11.8586 18.2468 12.1219 17.9994L19.3642 11.1961C21.4019 9.28187 21.6493 6.13187 19.9355 3.92299L19.6133 3.50765C17.5631 0.865188 13.4479 1.30835 12.0073 4.32672C11.8038 4.75308 11.1969 4.75308 10.9934 4.32672C9.55279 1.30835 5.43753 0.865191 3.38735 3.50765L3.0651 3.92299C1.35131 6.13188 1.59876 9.28187 3.63644 11.1961Z" stroke="white" stroke-width="2"/>
</svg>
