<svg width="28" height="26" viewBox="0 0 28 26" fill="none" xmlns="http://www.w3.org/2000/svg">
<path fill-rule="evenodd" clip-rule="evenodd" d="M13.9763 0C6.6754 0 0.756836 5.81737 0.756836 12.9935C0.756836 20.1696 6.6754 25.9869 13.9763 25.9869C21.2772 25.9869 27.1958 20.1696 27.1958 12.9935C27.1958 5.81737 21.2772 0 13.9763 0ZM11.0698 6.10548C11.8219 6.07184 12.0622 6.06361 13.977 6.06361H13.9748C15.8902 6.06361 16.1296 6.07184 16.8816 6.10548C17.6322 6.13927 18.1448 6.25606 18.5943 6.42744C19.0585 6.60429 19.4506 6.84107 19.8428 7.22654C20.235 7.61173 20.4759 7.99836 20.6566 8.45415C20.8299 8.89478 20.9489 9.39835 20.9841 10.1361C21.0179 10.8753 21.0267 11.1115 21.0267 12.9935C21.0267 14.8756 21.0179 15.1112 20.9841 15.8504C20.9489 16.5879 20.8299 17.0916 20.6566 17.5324C20.4759 17.988 20.235 18.3746 19.8428 18.7598C19.4511 19.1453 19.0583 19.3826 18.5947 19.5596C18.1462 19.731 17.6332 19.8478 16.8827 19.8816C16.1306 19.9152 15.891 19.9235 13.9761 19.9235C12.0615 19.9235 11.8213 19.9152 11.0692 19.8816C10.3188 19.8478 9.80633 19.731 9.35775 19.5596C8.89433 19.3826 8.50097 19.1453 8.10923 18.7598C7.71719 18.3746 7.4763 17.988 7.29607 17.5322C7.12187 17.0916 7.00304 16.588 6.96852 15.8503C6.93444 15.1111 6.92592 14.8756 6.92592 12.9935C6.92592 11.1115 6.93474 10.8751 6.96837 10.136C7.00216 9.3985 7.12113 8.89478 7.29593 8.45401C7.47659 7.99836 7.71749 7.61173 8.10967 7.22654C8.50156 6.84121 8.89491 6.60444 9.35863 6.42744C9.80692 6.25606 10.3193 6.13927 11.0698 6.10548Z" fill="white"/>
<path fill-rule="evenodd" clip-rule="evenodd" d="M13.3447 7.3124C13.4675 7.31221 13.5996 7.31227 13.7422 7.31233L13.9772 7.3124C15.8597 7.3124 16.0828 7.31904 16.8262 7.35225C17.5136 7.38314 17.8867 7.49604 18.1352 7.5909C18.4642 7.7165 18.6988 7.86665 18.9454 8.1092C19.1922 8.35174 19.3449 8.58274 19.473 8.90614C19.5695 9.15013 19.6845 9.51684 19.7158 10.1925C19.7496 10.923 19.7569 11.1425 19.7569 12.9919C19.7569 14.8413 19.7496 15.0608 19.7158 15.7913C19.6844 16.467 19.5695 16.8337 19.473 17.0777C19.3452 17.4011 19.1922 17.6313 18.9454 17.8737C18.6986 18.1163 18.4644 18.2664 18.1352 18.392C17.887 18.4873 17.5136 18.5999 16.8262 18.6308C16.0829 18.664 15.8597 18.6713 13.9772 18.6713C12.0946 18.6713 11.8714 18.664 11.1282 18.6308C10.4408 18.5997 10.0677 18.4868 9.81902 18.3919C9.49 18.2663 9.25498 18.1161 9.00822 17.8736C8.76145 17.6311 8.60869 17.4006 8.48061 17.0771C8.3841 16.8331 8.26909 16.4664 8.23781 15.7907C8.20402 15.0602 8.19727 14.8407 8.19727 12.9902C8.19727 11.1396 8.20402 10.9213 8.23781 10.1908C8.26924 9.51511 8.3841 9.1484 8.48061 8.90412C8.6084 8.58072 8.76145 8.34972 9.00822 8.10718C9.25498 7.86463 9.49 7.71448 9.81902 7.58859C10.0675 7.4933 10.4408 7.38069 11.1282 7.34965C11.7786 7.32078 12.0307 7.31211 13.3447 7.31067V7.3124ZM17.7407 8.46304C17.2736 8.46304 16.8946 8.83509 16.8946 9.29434C16.8946 9.75345 17.2736 10.1259 17.7407 10.1259C18.2078 10.1259 18.5867 9.75345 18.5867 9.29434C18.5867 8.83524 18.2078 8.46275 17.7407 8.46275V8.46304ZM10.3565 12.9935C10.3565 11.0282 11.9776 9.43479 13.977 9.43471C15.9766 9.43471 17.5973 11.0282 17.5973 12.9935C17.5973 14.9589 15.9767 16.5516 13.9772 16.5516C11.9776 16.5516 10.3565 14.9589 10.3565 12.9935Z" fill="white"/>
<path d="M13.9771 10.6835C15.275 10.6835 16.3273 11.7177 16.3273 12.9935C16.3273 14.2692 15.275 15.3035 13.9771 15.3035C12.6791 15.3035 11.627 14.2692 11.627 12.9935C11.627 11.7177 12.6791 10.6835 13.9771 10.6835Z" fill="white"/>
</svg>
