<svg width="66" height="20" viewBox="0 0 66 20" fill="none" xmlns="http://www.w3.org/2000/svg">
<rect width="66" height="20" rx="10" fill="#FF3D00"/>
<path d="M18.5596 11.324C18.3836 11.324 18.2356 11.268 18.1156 11.156C18.0036 11.044 17.9476 10.9 17.9476 10.724C17.9476 10.54 18.0036 10.392 18.1156 10.28C18.2356 10.168 18.3836 10.112 18.5596 10.112H21.2356C21.4116 10.112 21.5556 10.168 21.6676 10.28C21.7796 10.392 21.8356 10.54 21.8356 10.724C21.8356 10.9 21.7796 11.044 21.6676 11.156C21.5556 11.268 21.4116 11.324 21.2356 11.324H18.5596ZM26.0311 14C25.4551 14 24.9351 13.868 24.4711 13.604C24.0151 13.332 23.6511 12.964 23.3791 12.5C23.1151 12.036 22.9831 11.516 22.9831 10.94C22.9831 10.764 23.0391 10.62 23.1511 10.508C23.2631 10.388 23.4071 10.328 23.5831 10.328C23.7591 10.328 23.9071 10.388 24.0271 10.508C24.1471 10.62 24.2071 10.764 24.2071 10.94C24.2071 11.284 24.2871 11.596 24.4471 11.876C24.6071 12.156 24.8231 12.376 25.0951 12.536C25.3751 12.696 25.6871 12.776 26.0311 12.776C26.3831 12.776 26.6951 12.696 26.9671 12.536C27.2471 12.376 27.4671 12.156 27.6271 11.876C27.7871 11.596 27.8671 11.284 27.8671 10.94C27.8671 10.588 27.7871 10.276 27.6271 10.004C27.4671 9.724 27.2471 9.504 26.9671 9.344C26.6951 9.184 26.3831 9.104 26.0311 9.104H24.0271C23.8511 9.104 23.7071 9.048 23.5951 8.936C23.4831 8.816 23.4271 8.668 23.4271 8.492V5.252C23.4271 5.076 23.4831 4.928 23.5951 4.808C23.7071 4.688 23.8511 4.628 24.0271 4.628H28.0351C28.2031 4.628 28.3471 4.692 28.4671 4.82C28.5871 4.94 28.6471 5.084 28.6471 5.252C28.6471 5.412 28.5871 5.552 28.4671 5.672C28.3551 5.792 28.2111 5.852 28.0351 5.852H24.6391V7.88H26.0311C26.6151 7.88 27.1351 8.016 27.5911 8.288C28.0551 8.552 28.4191 8.916 28.6831 9.38C28.9551 9.836 29.0911 10.356 29.0911 10.94C29.0911 11.516 28.9551 12.036 28.6831 12.5C28.4191 12.964 28.0551 13.332 27.5911 13.604C27.1351 13.868 26.6151 14 26.0311 14ZM33.218 14C32.306 14 31.598 13.588 31.094 12.764C30.598 11.932 30.35 10.78 30.35 9.308C30.35 7.828 30.598 6.676 31.094 5.852C31.598 5.028 32.306 4.616 33.218 4.616C33.826 4.616 34.342 4.808 34.766 5.192C35.198 5.568 35.526 6.108 35.75 6.812C35.974 7.508 36.086 8.34 36.086 9.308C36.086 10.276 35.974 11.112 35.75 11.816C35.526 12.512 35.198 13.052 34.766 13.436C34.342 13.812 33.826 14 33.218 14ZM33.218 12.752C33.586 12.752 33.89 12.604 34.13 12.308C34.37 12.004 34.55 11.592 34.67 11.072C34.79 10.552 34.85 9.964 34.85 9.308C34.85 8.652 34.79 8.064 34.67 7.544C34.55 7.024 34.37 6.612 34.13 6.308C33.89 6.004 33.586 5.852 33.218 5.852C32.85 5.852 32.546 6.004 32.306 6.308C32.066 6.604 31.886 7.012 31.766 7.532C31.646 8.052 31.586 8.644 31.586 9.308C31.586 9.972 31.646 10.564 31.766 11.084C31.886 11.604 32.066 12.012 32.306 12.308C32.554 12.604 32.858 12.752 33.218 12.752ZM38.6915 14C38.5155 14 38.3675 13.94 38.2475 13.82C38.1355 13.7 38.0795 13.556 38.0795 13.388C38.0795 13.22 38.1275 13.084 38.2235 12.98L44.5355 4.868C44.6795 4.708 44.8435 4.628 45.0275 4.628C45.2035 4.628 45.3515 4.688 45.4715 4.808C45.5915 4.928 45.6515 5.072 45.6515 5.24C45.6515 5.376 45.6075 5.5 45.5195 5.612L39.1475 13.808C39.0275 13.936 38.8755 14 38.6915 14ZM39.4115 9.416C38.9715 9.416 38.5675 9.308 38.1995 9.092C37.8395 8.868 37.5515 8.576 37.3355 8.216C37.1195 7.856 37.0115 7.46 37.0115 7.028C37.0115 6.596 37.1195 6.2 37.3355 5.84C37.5515 5.472 37.8395 5.18 38.1995 4.964C38.5675 4.74 38.9715 4.628 39.4115 4.628C39.8515 4.628 40.2515 4.74 40.6115 4.964C40.9715 5.18 41.2595 5.472 41.4755 5.84C41.6915 6.2 41.7995 6.596 41.7995 7.028C41.7995 7.46 41.6915 7.856 41.4755 8.216C41.2595 8.576 40.9715 8.868 40.6115 9.092C40.2515 9.308 39.8515 9.416 39.4115 9.416ZM39.4115 8.192C39.7315 8.192 40.0035 8.08 40.2275 7.856C40.4595 7.624 40.5755 7.348 40.5755 7.028C40.5755 6.708 40.4595 6.432 40.2275 6.2C39.9955 5.968 39.7235 5.852 39.4115 5.852C39.0835 5.852 38.8035 5.968 38.5715 6.2C38.3475 6.432 38.2355 6.708 38.2355 7.028C38.2355 7.348 38.3475 7.624 38.5715 7.856C38.8035 8.08 39.0835 8.192 39.4115 8.192ZM44.2835 14C43.8515 14 43.4515 13.892 43.0835 13.676C42.7235 13.46 42.4355 13.172 42.2195 12.812C42.0035 12.444 41.8955 12.044 41.8955 11.612C41.8955 11.172 42.0035 10.772 42.2195 10.412C42.4355 10.052 42.7235 9.764 43.0835 9.548C43.4435 9.332 43.8435 9.224 44.2835 9.224C44.7155 9.224 45.1115 9.332 45.4715 9.548C45.8395 9.756 46.1315 10.04 46.3475 10.4C46.5715 10.76 46.6835 11.164 46.6835 11.612C46.6835 12.052 46.5715 12.452 46.3475 12.812C46.1315 13.172 45.8435 13.46 45.4835 13.676C45.1235 13.892 44.7235 14 44.2835 14ZM44.2835 12.776C44.6115 12.776 44.8875 12.664 45.1115 12.44C45.3435 12.208 45.4595 11.932 45.4595 11.612C45.4595 11.292 45.3435 11.02 45.1115 10.796C44.8875 10.564 44.6115 10.448 44.2835 10.448C43.9635 10.448 43.6875 10.56 43.4555 10.784C43.2315 11.008 43.1195 11.284 43.1195 11.612C43.1195 11.932 43.2315 12.208 43.4555 12.44C43.6875 12.664 43.9635 12.776 44.2835 12.776Z" fill="white"/>
</svg>
