<svg width="66" height="20" viewBox="0 0 66 20" fill="none" xmlns="http://www.w3.org/2000/svg">
<rect width="66" height="20" rx="10" fill="#0500FF"/>
<path d="M17.9759 14.0715C17.6239 14.0715 17.3119 13.9755 17.0399 13.7835C16.7679 13.5915 16.5559 13.3315 16.4039 13.0035C16.2519 12.6675 16.1759 12.2835 16.1759 11.8515V5.29953C16.1759 5.12353 16.2319 4.97953 16.3439 4.86753C16.4559 4.75553 16.5999 4.69953 16.7759 4.69953C16.9519 4.69953 17.0959 4.75553 17.2079 4.86753C17.3199 4.97953 17.3759 5.12353 17.3759 5.29953V11.8515C17.3759 12.1475 17.4319 12.3915 17.5439 12.5835C17.6559 12.7755 17.7999 12.8715 17.9759 12.8715H18.2759C18.4359 12.8715 18.5639 12.9275 18.6599 13.0395C18.7639 13.1515 18.8159 13.2955 18.8159 13.4715C18.8159 13.6475 18.7399 13.7915 18.5879 13.9035C18.4359 14.0155 18.2399 14.0715 17.9999 14.0715H17.9759ZM22.3863 14.1195C21.8023 14.1195 21.2783 13.9755 20.8143 13.6875C20.3503 13.3915 19.9823 12.9955 19.7103 12.4995C19.4463 11.9955 19.3143 11.4275 19.3143 10.7955C19.3143 10.1635 19.4583 9.59553 19.7463 9.09153C20.0423 8.58753 20.4383 8.19153 20.9343 7.90353C21.4383 7.60753 22.0023 7.45953 22.6263 7.45953C23.2503 7.45953 23.8103 7.60753 24.3063 7.90353C24.8023 8.19153 25.1943 8.58753 25.4823 9.09153C25.7783 9.59553 25.9263 10.1635 25.9263 10.7955V13.4715C25.9263 13.6475 25.8663 13.7955 25.7463 13.9155C25.6343 14.0275 25.4903 14.0835 25.3143 14.0835C25.1383 14.0835 24.9903 14.0275 24.8703 13.9155C24.7583 13.7955 24.7023 13.6475 24.7023 13.4715V13.0275C24.4223 13.3635 24.0823 13.6315 23.6823 13.8315C23.2903 14.0235 22.8583 14.1195 22.3863 14.1195ZM22.6263 13.0395C23.0343 13.0395 23.3983 12.9435 23.7183 12.7515C24.0383 12.5515 24.2903 12.2835 24.4743 11.9475C24.6583 11.6035 24.7503 11.2195 24.7503 10.7955C24.7503 10.3635 24.6583 9.97953 24.4743 9.64353C24.2903 9.29953 24.0383 9.03153 23.7183 8.83953C23.3983 8.63953 23.0343 8.53953 22.6263 8.53953C22.2263 8.53953 21.8623 8.63953 21.5343 8.83953C21.2143 9.03153 20.9583 9.29953 20.7663 9.64353C20.5823 9.97953 20.4903 10.3635 20.4903 10.7955C20.4903 11.2195 20.5823 11.6035 20.7663 11.9475C20.9583 12.2835 21.2143 12.5515 21.5343 12.7515C21.8623 12.9435 22.2263 13.0395 22.6263 13.0395ZM30.136 14.1195C29.576 14.1195 29.056 14.0355 28.576 13.8675C28.104 13.6915 27.736 13.4715 27.472 13.2075C27.352 13.0795 27.3 12.9355 27.316 12.7755C27.34 12.6075 27.42 12.4715 27.556 12.3675C27.716 12.2395 27.872 12.1875 28.024 12.2115C28.184 12.2275 28.32 12.2955 28.432 12.4155C28.568 12.5675 28.784 12.7115 29.08 12.8475C29.384 12.9755 29.72 13.0395 30.088 13.0395C30.552 13.0395 30.904 12.9635 31.144 12.8115C31.392 12.6595 31.52 12.4635 31.528 12.2235C31.536 11.9835 31.42 11.7755 31.18 11.5995C30.948 11.4235 30.52 11.2795 29.896 11.1675C29.088 11.0075 28.5 10.7675 28.132 10.4475C27.772 10.1275 27.592 9.73553 27.592 9.27153C27.592 8.86353 27.712 8.52753 27.952 8.26353C28.192 7.99153 28.5 7.79153 28.876 7.66353C29.252 7.52753 29.644 7.45953 30.052 7.45953C30.58 7.45953 31.048 7.54353 31.456 7.71153C31.864 7.87953 32.188 8.11153 32.428 8.40753C32.54 8.53553 32.592 8.67153 32.584 8.81553C32.576 8.95153 32.508 9.06753 32.38 9.16353C32.252 9.25153 32.1 9.27953 31.924 9.24753C31.748 9.21553 31.6 9.14353 31.48 9.03153C31.28 8.83953 31.064 8.70753 30.832 8.63553C30.6 8.56353 30.332 8.52753 30.028 8.52753C29.676 8.52753 29.376 8.58753 29.128 8.70753C28.888 8.82753 28.768 9.00353 28.768 9.23553C28.768 9.37953 28.804 9.51153 28.876 9.63153C28.956 9.74353 29.108 9.84753 29.332 9.94353C29.556 10.0315 29.884 10.1195 30.316 10.2075C31.22 10.3835 31.844 10.6355 32.188 10.9635C32.54 11.2835 32.716 11.6795 32.716 12.1515C32.716 12.5195 32.616 12.8515 32.416 13.1475C32.224 13.4435 31.936 13.6795 31.552 13.8555C31.176 14.0315 30.704 14.1195 30.136 14.1195ZM36.6516 14.0715C36.2516 14.0715 35.8916 13.9715 35.5716 13.7715C35.2516 13.5635 34.9996 13.2835 34.8156 12.9315C34.6316 12.5795 34.5396 12.1835 34.5396 11.7435V8.77953H33.9876C33.8196 8.77953 33.6836 8.73153 33.5796 8.63553C33.4756 8.53953 33.4236 8.41953 33.4236 8.27553C33.4236 8.11553 33.4756 7.98753 33.5796 7.89153C33.6836 7.79553 33.8196 7.74753 33.9876 7.74753H34.5396V6.01953C34.5396 5.84353 34.5956 5.69953 34.7076 5.58753C34.8196 5.47553 34.9636 5.41953 35.1396 5.41953C35.3156 5.41953 35.4596 5.47553 35.5716 5.58753C35.6836 5.69953 35.7396 5.84353 35.7396 6.01953V7.74753H36.7596C36.9276 7.74753 37.0636 7.79553 37.1676 7.89153C37.2716 7.98753 37.3236 8.11553 37.3236 8.27553C37.3236 8.41953 37.2716 8.53953 37.1676 8.63553C37.0636 8.73153 36.9276 8.77953 36.7596 8.77953H35.7396V11.7435C35.7396 12.0635 35.8276 12.3315 36.0036 12.5475C36.1796 12.7635 36.3956 12.8715 36.6516 12.8715H37.0596C37.2036 12.8715 37.3236 12.9275 37.4196 13.0395C37.5236 13.1515 37.5756 13.2955 37.5756 13.4715C37.5756 13.6475 37.5076 13.7915 37.3716 13.9035C37.2436 14.0155 37.0756 14.0715 36.8676 14.0715H36.6516Z" fill="white"/>
<path fill-rule="evenodd" clip-rule="evenodd" d="M53.9317 4.56591C54.1131 4.35864 54.1025 4.0525 53.9079 3.88213C53.7132 3.71175 53.4084 3.74166 53.2269 3.94894L51.9574 5.39898L52.7605 3.4844C52.8663 3.23205 52.7542 2.95359 52.5101 2.86243C52.266 2.77128 51.9823 2.90195 51.8764 3.1543L50.2467 7.03982L49.0157 5.96206C48.7557 5.73447 48.3388 5.8178 48.1531 6.13448L42.0249 16.5832C41.7049 17.1288 42.3321 17.6779 42.8306 17.2886L52.3774 9.83273C52.6667 9.60676 52.6942 9.18254 52.4343 8.95495L51.2189 7.89093L54.8548 5.76182C55.091 5.62355 55.183 5.32506 55.0604 5.09513C54.9377 4.86519 54.6469 4.79089 54.4108 4.92917L52.7751 5.88694L53.9317 4.56591ZM47.6685 7.57256C47.729 7.50347 47.8306 7.4935 47.8955 7.55029L49.0113 8.52717C49.0762 8.58396 49.0797 8.68601 49.0193 8.7551C48.9588 8.82419 48.8572 8.83416 48.7923 8.77737L47.6765 7.80049C47.6116 7.7437 47.608 7.64165 47.6685 7.57256ZM48.9248 7.678C48.86 7.62121 48.7583 7.63118 48.6978 7.70027C48.6374 7.76936 48.6409 7.87141 48.7058 7.9282L49.8216 8.90508C49.8865 8.96187 49.9881 8.9519 50.0486 8.88281C50.1091 8.81372 50.1055 8.71168 50.0407 8.65488L48.9248 7.678ZM45.5424 13.556C45.6029 13.4869 45.7045 13.477 45.7694 13.5337L46.3566 14.0479C46.4215 14.1047 46.4251 14.2067 46.3646 14.2758C46.3041 14.3449 46.2025 14.3549 46.1376 14.2981L45.5503 13.7839C45.4854 13.7271 45.4819 13.6251 45.5424 13.556ZM45.4519 12.5929C45.387 12.5361 45.2854 12.5461 45.2249 12.6152C45.1644 12.6842 45.168 12.7863 45.2329 12.8431L46.4662 13.9228C46.531 13.9796 46.6326 13.9696 46.6931 13.9005C46.7536 13.8314 46.7501 13.7294 46.6852 13.6726L45.4519 12.5929Z" fill="white"/>
</svg>
