<svg width="284" height="72" viewBox="0 0 284 72" fill="none" xmlns="http://www.w3.org/2000/svg">
<path d="M17.8191 63.6147C11.8615 63.5774 0 63.2791 0 63.2791C0 63.2791 0 51.1047 0 44.3183C0 38.1658 1.43558 33.337 4.30674 29.832C7.17789 26.2896 11.2334 24.5185 16.4733 24.5185C19.7033 24.5185 22.5206 25.0218 24.9252 26.0286C27.3298 27.0354 29.1781 28.471 30.4702 30.3354C31.7622 32.1997 32.4082 34.3997 32.4082 36.9353C32.4082 38.9488 31.9775 40.7386 31.1162 42.3047C30.2907 43.8708 29.0525 45.2691 27.4016 46.4996C28.7295 46.7233 29.878 47.4691 30.847 48.7369C31.8519 50.0047 32.3544 51.4775 32.3544 53.1555C32.3544 54.9453 31.8878 56.6419 30.9547 58.2453C30.0574 59.8114 28.5142 61.0978 26.3249 62.1046C24.1716 63.1113 21.3363 63.6147 17.8191 63.6147ZM14.1046 42.7522C14.7506 43.0878 15.5581 43.2556 16.5271 43.2556C17.6756 43.2556 18.6625 42.9759 19.488 42.4166C20.3493 41.82 20.78 40.9437 20.78 39.7878C20.78 38.6692 20.3493 37.8302 19.488 37.2709C18.6625 36.6743 17.6576 36.376 16.4733 36.376C15.5401 36.376 14.7506 36.5438 14.1046 36.8794C13.6021 37.1031 13.2253 37.4946 12.974 38.0539C12.7228 38.6132 12.5972 39.2098 12.5972 39.8437C12.5972 40.4776 12.7228 41.0742 12.974 41.6336C13.2253 42.1556 13.6021 42.5285 14.1046 42.7522ZM14.1046 55.8402C14.7865 56.1385 15.594 56.2877 16.5271 56.2877C17.6756 56.2877 18.6625 56.0453 19.488 55.5605C20.3493 55.0385 20.78 54.2741 20.78 53.2673C20.78 52.2979 20.3493 51.5521 19.488 51.0301C18.6266 50.508 17.6217 50.247 16.4733 50.247C15.576 50.247 14.7865 50.3962 14.1046 50.6945C13.6021 50.9182 13.2253 51.2724 12.974 51.7572C12.7228 52.2046 12.5972 52.708 12.5972 53.2673C12.5972 53.8267 12.7228 54.3487 12.974 54.8334C13.2253 55.2809 13.6021 55.6165 14.1046 55.8402Z" fill="white"/>
<path d="M43.7571 63.6706C40.9577 63.6706 38.6608 63.0181 36.8663 61.713C35.0719 60.3707 34.1746 58.4504 34.1746 55.9521C34.1746 53.7894 35.0898 52.0741 36.9202 50.8064C38.7505 49.5386 41.0295 48.9047 43.7571 48.9047C44.762 48.9047 45.6951 48.9979 46.5565 49.1843C47.4537 49.3335 48.0639 49.5199 48.3869 49.7437C48.3869 48.8115 48.01 48.0471 47.2563 47.4505C46.5027 46.8166 45.3542 46.4996 43.8109 46.4996C43.129 46.4996 42.5728 46.5555 42.1421 46.6674C41.7114 46.7793 41.2449 46.9471 40.7424 47.1708C40.2399 47.3945 39.7734 47.5623 39.3427 47.6742C38.9479 47.786 38.4096 47.842 37.7277 47.842C36.5792 47.842 35.682 47.5437 35.036 46.9471C34.39 46.3132 34.067 45.3623 34.067 44.0945C34.067 42.6403 34.5694 41.4098 35.5743 40.4031C36.6151 39.3963 37.9071 38.6505 39.4504 38.1658C40.9936 37.6438 42.5369 37.3827 44.0801 37.3827C47.1307 37.3827 49.6789 37.9794 51.7246 39.1726C53.8062 40.3285 55.3315 41.8759 56.3005 43.8149C57.3054 45.7539 57.8078 47.8979 57.8078 50.247C57.8078 51.5148 57.7002 52.6894 57.4848 53.7707C57.3054 54.8521 57.0542 55.6911 56.7312 56.2877C57.2336 56.7351 57.6104 57.2571 57.8617 57.8537C58.1488 58.4504 58.2923 59.0656 58.2923 59.6995C58.2923 60.7808 57.9334 61.713 57.2157 62.4961C56.5338 63.2791 55.6186 63.6706 54.4701 63.6706C53.6088 63.6706 52.9089 63.5401 52.3706 63.2791C51.8322 63.0181 51.258 62.6079 50.6479 62.0486C49.7507 62.6079 48.7637 63.0181 47.687 63.2791C46.6462 63.5401 45.3363 63.6706 43.7571 63.6706ZM44.8338 58.0215C45.5875 58.0215 46.1797 57.8537 46.6103 57.5182C47.0769 57.1826 47.3102 56.7724 47.3102 56.2877C47.3102 55.8029 47.0769 55.3928 46.6103 55.0572C46.1797 54.7216 45.5875 54.5538 44.8338 54.5538C44.0801 54.5538 43.47 54.7216 43.0034 55.0572C42.5728 55.3928 42.3574 55.8029 42.3574 56.2877C42.3574 56.7724 42.5728 57.1826 43.0034 57.5182C43.47 57.8537 44.0801 58.0215 44.8338 58.0215Z" fill="white"/>
<path d="M76.4345 63.6706C69.9026 63.6706 65.6856 61.6012 63.7834 57.4622C61.9172 53.286 60.9841 49.0538 60.9841 44.7657C60.9841 41.5963 61.2532 38.4641 61.7916 35.3692C62.3658 32.2743 63.281 29.6828 64.5371 27.5947C65.7932 25.5066 67.4262 24.4625 69.436 24.4625C70.6922 24.4625 71.7689 24.8727 72.6661 25.693C73.5633 26.5134 74.0119 27.7066 74.0119 29.2727C74.0119 30.0557 73.9402 30.8387 73.7966 31.6218C73.653 32.4048 73.4377 33.3743 73.1506 34.5302C73.0788 34.754 72.9352 35.3133 72.7199 36.2082C72.5405 37.1031 72.4149 37.9421 72.3431 38.7251C73.9222 37.8302 75.7167 37.3827 77.7265 37.3827C79.7363 37.3827 81.6026 37.8488 83.3252 38.781C85.0838 39.7132 86.5015 41.1488 87.5782 43.0878C88.6907 44.9895 89.247 47.3199 89.247 50.0792C89.247 52.4284 88.7266 54.647 87.6858 56.7351C86.645 58.7859 85.1377 60.4639 83.1637 61.769C81.2257 63.0368 78.9826 63.6706 76.4345 63.6706ZM76.1115 54.8334C77.0805 54.8334 77.9239 54.4606 78.6417 53.7148C79.3954 52.9318 79.7722 52.0182 79.7722 50.9741C79.7722 49.9301 79.3954 49.0165 78.6417 48.2335C77.9239 47.4504 77.0805 47.0589 76.1115 47.0589C75.1425 47.0589 74.299 47.4504 73.5813 48.2335C72.8635 49.0165 72.5046 49.9301 72.5046 50.9741C72.5046 52.0182 72.8635 52.9318 73.5813 53.7148C74.299 54.4606 75.1425 54.8334 76.1115 54.8334Z" fill="white"/>
<path d="M99.3098 71.9485C97.3718 71.9485 95.7568 71.557 94.4647 70.774C93.1727 69.9909 92.5267 68.835 92.5267 67.3062C92.5267 66.0757 93.083 65.1062 94.1956 64.3978C95.3081 63.6893 96.6181 63.3723 98.1255 63.4469C99.7046 63.5215 100.925 63.4469 101.786 63.2232C102.683 62.9995 103.365 62.5893 103.832 61.9927C100.53 61.9927 97.8922 61.5079 95.9183 60.5385C93.9443 59.5317 92.5088 57.9843 91.6115 55.8961C90.7502 53.7707 90.3195 50.9741 90.3195 47.5064C90.3195 44.5234 90.7502 42.1183 91.6115 40.2912C92.5088 38.4268 93.9084 37.4946 95.8106 37.4946C97.4974 37.4946 98.7356 37.998 99.5251 39.0048C100.351 39.9742 100.763 41.242 100.763 42.8081L100.71 45.2691C100.674 45.7539 100.656 46.4623 100.656 47.3945C100.656 49.1843 100.871 50.5453 101.302 51.4775C101.732 52.3724 102.594 52.8199 103.886 52.8199C105.178 52.8199 106.039 52.3724 106.47 51.4775C106.9 50.5453 107.116 49.203 107.116 47.4505C107.116 46.5183 107.098 45.8098 107.062 45.3251L107.008 42.92C107.008 41.242 107.403 39.9183 108.192 38.9488C109.018 37.9794 110.274 37.4946 111.961 37.4946C113.863 37.4946 115.263 38.4268 116.16 40.2912C117.057 42.1556 117.506 44.5606 117.506 47.5064C117.506 51.9063 116.896 55.9521 115.675 59.6436C114.491 63.2978 112.535 66.2621 109.807 68.5367C107.116 70.8113 103.617 71.9485 99.3098 71.9485Z" fill="white"/>
<path d="M169.052 40.3471C169.052 43.0691 168.657 45.4742 167.867 47.5623C167.114 49.6504 166.037 51.403 164.637 52.8199C163.56 54.7933 163.994 56.6455 166.414 58.3571C166.414 59.8859 165.84 61.1537 164.691 62.1605C163.578 63.1673 162.304 63.6706 160.869 63.6706C160.043 63.6706 159.29 63.5401 158.608 63.2791C157.926 63.0181 157.19 62.5707 156.401 61.9368C155.719 61.3774 155.073 60.613 154.463 59.6436C153.852 58.6741 153.368 57.6673 153.009 56.6232C151.825 56.4741 150.64 56.1572 149.456 55.6724C148.941 56.6792 148.719 57.2244 148.665 58.3012C148.589 59.8308 149.941 61.0577 149.198 61.9368C148.317 62.9808 146.378 63.7266 144.449 63.7266C141.471 63.7266 139.371 61.9181 138.151 58.3012C136.931 54.6843 136.32 50.2657 136.32 45.0454C136.32 41.503 136.931 38.1844 138.151 35.0895C139.407 31.9574 141.309 29.4404 143.857 27.5388C146.405 25.5998 149.51 24.6303 153.171 24.6303C156.113 24.6303 158.787 25.2829 161.192 26.5879C163.596 27.8557 165.499 29.6828 166.898 32.0692C168.334 34.4557 169.052 37.2149 169.052 40.3471ZM148.918 42.9759C148.918 44.2437 149.402 45.3623 150.371 46.3318C151.34 47.264 152.453 47.7301 153.709 47.7301C155.001 47.7301 156.113 47.264 157.047 46.3318C158.016 45.3623 158.5 44.2437 158.5 42.9759C158.5 41.6708 158.016 40.5522 157.047 39.62C156.113 38.6505 155.001 38.1658 153.709 38.1658C152.453 38.1658 151.34 38.6505 150.371 39.62C149.402 40.5895 148.918 41.7081 148.918 42.9759Z" fill="white"/>
<path d="M179.815 63.6706C177.015 63.6706 174.718 63.0181 172.924 61.713C171.129 60.3707 170.232 58.4504 170.232 55.9521C170.232 53.7894 171.147 52.0741 172.978 50.8064C174.808 49.5386 177.087 48.9047 179.815 48.9047C180.82 48.9047 181.753 48.9979 182.614 49.1843C183.511 49.3335 184.121 49.5199 184.444 49.7437C184.444 48.8115 184.068 48.0471 183.314 47.4505C182.56 46.8166 181.412 46.4996 179.868 46.4996C179.187 46.4996 178.63 46.5555 178.2 46.6674C177.769 46.7793 177.302 46.9471 176.8 47.1708C176.297 47.3945 175.831 47.5623 175.4 47.6742C175.005 47.786 174.467 47.842 173.785 47.842C172.637 47.842 171.74 47.5437 171.094 46.9471C170.448 46.3132 170.124 45.3623 170.124 44.0945C170.124 42.6403 170.627 41.4098 171.632 40.4031C172.673 39.3963 173.965 38.6505 175.508 38.1658C177.051 37.6438 178.594 37.3827 180.138 37.3827C183.188 37.3827 185.736 37.9794 187.782 39.1726C189.864 40.3285 191.389 41.8759 192.358 43.8149C193.363 45.7539 193.865 47.8979 193.865 50.247C193.865 51.5148 193.758 52.6894 193.542 53.7707C193.363 54.8521 193.112 55.6911 192.789 56.2877C193.291 56.7351 193.668 57.2571 193.919 57.8537C194.206 58.4504 194.35 59.0656 194.35 59.6995C194.35 60.7808 193.991 61.713 193.273 62.4961C192.591 63.2791 191.676 63.6706 190.528 63.6706C189.666 63.6706 188.966 63.5401 188.428 63.2791C187.89 63.0181 187.316 62.6079 186.705 62.0486C185.808 62.6079 184.821 63.0181 183.745 63.2791C182.704 63.5401 181.394 63.6706 179.815 63.6706ZM180.891 58.0215C181.645 58.0215 182.237 57.8537 182.668 57.5182C183.134 57.1826 183.368 56.7724 183.368 56.2877C183.368 55.8029 183.134 55.3928 182.668 55.0572C182.237 54.7216 181.645 54.5538 180.891 54.5538C180.138 54.5538 179.528 54.7216 179.061 55.0572C178.63 55.3928 178.415 55.8029 178.415 56.2877C178.415 56.7724 178.63 57.1826 179.061 57.5182C179.528 57.8537 180.138 58.0215 180.891 58.0215Z" fill="white"/>
<path d="M212.492 63.6706C205.96 63.6706 201.743 61.6012 199.841 57.4622C197.975 53.286 197.042 49.0538 197.042 44.7657C197.042 41.5963 197.311 38.4641 197.849 35.3692C198.423 32.2743 199.339 29.6828 200.595 27.5947C201.851 25.5066 203.484 24.4625 205.494 24.4625C206.75 24.4625 207.826 24.8727 208.724 25.693C209.621 26.5134 210.07 27.7066 210.07 29.2727C210.07 30.0557 209.998 30.8387 209.854 31.6218C209.711 32.4048 209.495 33.3743 209.208 34.5302C209.136 34.754 208.993 35.3133 208.777 36.2082C208.598 37.1031 208.472 37.9421 208.401 38.7251C209.98 37.8302 211.774 37.3827 213.784 37.3827C215.794 37.3827 217.66 37.8488 219.383 38.781C221.141 39.7132 222.559 41.1488 223.636 43.0878C224.748 44.9895 225.305 47.3199 225.305 50.0792C225.305 52.4284 224.784 54.647 223.743 56.7351C222.703 58.7859 221.195 60.4639 219.221 61.769C217.283 63.0368 215.04 63.6706 212.492 63.6706ZM212.169 54.8334C213.138 54.8334 213.981 54.4606 214.699 53.7148C215.453 52.9318 215.83 52.0182 215.83 50.9741C215.83 49.9301 215.453 49.0165 214.699 48.2335C213.981 47.4504 213.138 47.0589 212.169 47.0589C211.2 47.0589 210.357 47.4504 209.639 48.2335C208.921 49.0165 208.562 49.9301 208.562 50.9741C208.562 52.0182 208.921 52.9318 209.639 53.7148C210.357 54.4606 211.2 54.8334 212.169 54.8334Z" fill="white"/>
<path d="M242.406 63.6706C235.874 63.6706 231.657 61.6012 229.755 57.4622C227.888 53.286 226.955 49.0538 226.955 44.7657C226.955 41.5963 227.225 38.4641 227.763 35.3692C228.337 32.2743 229.252 29.6828 230.508 27.5947C231.765 25.5066 233.397 24.4625 235.407 24.4625C236.663 24.4625 237.74 24.8727 238.637 25.693C239.535 26.5134 239.983 27.7066 239.983 29.2727C239.983 30.0557 239.911 30.8387 239.768 31.6218C239.624 32.4048 239.409 33.3743 239.122 34.5302C239.05 34.754 238.907 35.3133 238.691 36.2082C238.512 37.1031 238.386 37.9421 238.314 38.7251C239.893 37.8302 241.688 37.3827 243.698 37.3827C245.708 37.3827 247.574 37.8488 249.297 38.781C251.055 39.7132 252.473 41.1488 253.549 43.0878C254.662 44.9895 255.218 47.3199 255.218 50.0792C255.218 52.4284 254.698 54.647 253.657 56.7351C252.616 58.7859 251.109 60.4639 249.135 61.769C247.197 63.0368 244.954 63.6706 242.406 63.6706ZM242.083 54.8334C243.052 54.8334 243.895 54.4606 244.613 53.7148C245.367 52.9318 245.743 52.0182 245.743 50.9741C245.743 49.9301 245.367 49.0165 244.613 48.2335C243.895 47.4504 243.052 47.0589 242.083 47.0589C241.114 47.0589 240.27 47.4504 239.553 48.2335C238.835 49.0165 238.476 49.9301 238.476 50.9741C238.476 52.0182 238.835 52.9318 239.553 53.7148C240.27 54.4606 241.114 54.8334 242.083 54.8334Z" fill="white"/>
<path d="M265.281 71.9485C263.343 71.9485 261.728 71.557 260.436 70.774C259.144 69.9909 258.498 68.835 258.498 67.3062C258.498 66.0757 259.054 65.1062 260.167 64.3978C261.279 63.6893 262.589 63.3723 264.097 63.4469C265.676 63.5215 266.896 63.4469 267.757 63.2232C268.655 62.9995 269.337 62.5893 269.803 61.9927C266.501 61.9927 263.863 61.5079 261.89 60.5385C259.916 59.5317 258.48 57.9843 257.583 55.8961C256.721 53.7707 256.291 50.9741 256.291 47.5064C256.291 44.5234 256.721 42.1183 257.583 40.2912C258.48 38.4268 259.88 37.4946 261.782 37.4946C263.469 37.4946 264.707 37.998 265.496 39.0048C266.322 39.9742 266.735 41.242 266.735 42.8081L266.681 45.2691C266.645 45.7539 266.627 46.4623 266.627 47.3945C266.627 49.1843 266.842 50.5453 267.273 51.4775C267.704 52.3724 268.565 52.8199 269.857 52.8199C271.149 52.8199 272.01 52.3724 272.441 51.4775C272.872 50.5453 273.087 49.203 273.087 47.4505C273.087 46.5183 273.069 45.8098 273.033 45.3251L272.979 42.92C272.979 41.242 273.374 39.9183 274.164 38.9488C274.989 37.9794 276.245 37.4946 277.932 37.4946C279.834 37.4946 281.234 38.4268 282.131 40.2912C283.028 42.1556 283.477 44.5606 283.477 47.5064C283.477 51.9063 282.867 55.9521 281.647 59.6436C280.462 63.2978 278.506 66.2621 275.779 68.5367C273.087 70.8113 269.588 71.9485 265.281 71.9485Z" fill="white"/>
<path fill-rule="evenodd" clip-rule="evenodd" d="M149.634 0.402437C150.47 -0.155817 151.535 -0.114648 152.409 0.410643C154.658 1.76207 154.37 5.27573 152.222 6.71647C149.411 8.60117 147.443 11.3222 146.562 16.2296C149.406 17.3005 151.803 19.4372 153.359 22.2075C153.383 22.2504 153.397 22.2901 153.401 22.3269C152.798 22.2522 152.186 22.214 151.566 22.214C142.723 22.214 135.366 30.0088 133.834 40.2912C131.179 37.6895 129.507 33.8968 129.507 29.6736C129.507 23.2141 133.419 17.7618 138.775 16.0381C137.877 11.2511 135.925 8.57651 133.151 6.71647C131.002 5.27573 130.714 1.76207 132.963 0.410643C133.837 -0.114648 134.902 -0.155817 135.738 0.402437C140.759 3.75412 141.489 8.15588 141.757 15.4875C141.968 15.4761 142.18 15.4704 142.394 15.4704C142.805 15.4704 143.212 15.4916 143.614 15.5332C143.88 8.17417 144.603 3.76108 149.634 0.402437Z" fill="white"/>
</svg>
