<svg width="125" height="37" viewBox="0 0 125 37" fill="none" xmlns="http://www.w3.org/2000/svg">
<path d="M7.85739 32.7593C5.23035 32.7404 0 32.5886 0 32.5886C0 32.5886 0 26.3936 0 22.9404C0 19.8097 0.633022 17.3526 1.89907 15.569C3.16511 13.7665 4.9534 12.8653 7.26393 12.8653C8.68823 12.8653 9.93054 13.1214 10.9909 13.6337C12.0512 14.146 12.8662 14.8765 13.4359 15.8252C14.0056 16.7739 14.2905 17.8933 14.2905 19.1836C14.2905 20.2081 14.1006 21.1189 13.7208 21.9158C13.3568 22.7127 12.8108 23.4242 12.0828 24.0504C12.6684 24.1642 13.1748 24.5437 13.6021 25.1888C14.0452 25.8339 14.2667 26.5834 14.2667 27.4372C14.2667 28.3479 14.061 29.2112 13.6495 30.0271C13.2539 30.824 12.5734 31.4786 11.608 31.9909C10.6585 32.5032 9.4083 32.7593 7.85739 32.7593ZM6.21945 22.1435C6.50431 22.3142 6.86038 22.3996 7.28767 22.3996C7.79409 22.3996 8.22929 22.2573 8.59328 21.9727C8.97309 21.6691 9.163 21.2233 9.163 20.6351C9.163 20.0658 8.97309 19.6389 8.59328 19.3543C8.22929 19.0507 7.78618 18.899 7.26393 18.899C6.85247 18.899 6.50431 18.9843 6.21945 19.1551C5.99789 19.2689 5.83172 19.4682 5.72094 19.7528C5.61016 20.0374 5.55477 20.341 5.55477 20.6635C5.55477 20.9861 5.61016 21.2897 5.72094 21.5743C5.83172 21.8399 5.99789 22.0296 6.21945 22.1435ZM6.21945 28.8033C6.52013 28.9551 6.87621 29.031 7.28767 29.031C7.79409 29.031 8.22929 28.9077 8.59328 28.661C8.97309 28.3954 9.163 28.0064 9.163 27.4941C9.163 27.0008 8.97309 26.6213 8.59328 26.3557C8.21347 26.09 7.77035 25.9572 7.26393 25.9572C6.86829 25.9572 6.52013 26.0331 6.21945 26.1849C5.99789 26.2988 5.83172 26.479 5.72094 26.7257C5.61016 26.9534 5.55477 27.2095 5.55477 27.4941C5.55477 27.7787 5.61016 28.0443 5.72094 28.291C5.83172 28.5187 5.99789 28.6895 6.21945 28.8033Z" fill="#3F4C6D"/>
<path d="M19.2948 32.7878C18.0604 32.7878 17.0476 32.4558 16.2563 31.7917C15.465 31.1086 15.0694 30.1315 15.0694 28.8602C15.0694 27.7597 15.4729 26.8869 16.2801 26.2418C17.0872 25.5967 18.0921 25.2742 19.2948 25.2742C19.7379 25.2742 20.1494 25.3216 20.5292 25.4165C20.9249 25.4924 21.1939 25.5872 21.3363 25.7011C21.3363 25.2267 21.1702 24.8378 20.8378 24.5342C20.5055 24.2116 19.9991 24.0504 19.3186 24.0504C19.0179 24.0504 18.7726 24.0788 18.5827 24.1357C18.3928 24.1927 18.187 24.278 17.9655 24.3919C17.7439 24.5057 17.5382 24.5911 17.3483 24.648C17.1742 24.705 16.9368 24.7334 16.6361 24.7334C16.1297 24.7334 15.7341 24.5816 15.4492 24.278C15.1643 23.9555 15.0219 23.4716 15.0219 22.8265C15.0219 22.0866 15.2435 21.4604 15.6866 20.9481C16.1455 20.4358 16.7153 20.0564 17.3958 19.8097C18.0763 19.5441 18.7568 19.4112 19.4373 19.4112C20.7824 19.4112 21.906 19.7148 22.8081 20.322C23.726 20.9102 24.3986 21.6976 24.8259 22.6842C25.269 23.6709 25.4905 24.7619 25.4905 25.9572C25.4905 26.6023 25.4431 27.2 25.3481 27.7502C25.269 28.3005 25.1582 28.7274 25.0158 29.031C25.2373 29.2587 25.4035 29.5243 25.5143 29.8279C25.6409 30.1315 25.7042 30.4445 25.7042 30.7671C25.7042 31.3173 25.5459 31.7917 25.2294 32.1901C24.9287 32.5886 24.5252 32.7878 24.0187 32.7878C23.6389 32.7878 23.3303 32.7214 23.093 32.5886C22.8556 32.4558 22.6024 32.2471 22.3333 31.9624C21.9377 32.2471 21.5025 32.4558 21.0277 32.5886C20.5688 32.7214 19.9911 32.7878 19.2948 32.7878ZM19.7696 29.9133C20.1019 29.9133 20.363 29.8279 20.553 29.6571C20.7587 29.4864 20.8616 29.2776 20.8616 29.031C20.8616 28.7843 20.7587 28.5756 20.553 28.4048C20.363 28.2341 20.1019 28.1487 19.7696 28.1487C19.4373 28.1487 19.1682 28.2341 18.9625 28.4048C18.7726 28.5756 18.6776 28.7843 18.6776 29.031C18.6776 29.2776 18.7726 29.4864 18.9625 29.6571C19.1682 29.8279 19.4373 29.9133 19.7696 29.9133Z" fill="#3F4C6D"/>
<path d="M33.704 32.7878C30.8237 32.7878 28.9642 31.7348 28.1255 29.6287C27.3026 27.5036 26.8911 25.3501 26.8911 23.1681C26.8911 21.5553 27.0098 19.9615 27.2472 18.3867C27.5004 16.8118 27.9039 15.4931 28.4578 14.4306C29.0117 13.3681 29.7318 12.8368 30.618 12.8368C31.1719 12.8368 31.6467 13.0455 32.0423 13.4629C32.438 13.8804 32.6358 14.4875 32.6358 15.2844C32.6358 15.6829 32.6041 16.0813 32.5408 16.4798C32.4775 16.8782 32.3826 17.3716 32.256 17.9598C32.2243 18.0736 32.161 18.3582 32.066 18.8136C31.9869 19.2689 31.9315 19.6959 31.8999 20.0943C32.5962 19.6389 33.3875 19.4112 34.2737 19.4112C35.1599 19.4112 35.9829 19.6484 36.7425 20.1228C37.518 20.5971 38.1431 21.3276 38.6178 22.3142C39.1084 23.2819 39.3537 24.4678 39.3537 25.8718C39.3537 27.0672 39.1243 28.1961 38.6653 29.2587C38.2064 30.3022 37.5417 31.1561 36.6713 31.8201C35.8167 32.4653 34.8276 32.7878 33.704 32.7878ZM33.5616 28.291C33.9889 28.291 34.3608 28.1013 34.6773 27.7218C35.0096 27.3233 35.1758 26.8585 35.1758 26.3272C35.1758 25.7959 35.0096 25.3311 34.6773 24.9326C34.3608 24.5342 33.9889 24.335 33.5616 24.335C33.1343 24.335 32.7624 24.5342 32.4459 24.9326C32.1293 25.3311 31.9711 25.7959 31.9711 26.3272C31.9711 26.8585 32.1293 27.3233 32.4459 27.7218C32.7624 28.1013 33.1343 28.291 33.5616 28.291Z" fill="#3F4C6D"/>
<path d="M43.7909 37C42.9364 37 42.2242 36.8008 41.6545 36.4023C41.0848 36.0039 40.7999 35.4157 40.7999 34.6378C40.7999 34.0116 41.0452 33.5183 41.5358 33.1578C42.0264 32.7973 42.604 32.636 43.2687 32.674C43.965 32.7119 44.5031 32.674 44.8829 32.5601C45.2785 32.4463 45.5792 32.2376 45.785 31.934C44.329 31.934 43.1658 31.6873 42.2954 31.194C41.425 30.6817 40.792 29.8943 40.3964 28.8318C40.0165 27.7503 39.8266 26.3272 39.8266 24.5626C39.8266 23.0447 40.0165 21.8209 40.3964 20.8912C40.792 19.9425 41.4092 19.4682 42.2479 19.4682C42.9917 19.4682 43.5377 19.7243 43.8859 20.2366C44.2499 20.7299 44.4319 21.375 44.4319 22.1719L44.4081 23.4242C44.3923 23.6709 44.3844 24.0314 44.3844 24.5057C44.3844 25.4165 44.4794 26.109 44.6693 26.5834C44.8592 27.0387 45.239 27.2664 45.8087 27.2664C46.3784 27.2664 46.7582 27.0387 46.9481 26.5834C47.138 26.109 47.233 25.426 47.233 24.5342C47.233 24.0598 47.2251 23.6993 47.2093 23.4527L47.1855 22.2289C47.1855 21.375 47.3596 20.7015 47.7078 20.2082C48.0718 19.7148 48.6256 19.4682 49.3694 19.4682C50.2082 19.4682 50.8254 19.9425 51.221 20.8912C51.6167 21.8399 51.8145 23.0637 51.8145 24.5626C51.8145 26.8016 51.5455 28.8602 51.0074 30.7386C50.4851 32.5981 49.6227 34.1065 48.4199 35.2639C47.233 36.4213 45.69 37 43.7909 37Z" fill="#3F4C6D"/>
<path d="M74.5438 20.9197C74.5438 22.3048 74.3697 23.5286 74.0215 24.5911C73.6892 25.6536 73.2144 26.5454 72.5972 27.2664C72.1224 28.2706 72.3136 29.2131 73.3806 30.084C73.3806 30.862 73.1274 31.5071 72.621 32.0194C72.1304 32.5317 71.5686 32.7878 70.9355 32.7878C70.5716 32.7878 70.2392 32.7214 69.9385 32.5886C69.6379 32.4558 69.3134 32.2281 68.9653 31.9055C68.6646 31.6209 68.3797 31.232 68.1107 30.7386C67.8416 30.2453 67.628 29.733 67.4697 29.2018C66.9475 29.1259 66.4253 28.9646 65.903 28.7179C65.6761 29.2302 65.578 29.5076 65.5544 30.0556C65.5208 30.8339 66.1168 31.4582 65.7894 31.9055C65.4006 32.4368 64.5459 32.8163 63.6953 32.8163C62.3818 32.8163 61.456 31.896 60.918 30.0556C60.3799 28.2151 60.1109 25.9667 60.1109 23.3104C60.1109 21.5079 60.3799 19.8192 60.918 18.2444C61.4719 16.6506 62.3106 15.3698 63.4342 14.4022C64.5578 13.4155 65.9268 12.9222 67.541 12.9222C68.8387 12.9222 70.0177 13.2542 71.078 13.9183C72.1383 14.5634 72.977 15.4931 73.5942 16.7075C74.2273 17.9218 74.5438 19.3259 74.5438 20.9197ZM65.6656 22.2573C65.6656 22.9024 65.8793 23.4717 66.3066 23.965C66.7339 24.4393 67.2244 24.6765 67.7783 24.6765C68.3481 24.6765 68.8387 24.4393 69.2501 23.965C69.6774 23.4717 69.8911 22.9024 69.8911 22.2573C69.8911 21.5932 69.6774 21.024 69.2501 20.5497C68.8387 20.0564 68.3481 19.8097 67.7783 19.8097C67.2244 19.8097 66.7339 20.0564 66.3066 20.5497C65.8793 21.043 65.6656 21.6122 65.6656 22.2573Z" fill="#3F4C6D"/>
<path d="M79.2898 32.7878C78.0554 32.7878 77.0425 32.4558 76.2513 31.7917C75.46 31.1086 75.0643 30.1315 75.0643 28.8602C75.0643 27.7597 75.4679 26.8869 76.275 26.2418C77.0821 25.5967 78.087 25.2742 79.2898 25.2742C79.7329 25.2742 80.1443 25.3216 80.5242 25.4165C80.9198 25.4924 81.1888 25.5872 81.3313 25.7011C81.3313 25.2267 81.1651 24.8378 80.8328 24.5342C80.5004 24.2116 79.994 24.0504 79.3135 24.0504C79.0128 24.0504 78.7675 24.0788 78.5776 24.1357C78.3877 24.1927 78.182 24.278 77.9604 24.3919C77.7389 24.5057 77.5331 24.5911 77.3432 24.648C77.1691 24.705 76.9318 24.7334 76.6311 24.7334C76.1247 24.7334 75.729 24.5816 75.4442 24.278C75.1593 23.9555 75.0169 23.4716 75.0169 22.8265C75.0169 22.0866 75.2384 21.4604 75.6815 20.9481C76.1405 20.4358 76.7102 20.0564 77.3907 19.8097C78.0712 19.5441 78.7517 19.4112 79.4322 19.4112C80.7774 19.4112 81.901 19.7148 82.803 20.322C83.7209 20.9102 84.3935 21.6976 84.8208 22.6842C85.2639 23.6709 85.4855 24.7619 85.4855 25.9572C85.4855 26.6023 85.438 27.2 85.343 27.7502C85.2639 28.3005 85.1531 28.7274 85.0107 29.031C85.2323 29.2587 85.3984 29.5243 85.5092 29.8279C85.6358 30.1315 85.6991 30.4445 85.6991 30.7671C85.6991 31.3173 85.5409 31.7917 85.2244 32.1901C84.9237 32.5886 84.5201 32.7878 84.0137 32.7878C83.6339 32.7878 83.3253 32.7214 83.0879 32.5886C82.8505 32.4558 82.5973 32.2471 82.3283 31.9624C81.9326 32.2471 81.4974 32.4558 81.0227 32.5886C80.5637 32.7214 79.9861 32.7878 79.2898 32.7878ZM79.7645 29.9133C80.0969 29.9133 80.358 29.8279 80.5479 29.6571C80.7536 29.4864 80.8565 29.2776 80.8565 29.031C80.8565 28.7843 80.7536 28.5756 80.5479 28.4048C80.358 28.2341 80.0969 28.1487 79.7645 28.1487C79.4322 28.1487 79.1632 28.2341 78.9574 28.4048C78.7675 28.5756 78.6726 28.7843 78.6726 29.031C78.6726 29.2776 78.7675 29.4864 78.9574 29.6571C79.1632 29.8279 79.4322 29.9133 79.7645 29.9133Z" fill="#3F4C6D"/>
<path d="M93.6989 32.7878C90.8187 32.7878 88.9592 31.7348 88.1204 29.6287C87.2975 27.5036 86.886 25.3501 86.886 23.1681C86.886 21.5553 87.0047 19.9615 87.2421 18.3867C87.4953 16.8118 87.8989 15.4931 88.4528 14.4306C89.0067 13.3681 89.7267 12.8368 90.613 12.8368C91.1668 12.8368 91.6416 13.0455 92.0373 13.4629C92.4329 13.8804 92.6307 14.4875 92.6307 15.2844C92.6307 15.6829 92.5991 16.0813 92.5358 16.4798C92.4725 16.8782 92.3775 17.3716 92.2509 17.9598C92.2193 18.0736 92.156 18.3582 92.061 18.8136C91.9819 19.2689 91.9265 19.6959 91.8948 20.0943C92.5912 19.6389 93.3824 19.4112 94.2687 19.4112C95.1549 19.4112 95.9778 19.6484 96.7374 20.1228C97.5129 20.5971 98.138 21.3276 98.6128 22.3142C99.1034 23.2819 99.3487 24.4678 99.3487 25.8718C99.3487 27.0672 99.1192 28.1961 98.6603 29.2587C98.2013 30.3022 97.5367 31.1561 96.6662 31.8201C95.8117 32.4653 94.8225 32.7878 93.6989 32.7878ZM93.5565 28.291C93.9838 28.291 94.3557 28.1013 94.6722 27.7218C95.0046 27.3233 95.1707 26.8585 95.1707 26.3272C95.1707 25.7959 95.0046 25.3311 94.6722 24.9326C94.3557 24.5342 93.9838 24.335 93.5565 24.335C93.1292 24.335 92.7573 24.5342 92.4408 24.9326C92.1243 25.3311 91.966 25.7959 91.966 26.3272C91.966 26.8585 92.1243 27.3233 92.4408 27.7218C92.7573 28.1013 93.1292 28.291 93.5565 28.291Z" fill="#3F4C6D"/>
<path d="M106.89 32.7878C104.009 32.7878 102.15 31.7348 101.311 29.6287C100.488 27.5036 100.077 25.3501 100.077 23.1681C100.077 21.5553 100.195 19.9615 100.433 18.3867C100.686 16.8118 101.089 15.4931 101.643 14.4306C102.197 13.3681 102.917 12.8368 103.803 12.8368C104.357 12.8368 104.832 13.0455 105.228 13.4629C105.623 13.8804 105.821 14.4875 105.821 15.2844C105.821 15.6829 105.79 16.0813 105.726 16.4798C105.663 16.8782 105.568 17.3716 105.441 17.9598C105.41 18.0736 105.347 18.3582 105.252 18.8136C105.172 19.2689 105.117 19.6959 105.085 20.0943C105.782 19.6389 106.573 19.4112 107.459 19.4112C108.345 19.4112 109.168 19.6484 109.928 20.1228C110.703 20.5971 111.329 21.3276 111.803 22.3142C112.294 23.2819 112.539 24.4678 112.539 25.8718C112.539 27.0672 112.31 28.1961 111.851 29.2587C111.392 30.3022 110.727 31.1561 109.857 31.8201C109.002 32.4653 108.013 32.7878 106.89 32.7878ZM106.747 28.291C107.174 28.291 107.546 28.1013 107.863 27.7218C108.195 27.3233 108.361 26.8585 108.361 26.3272C108.361 25.7959 108.195 25.3311 107.863 24.9326C107.546 24.5342 107.174 24.335 106.747 24.335C106.32 24.335 105.948 24.5342 105.631 24.9326C105.315 25.3311 105.157 25.7959 105.157 26.3272C105.157 26.8585 105.315 27.3233 105.631 27.7218C105.948 28.1013 106.32 28.291 106.747 28.291Z" fill="#3F4C6D"/>
<path d="M116.976 37C116.122 37 115.41 36.8008 114.84 36.4023C114.27 36.0039 113.985 35.4157 113.985 34.6378C113.985 34.0116 114.231 33.5183 114.721 33.1578C115.212 32.7973 115.79 32.636 116.454 32.674C117.151 32.7119 117.689 32.674 118.068 32.5601C118.464 32.4463 118.765 32.2376 118.97 31.934C117.514 31.934 116.351 31.6873 115.481 31.194C114.611 30.6817 113.977 29.8943 113.582 28.8318C113.202 27.7503 113.012 26.3272 113.012 24.5626C113.012 23.0447 113.202 21.8209 113.582 20.8912C113.977 19.9425 114.595 19.4682 115.433 19.4682C116.177 19.4682 116.723 19.7243 117.071 20.2366C117.435 20.7299 117.617 21.375 117.617 22.1719L117.594 23.4242C117.578 23.6709 117.57 24.0314 117.57 24.5057C117.57 25.4165 117.665 26.109 117.855 26.5834C118.045 27.0387 118.424 27.2664 118.994 27.2664C119.564 27.2664 119.944 27.0387 120.134 26.5834C120.324 26.109 120.418 25.426 120.418 24.5342C120.418 24.0598 120.411 23.6993 120.395 23.4527L120.371 22.2289C120.371 21.375 120.545 20.7015 120.893 20.2082C121.257 19.7148 121.811 19.4682 122.555 19.4682C123.394 19.4682 124.011 19.9425 124.407 20.8912C124.802 21.8399 125 23.0637 125 24.5626C125 26.8016 124.731 28.8602 124.193 30.7386C123.671 32.5981 122.808 34.1065 121.605 35.2639C120.418 36.4213 118.875 37 116.976 37Z" fill="#3F4C6D"/>
<path fill-rule="evenodd" clip-rule="evenodd" d="M66.6161 0.203637C66.9848 -0.0788447 67.4546 -0.0580128 67.84 0.207789C68.8316 0.891624 68.7047 2.66957 67.7572 3.39859C66.5178 4.35227 65.6502 5.72913 65.2616 8.21233C66.5159 8.75422 67.5726 9.83539 68.2589 11.2372C68.2695 11.2589 68.2756 11.279 68.2775 11.2976C68.0114 11.2598 67.7415 11.2405 67.4683 11.2405C63.5686 11.2405 60.3249 15.1847 59.6492 20.3877C58.4786 19.0712 57.7411 17.1521 57.7411 15.0151C57.7411 11.7465 59.4664 8.98761 61.828 8.11541C61.432 5.69316 60.571 4.33979 59.3478 3.39859C58.4003 2.66957 58.2734 0.891624 59.265 0.207789C59.6505 -0.0580128 60.1202 -0.0788447 60.4889 0.203637C62.7028 1.89962 63.0246 4.12695 63.1428 7.8368C63.2359 7.83106 63.3295 7.82816 63.4238 7.82816C63.6051 7.82816 63.7845 7.83891 63.9616 7.85993C64.0791 4.1362 64.3976 1.90314 66.6161 0.203637Z" fill="#3F4C6D"/>
</svg>
