<svg width="28" height="26" viewBox="0 0 28 26" fill="none" xmlns="http://www.w3.org/2000/svg">
<path d="M14.0974 25.8804C21.3984 25.8804 27.317 20.0869 27.317 12.9402C27.317 5.79353 21.3984 0 14.0974 0C6.79651 0 0.87793 5.79353 0.87793 12.9402C0.87793 20.0869 6.79651 25.8804 14.0974 25.8804Z" fill="#3F4C6D"/>
<path d="M14.0974 0C6.79679 0 0.87793 5.79381 0.87793 12.9402C0.87793 18.4252 4.35961 23.1113 9.27749 24.9965C9.15781 23.974 9.05988 22.3978 9.32101 21.2795C9.56038 20.2677 10.866 14.8466 10.866 14.8466C10.866 14.8466 10.4743 14.0692 10.4743 12.9296C10.4743 11.1297 11.5406 9.7877 12.868 9.7877C13.9995 9.7877 14.5435 10.6184 14.5435 11.6089C14.5435 12.7166 13.8254 14.378 13.4446 15.9223C13.1291 17.211 14.1083 18.2654 15.4031 18.2654C17.7532 18.2654 19.5593 15.8371 19.5593 12.3438C19.5593 9.24453 17.2854 7.08251 14.0322 7.08251C10.2676 7.08251 8.0589 9.84096 8.0589 12.6953C8.0589 13.8029 8.49411 14.9957 9.03812 15.6454C9.14692 15.7732 9.15781 15.8904 9.12516 16.0182C9.02724 16.4229 8.79876 17.3069 8.75524 17.4879C8.70083 17.7222 8.55939 17.7755 8.30915 17.6583C6.65535 16.9022 5.62172 14.5484 5.62172 12.642C5.62172 8.56291 8.64643 4.81397 14.3586 4.81397C18.9392 4.81397 22.5079 8.00909 22.5079 12.2905C22.5079 16.7531 19.6355 20.3422 15.6533 20.3422C14.315 20.3422 13.0529 19.6606 12.6286 18.8512C12.6286 18.8512 11.9649 21.3221 11.8017 21.9291C11.5079 23.0581 10.7028 24.4639 10.1588 25.3266C11.3991 25.6994 12.7048 25.9017 14.0757 25.9017C21.3763 25.9017 27.2952 20.1079 27.2952 12.9615C27.317 5.79381 21.3981 0 14.0974 0Z" fill="white"/>
</svg>
