<svg width="78" height="72" viewBox="0 0 78 72" fill="none" xmlns="http://www.w3.org/2000/svg">
<path d="M2 22.9445C2 22.0016 2 21.5302 2.29289 21.2374C2.58579 20.9445 3.05719 20.9445 4 20.9445H73.2592C74.2021 20.9445 74.6735 20.9445 74.9664 21.2374C75.2592 21.5302 75.2592 22.0016 75.2592 22.9445V39.1759C75.2592 40.1187 75.2592 40.5901 74.9664 40.883C74.6735 41.1759 74.2021 41.1759 73.2592 41.1759H65.0494C64.1066 41.1759 63.6352 41.1759 63.3423 41.4688C63.0494 41.7617 63.0494 42.2331 63.0494 43.1759V67.5C63.0494 68.4428 63.0494 68.9142 62.7565 69.2071C62.4636 69.5 61.9922 69.5 61.0494 69.5H16.2099C15.2671 69.5 14.7957 69.5 14.5028 69.2071C14.2099 68.9142 14.2099 68.4428 14.2099 67.5V43.1759C14.2099 42.2331 14.2099 41.7617 13.917 41.4688C13.6241 41.1759 13.1527 41.1759 12.2099 41.1759H4C3.05719 41.1759 2.58579 41.1759 2.29289 40.883C2 40.5901 2 40.1187 2 39.1759V22.9445Z" fill="white" stroke="#C08D9B" stroke-width="4"/>
<path d="M10.5186 41.3889H66.7408" stroke="#C08D9B" stroke-width="4" stroke-linecap="round"/>
<path d="M38.6289 16.6852L38.6289 69.5" stroke="#C08D9B" stroke-width="4" stroke-linecap="round"/>
<path d="M38.6297 16.8556L30.5381 8.61682C29.2572 7.3127 27.6883 6.32729 25.9573 5.73982L20.7513 3.97293C15.7292 2.26847 10.5186 6.00259 10.5186 11.306V11.306C10.5186 14.6237 12.632 17.5728 15.7737 18.6391L22.5662 20.9444" stroke="#C08D9B" stroke-width="4" stroke-linecap="round"/>
<path d="M38.6291 16.8556L46.7207 8.61682C48.0016 7.3127 49.5705 6.32729 51.3015 5.73982L56.5075 3.97293C61.5296 2.26847 66.7402 6.00259 66.7402 11.306V11.306C66.7402 14.6237 64.6268 17.5728 61.4851 18.6391L54.6926 20.9444" stroke="#C08D9B" stroke-width="4" stroke-linecap="round"/>
</svg>
