<svg width="41" height="41" viewBox="0 0 41 41" fill="none" xmlns="http://www.w3.org/2000/svg">
<rect x="0.5" y="0.5" width="40" height="40" rx="20" fill="white"/>
<path d="M13.8943 22.1697L19.9779 27.8845C20.1465 28.0429 20.2308 28.1221 20.3248 28.1573C20.4378 28.1996 20.5622 28.1996 20.6752 28.1573C20.7692 28.1221 20.8535 28.0429 21.0221 27.8845L27.1057 22.1697C28.8173 20.5618 29.0252 17.9158 27.5856 16.0603L27.3149 15.7114C25.5927 13.4918 22.1359 13.864 20.9258 16.3994C20.7549 16.7576 20.2451 16.7576 20.0742 16.3994C18.8641 13.864 15.4073 13.4918 13.6851 15.7114L13.4144 16.0603C11.9748 17.9158 12.1827 20.5618 13.8943 22.1697Z" fill="#3F4C6D" stroke="#3F4C6D" stroke-width="2"/>
<rect x="0.5" y="0.5" width="40" height="40" rx="20" stroke="#3F4C6D"/>
</svg>
