<svg width="27" height="26" viewBox="0 0 27 26" fill="none" xmlns="http://www.w3.org/2000/svg">
<path fill-rule="evenodd" clip-rule="evenodd" d="M0 12.9935C0 20.1696 5.91857 25.9869 13.2195 25.9869C20.5204 25.9869 26.439 20.1696 26.439 12.9935C26.439 5.81737 20.5204 0 13.2195 0C5.91857 0 0 5.81737 0 12.9935ZM10.7959 18.9488L11.0208 15.6367L11.0207 15.6366L17.1506 10.1993C17.4196 9.96465 17.0919 9.85021 16.7347 10.0631L9.16953 14.7543L5.90178 13.7518C5.19609 13.5394 5.19102 13.0628 6.06022 12.7201L18.7939 7.894C19.3755 7.63448 19.9368 8.0313 19.7148 8.90622L17.5462 18.9505C17.3948 19.6643 16.9561 19.835 16.3481 19.5053L13.0447 17.1064L11.4569 18.624C11.4519 18.6288 11.4469 18.6335 11.442 18.6383C11.2644 18.8082 11.1174 18.9488 10.7959 18.9488Z" fill="white"/>
</svg>
