<svg width="27" height="26" viewBox="0 0 27 26" fill="none" xmlns="http://www.w3.org/2000/svg">
<path fill-rule="evenodd" clip-rule="evenodd" d="M13.4163 25.99C20.7175 25.99 26.6363 20.1719 26.6363 12.995C26.6363 5.81806 20.7175 0 13.4163 0C6.11508 0 0.196289 5.81806 0.196289 12.995C0.196289 20.1719 6.11508 25.99 13.4163 25.99ZM13.5501 6.4975H15.9372C15.9372 8.27321 17.3449 9.72607 19.1403 9.7866V12.1677C17.9774 12.1475 16.8757 11.7641 15.978 11.1184V15.9814C15.978 18.423 13.9785 20.4207 11.5098 20.4207C9.04113 20.4207 7.04169 18.4432 7.04169 15.9814C7.04169 13.5398 9.00032 11.5825 11.4282 11.5421V13.9232C10.3265 13.9636 9.42877 14.8716 9.42877 15.9814C9.42877 17.1114 10.3469 18.0396 11.4894 18.0396C12.632 18.0396 13.5501 17.1114 13.5501 15.9814V6.4975Z" fill="white"/>
</svg>
