<svg width="97" height="91" viewBox="0 0 97 91" fill="none" xmlns="http://www.w3.org/2000/svg">
<path d="M60.625 58.4584H84.875V70.2917H60.625V58.4584Z" fill="white"/>
<path d="M80.8333 40.7084V31.8334H22.2292C16.6488 31.8334 12.125 35.1446 12.125 39.2292C12.125 43.3138 16.6488 46.625 22.2292 46.625H72.75L80.8333 40.7084Z" fill="white"/>
<path fill-rule="evenodd" clip-rule="evenodd" d="M76.9448 83.9C76.8939 83.9 76.8427 83.9 76.7915 83.9L28.1179 83.9C24.4551 83.9 21.4619 83.9001 19.0987 83.6675C16.6286 83.4244 14.4871 82.8984 12.7776 81.6471C11.0682 80.3959 10.3495 78.8283 10.0174 77.0203C9.69968 75.2906 9.69975 73.0997 9.69982 70.4187L9.69982 39.2291C9.69982 34.1642 15.3093 30.0583 22.229 30.0583L77.9462 30.0583C78.0026 30.0583 78.0616 30.0581 78.1232 30.0579C78.7204 30.0556 79.5454 30.0526 80.2807 30.2409C81.5577 30.568 82.5618 31.3029 83.0086 32.2377C83.2659 32.7759 83.2618 33.3797 83.2587 33.8169C83.2584 33.8619 83.2581 33.9052 83.2581 33.9464C83.2581 34.0747 83.2582 34.2012 83.2582 34.326C83.2595 37.5009 83.2603 39.555 82.4416 41.2674C81.7982 42.6133 80.8019 43.8326 79.5318 44.8673C80.2671 44.8834 80.9432 44.9144 81.5494 44.9741C82.9189 45.1089 84.2882 45.4183 85.4057 46.2363C86.5233 47.0543 86.9461 48.0566 87.1302 49.059C87.3001 49.9838 87.2999 51.1311 87.2998 52.4294L87.2998 76.2083C87.2998 76.2458 87.2998 76.2832 87.2998 76.3205C87.2999 77.6188 87.3001 78.7661 87.1302 79.6909C86.9461 80.6933 86.5233 81.6956 85.4057 82.5136C84.2882 83.3316 82.9189 83.641 81.5494 83.7758C80.2859 83.9001 78.7185 83.9001 76.9448 83.9ZM63.5117 48.4C63.687 48.4 63.8598 48.4 64.0303 48.4C64.3653 48.4001 64.6912 48.4002 65.0084 48.4H76.7915C78.7653 48.4 80.0017 48.4037 80.9031 48.4924C81.7348 48.5743 81.9101 48.6981 81.9763 48.7466C82.0425 48.795 82.2116 48.9233 82.3234 49.532C82.4446 50.1919 82.4498 51.0969 82.4498 52.5416L82.4498 56.6833L68.5548 56.6833C66.7811 56.6832 65.2136 56.6831 63.9502 56.8074C62.5807 56.9422 61.2114 57.2516 60.0938 58.0697C58.9763 58.8877 58.5535 59.8899 58.3694 60.8923C58.1995 61.8171 58.1996 62.9644 58.1998 64.2627V64.4872C58.1996 65.7855 58.1995 66.9328 58.3694 67.8576C58.5535 68.86 58.9763 69.8623 60.0938 70.6803C61.2114 71.4983 62.5807 71.8077 63.9502 71.9425C65.2136 72.0668 66.7811 72.0667 68.5548 72.0666C68.6057 72.0666 68.6568 72.0666 68.7081 72.0666H82.4498V76.2083C82.4498 77.653 82.4446 78.558 82.3234 79.2179C82.2116 79.8266 82.0425 79.9549 81.9763 80.0034C81.9101 80.0518 81.7348 80.1756 80.9031 80.2575C80.0017 80.3462 78.7653 80.35 76.7915 80.35L28.2915 80.35C24.4124 80.35 21.7471 80.3462 19.745 80.1492C17.8127 79.959 16.8652 79.6186 16.2071 79.1369C15.549 78.6552 15.0839 77.9617 14.8241 76.5473C14.555 75.0819 14.5498 73.1309 14.5498 70.2916L14.5498 46.4761C16.6708 47.682 19.3354 48.4 22.229 48.4L63.5117 48.4ZM63.5117 44.85C68.5524 44.85 70.4543 44.8249 71.9118 44.4515C74.6981 43.7379 76.8888 42.1344 77.8638 40.0949C78.3738 39.0281 78.4081 37.6359 78.4081 33.9464C78.4081 33.8121 78.4081 33.7036 78.407 33.6091C78.2779 33.6083 78.1296 33.6083 77.9462 33.6083L22.229 33.6083C17.9879 33.6083 14.5498 36.1248 14.5498 39.2291C14.5498 42.3334 17.9879 44.85 22.229 44.85L63.5117 44.85ZM82.4498 68.5166L82.4498 60.2333H68.7081C66.7343 60.2333 65.4979 60.2371 64.5964 60.3258C63.7647 60.4076 63.5895 60.5314 63.5233 60.5799C63.4571 60.6284 63.288 60.7566 63.1761 61.3654C63.0549 62.0252 63.0498 62.9302 63.0498 64.375C63.0498 65.8197 63.0549 66.7247 63.1761 67.3845C63.288 67.9933 63.4571 68.1216 63.5233 68.17C63.5895 68.2185 63.7647 68.3423 64.5964 68.4241C65.4979 68.5129 66.7343 68.5166 68.7081 68.5166H82.4498Z" fill="#C08D9B"/>
<path fill-rule="evenodd" clip-rule="evenodd" d="M72.6497 7.36115C73.395 6.4541 73.3544 5.19195 72.5589 4.54205C71.7635 3.89214 70.5145 4.1006 69.7692 5.00764L64.555 11.3532L67.8632 3.21777C68.2992 2.1455 67.8427 1.02595 66.8437 0.717196C65.8446 0.408442 64.6813 1.0274 64.2453 2.09968L57.5316 18.6101L52.4998 14.4989C51.4372 13.6308 49.7289 14.0911 48.965 15.4515L23.7607 60.3363C22.4446 62.68 25.0082 64.7746 27.0539 63.027L66.2315 29.5588C67.4189 28.5444 67.5356 26.7837 66.473 25.9155L61.5053 21.8567L76.4193 12.0463C77.3879 11.4091 77.7678 10.15 77.2677 9.23398C76.7677 8.31792 75.5771 8.09182 74.6085 8.72896L67.8995 13.1422L72.6497 7.36115ZM46.9659 21.5292C47.2144 21.2269 47.6307 21.1574 47.8959 21.374L52.4567 25.1004C52.7219 25.317 52.7354 25.7377 52.487 26.0401C52.2386 26.3424 51.8222 26.4119 51.5571 26.1953L46.9962 22.4689C46.731 22.2523 46.7175 21.8315 46.9659 21.5292ZM52.1108 21.6153C51.8456 21.3987 51.4293 21.4682 51.1809 21.7705C50.9324 22.0729 50.946 22.4936 51.2111 22.7102L55.772 26.4366C56.0371 26.6532 56.4535 26.5837 56.7019 26.2814C56.9504 25.979 56.9368 25.5583 56.6717 25.3417L52.1108 21.6153ZM38.1982 46.8475C38.4466 46.5451 38.8629 46.4756 39.1281 46.6923L41.5286 48.6535C41.7937 48.8701 41.8072 49.2909 41.5588 49.5932C41.3104 49.8956 40.894 49.9651 40.6289 49.7484L38.2284 47.7872C37.9633 47.5705 37.9497 47.1498 38.1982 46.8475ZM37.8371 42.8925C37.5719 42.6759 37.1556 42.7454 36.9072 43.0477C36.6587 43.3501 36.6723 43.7708 36.9374 43.9874L41.9784 48.1061C42.2435 48.3227 42.6599 48.2532 42.9083 47.9509C43.1568 47.6485 43.1432 47.2278 42.8781 47.0112L37.8371 42.8925Z" fill="#C08D9B"/>
<path d="M18.5742 48.2971C30.6639 48.2971 37.442 48.2971 49.5317 48.2971V67.3334H18.5742V48.2971Z" fill="#F5EFF1"/>
</svg>
