<svg width="27" height="26" viewBox="0 0 27 26" fill="none" xmlns="http://www.w3.org/2000/svg">
<path fill-rule="evenodd" clip-rule="evenodd" d="M13.659 0C6.35803 0 0.439453 5.81737 0.439453 12.9935C0.439453 20.1696 6.35803 25.9869 13.659 25.9869C20.9599 25.9869 26.8785 20.1696 26.8785 12.9935C26.8785 5.81737 20.9599 0 13.659 0ZM19.168 8.52655C19.7747 8.6902 20.2525 9.17237 20.4147 9.78469C20.7094 10.8945 20.7094 13.21 20.7094 13.21C20.7094 13.21 20.7094 15.5254 20.4147 16.6353C20.2525 17.2476 19.7747 17.7298 19.168 17.8935C18.0684 18.1908 13.659 18.1908 13.659 18.1908C13.659 18.1908 9.24949 18.1908 8.14987 17.8935C7.54313 17.7298 7.06531 17.2476 6.90315 16.6353C6.60855 15.5254 6.60855 13.21 6.60855 13.21C6.60855 13.21 6.60855 10.8945 6.90315 9.78469C7.06531 9.17237 7.54313 8.6902 8.14987 8.52655C9.24949 8.22915 13.659 8.22915 13.659 8.22915C13.659 8.22915 18.0684 8.22915 19.168 8.52655Z" fill="white"/>
<path d="M12.3369 15.5921V11.261L15.8621 13.4266L12.3369 15.5921Z" fill="white"/>
</svg>
