<svg width="275" height="104" viewBox="0 0 275 104" fill="none" xmlns="http://www.w3.org/2000/svg">
<rect x="1" y="1" width="273" height="101.787" rx="1" fill="white" stroke="#C08D9B" stroke-width="2"/>
<g clip-path="url(#clip0_483_2711)">
<path d="M111.87 52.5764C111.87 50.5606 111.708 48.534 111.363 46.5509H83.6953V57.9699H99.5395C98.8821 61.6527 96.7695 64.9106 93.6761 66.9808V74.3901H103.129C108.68 69.2254 111.87 61.5982 111.87 52.5764Z" fill="#4285F4"/>
<path d="M83.6954 81.5487C91.6067 81.5487 98.2786 78.9228 103.14 74.3901L93.687 66.9808C91.057 68.7895 87.6619 69.8138 83.7062 69.8138C76.0536 69.8138 69.565 64.5946 67.2368 57.5776H57.4824V65.2157C62.462 75.229 72.6045 81.5487 83.6954 81.5487Z" fill="#34A853"/>
<path d="M67.2253 57.5776C65.9966 53.8948 65.9966 49.9068 67.2253 46.224V38.586H57.4817C53.3212 46.9649 53.3212 56.8367 57.4817 65.2157L67.2253 57.5776Z" fill="#FBBC04"/>
<path d="M83.6954 33.9769C87.8774 33.9116 91.9193 35.5024 94.948 38.4225L103.323 29.9563C98.0199 24.9224 90.9816 22.1548 83.6954 22.242C72.6045 22.242 62.462 28.5616 57.4824 38.5859L67.2261 46.224C69.5434 39.1961 76.0428 33.9769 83.6954 33.9769Z" fill="#EA4335"/>
</g>
<path d="M146.787 59.7578C145.599 59.7578 144.484 59.5378 143.443 59.0978C142.416 58.6431 141.514 58.0198 140.737 57.2278C139.974 56.4211 139.373 55.4824 138.933 54.4118C138.507 53.3411 138.295 52.1824 138.295 50.9358C138.295 49.7038 138.507 48.5598 138.933 47.5038C139.373 46.4331 139.974 45.5018 140.737 44.7098C141.514 43.9031 142.416 43.2724 143.443 42.8178C144.469 42.3631 145.584 42.1358 146.787 42.1358C147.916 42.1358 148.884 42.2824 149.691 42.5758C150.512 42.8691 151.333 43.3531 152.155 44.0278C152.331 44.1744 152.448 44.3138 152.507 44.4458C152.565 44.5778 152.595 44.7391 152.595 44.9298C152.595 45.2084 152.492 45.4431 152.287 45.6338C152.096 45.8244 151.854 45.9271 151.561 45.9418C151.282 45.9564 151.018 45.8611 150.769 45.6558C150.226 45.1864 149.661 44.8271 149.075 44.5778C148.503 44.3284 147.74 44.2038 146.787 44.2038C145.921 44.2038 145.107 44.3798 144.345 44.7318C143.582 45.0838 142.907 45.5678 142.321 46.1838C141.749 46.7998 141.301 47.5184 140.979 48.3398C140.656 49.1464 140.495 50.0118 140.495 50.9358C140.495 51.8744 140.656 52.7544 140.979 53.5758C141.301 54.3824 141.749 55.0938 142.321 55.7098C142.907 56.3258 143.582 56.8098 144.345 57.1618C145.107 57.4991 145.921 57.6678 146.787 57.6678C147.432 57.6678 148.048 57.5724 148.635 57.3818C149.221 57.1911 149.786 56.9198 150.329 56.5678V52.6518H147.293C146.97 52.6518 146.699 52.5564 146.479 52.3658C146.259 52.1751 146.149 51.9331 146.149 51.6398C146.149 51.3464 146.259 51.1044 146.479 50.9138C146.699 50.7231 146.97 50.6278 147.293 50.6278H151.407C151.744 50.6278 152.015 50.7378 152.221 50.9578C152.426 51.1631 152.529 51.4344 152.529 51.7718V57.0298C152.529 57.1764 152.499 57.3231 152.441 57.4698C152.397 57.6018 152.309 57.7264 152.177 57.8438C151.399 58.4891 150.556 58.9731 149.647 59.2958C148.737 59.6038 147.784 59.7578 146.787 59.7578ZM160.543 59.6258C159.355 59.6258 158.307 59.3691 157.397 58.8558C156.488 58.3278 155.769 57.6091 155.241 56.6998C154.728 55.7758 154.471 54.7198 154.471 53.5318C154.471 52.3291 154.728 51.2731 155.241 50.3638C155.769 49.4398 156.488 48.7211 157.397 48.2078C158.307 47.6798 159.355 47.4158 160.543 47.4158C161.717 47.4158 162.758 47.6798 163.667 48.2078C164.577 48.7211 165.288 49.4398 165.801 50.3638C166.329 51.2731 166.593 52.3291 166.593 53.5318C166.593 54.7198 166.337 55.7758 165.823 56.6998C165.31 57.6091 164.599 58.3278 163.689 58.8558C162.78 59.3691 161.731 59.6258 160.543 59.6258ZM160.543 57.6458C161.306 57.6458 161.981 57.4698 162.567 57.1178C163.154 56.7658 163.609 56.2818 163.931 55.6658C164.269 55.0498 164.437 54.3384 164.437 53.5318C164.437 52.7251 164.269 52.0138 163.931 51.3978C163.609 50.7671 163.154 50.2758 162.567 49.9238C161.981 49.5718 161.306 49.3958 160.543 49.3958C159.781 49.3958 159.106 49.5718 158.519 49.9238C157.933 50.2758 157.471 50.7671 157.133 51.3978C156.796 52.0138 156.627 52.7251 156.627 53.5318C156.627 54.3384 156.796 55.0498 157.133 55.6658C157.471 56.2818 157.933 56.7658 158.519 57.1178C159.106 57.4698 159.781 57.6458 160.543 57.6458ZM175.389 59.6258C174.201 59.6258 173.152 59.3691 172.243 58.8558C171.334 58.3278 170.615 57.6091 170.087 56.6998C169.574 55.7758 169.317 54.7198 169.317 53.5318C169.317 52.3291 169.574 51.2731 170.087 50.3638C170.615 49.4398 171.334 48.7211 172.243 48.2078C173.152 47.6798 174.201 47.4158 175.389 47.4158C176.562 47.4158 177.604 47.6798 178.513 48.2078C179.422 48.7211 180.134 49.4398 180.647 50.3638C181.175 51.2731 181.439 52.3291 181.439 53.5318C181.439 54.7198 181.182 55.7758 180.669 56.6998C180.156 57.6091 179.444 58.3278 178.535 58.8558C177.626 59.3691 176.577 59.6258 175.389 59.6258ZM175.389 57.6458C176.152 57.6458 176.826 57.4698 177.413 57.1178C178 56.7658 178.454 56.2818 178.777 55.6658C179.114 55.0498 179.283 54.3384 179.283 53.5318C179.283 52.7251 179.114 52.0138 178.777 51.3978C178.454 50.7671 178 50.2758 177.413 49.9238C176.826 49.5718 176.152 49.3958 175.389 49.3958C174.626 49.3958 173.952 49.5718 173.365 49.9238C172.778 50.2758 172.316 50.7671 171.979 51.3978C171.642 52.0138 171.473 52.7251 171.473 53.5318C171.473 54.3384 171.642 55.0498 171.979 55.6658C172.316 56.2818 172.778 56.7658 173.365 57.1178C173.952 57.4698 174.626 57.6458 175.389 57.6458ZM189.795 59.6258C188.695 59.6258 187.719 59.3691 186.869 58.8558C186.033 58.3278 185.373 57.6091 184.889 56.6998C184.405 55.7758 184.163 54.7198 184.163 53.5318C184.163 52.3291 184.419 51.2731 184.933 50.3638C185.461 49.4398 186.179 48.7211 187.089 48.2078C187.998 47.6798 189.047 47.4158 190.235 47.4158C191.408 47.4158 192.449 47.6798 193.359 48.2078C194.268 48.7211 194.979 49.4398 195.493 50.3638C196.021 51.2731 196.285 52.3291 196.285 53.5318V58.2838C196.285 59.4424 196.028 60.4911 195.515 61.4298C195.001 62.3831 194.283 63.1384 193.359 63.6958C192.449 64.2531 191.393 64.5318 190.191 64.5318C189.149 64.5318 188.174 64.3264 187.265 63.9158C186.355 63.5051 185.585 62.9038 184.955 62.1118C184.764 61.8624 184.691 61.6058 184.735 61.3418C184.793 61.0778 184.94 60.8651 185.175 60.7038C185.439 60.5278 185.71 60.4691 185.989 60.5278C186.282 60.5864 186.517 60.7331 186.693 60.9678C187.089 61.4664 187.587 61.8551 188.189 62.1338C188.79 62.4124 189.472 62.5518 190.235 62.5518C190.939 62.5518 191.584 62.3831 192.171 62.0458C192.772 61.7084 193.249 61.2098 193.601 60.5498C193.953 59.8898 194.129 59.0831 194.129 58.1298V57.0518C193.674 57.8438 193.073 58.4744 192.325 58.9438C191.577 59.3984 190.733 59.6258 189.795 59.6258ZM190.235 57.6458C190.997 57.6458 191.672 57.4698 192.259 57.1178C192.845 56.7658 193.3 56.2818 193.623 55.6658C193.96 55.0498 194.129 54.3384 194.129 53.5318C194.129 52.7251 193.96 52.0138 193.623 51.3978C193.3 50.7671 192.845 50.2758 192.259 49.9238C191.672 49.5718 190.997 49.3958 190.235 49.3958C189.472 49.3958 188.797 49.5718 188.211 49.9238C187.624 50.2758 187.162 50.7671 186.825 51.3978C186.487 52.0138 186.319 52.7251 186.319 53.5318C186.319 54.3384 186.487 55.0498 186.825 55.6658C187.162 56.2818 187.624 56.7658 188.211 57.1178C188.797 57.4698 189.472 57.6458 190.235 57.6458ZM202.485 59.5378C201.839 59.5378 201.267 59.3618 200.769 59.0098C200.27 58.6578 199.881 58.1811 199.603 57.5798C199.324 56.9638 199.185 56.2598 199.185 55.4678V43.4558C199.185 43.1331 199.287 42.8691 199.493 42.6638C199.698 42.4584 199.962 42.3558 200.285 42.3558C200.607 42.3558 200.871 42.4584 201.077 42.6638C201.282 42.8691 201.385 43.1331 201.385 43.4558V55.4678C201.385 56.0104 201.487 56.4578 201.693 56.8098C201.898 57.1618 202.162 57.3378 202.485 57.3378H203.035C203.328 57.3378 203.563 57.4404 203.739 57.6458C203.929 57.8511 204.025 58.1151 204.025 58.4378C204.025 58.7604 203.885 59.0244 203.607 59.2298C203.328 59.4351 202.969 59.5378 202.529 59.5378H202.485ZM211.208 59.6258C209.991 59.6258 208.906 59.3691 207.952 58.8558C207.014 58.3278 206.273 57.6091 205.73 56.6998C205.202 55.7758 204.938 54.7198 204.938 53.5318C204.938 52.3291 205.188 51.2731 205.686 50.3638C206.2 49.4398 206.904 48.7211 207.798 48.2078C208.693 47.6798 209.72 47.4158 210.878 47.4158C212.022 47.4158 213.005 47.6724 213.826 48.1858C214.648 48.6844 215.271 49.3811 215.696 50.2758C216.136 51.1558 216.356 52.1751 216.356 53.3338C216.356 53.6124 216.261 53.8471 216.07 54.0378C215.88 54.2138 215.638 54.3018 215.344 54.3018H206.984C207.146 55.3138 207.608 56.1424 208.37 56.7878C209.148 57.4184 210.094 57.7338 211.208 57.7338C211.663 57.7338 212.125 57.6531 212.594 57.4918C213.078 57.3158 213.467 57.1178 213.76 56.8978C213.98 56.7364 214.215 56.6558 214.464 56.6558C214.728 56.6411 214.956 56.7144 215.146 56.8758C215.396 57.0958 215.528 57.3378 215.542 57.6018C215.557 57.8658 215.44 58.0931 215.19 58.2838C214.692 58.6798 214.068 59.0024 213.32 59.2518C212.587 59.5011 211.883 59.6258 211.208 59.6258ZM210.878 49.3078C209.793 49.3078 208.92 49.6084 208.26 50.2098C207.6 50.8111 207.182 51.5884 207.006 52.5418H214.332C214.2 51.6031 213.841 50.8331 213.254 50.2318C212.668 49.6158 211.876 49.3078 210.878 49.3078Z" fill="black"/>
<defs>
<clipPath id="clip0_483_2711">
<rect width="58.6667" height="59.3067" fill="white" transform="translate(53.7754 22.24)"/>
</clipPath>
</defs>
</svg>
