<svg width="270" height="104" viewBox="0 0 270 104" fill="none" xmlns="http://www.w3.org/2000/svg">
<path d="M0 2.47111C0 1.10636 1.07452 0 2.4 0H267.6C268.926 0 270 1.10635 270 2.47111V101.316C270 102.68 268.926 103.787 267.6 103.787H2.4C1.07452 103.787 0 102.68 0 101.316V2.47111Z" fill="white"/>
<path fill-rule="evenodd" clip-rule="evenodd" d="M267.6 2.47111H2.4V101.316H267.6V2.47111ZM2.4 0C1.07452 0 0 1.10636 0 2.47111V101.316C0 102.68 1.07452 103.787 2.4 103.787H267.6C268.926 103.787 270 102.68 270 101.316V2.47111C270 1.10635 268.926 0 267.6 0H2.4Z" fill="#C08D9B"/>
<path d="M117.231 57.2006C116.896 57.2006 116.615 57.0832 116.387 56.8485C116.159 56.6137 116.045 56.3242 116.045 55.9799V40.0869C116.045 39.727 116.159 39.4374 116.387 39.2183C116.615 38.9836 116.896 38.8662 117.231 38.8662H127.536C127.886 38.8662 128.167 38.9757 128.38 39.1949C128.593 39.3983 128.699 39.6722 128.699 40.0165C128.699 40.3452 128.593 40.6112 128.38 40.8147C128.167 41.0181 127.886 41.1198 127.536 41.1198H118.416V46.8244H124.96C125.309 46.8244 125.591 46.934 125.803 47.1531C126.016 47.3565 126.123 47.6226 126.123 47.9512C126.123 48.2799 126.016 48.5538 125.803 48.7729C125.591 48.9763 125.309 49.0781 124.96 49.0781H118.416V55.9799C118.416 56.3242 118.302 56.6137 118.074 56.8485C117.846 57.0832 117.565 57.2006 117.231 57.2006Z" fill="black"/>
<path d="M136.702 57.2945C135.592 57.2945 134.597 57.0128 133.715 56.4494C132.833 55.8703 132.134 55.0956 131.617 54.1253C131.116 53.1393 130.865 52.0282 130.865 50.7918C130.865 49.5554 131.139 48.4442 131.686 47.4582C132.248 46.4723 133.001 45.6976 133.943 45.1342C134.901 44.5551 135.972 44.2656 137.158 44.2656C138.343 44.2656 139.407 44.5551 140.35 45.1342C141.292 45.6976 142.037 46.4723 142.584 47.4582C143.147 48.4442 143.428 49.5554 143.428 50.7918V56.0268C143.428 56.3711 143.314 56.6607 143.086 56.8954C142.873 57.1145 142.599 57.2241 142.265 57.2241C141.931 57.2241 141.649 57.1145 141.421 56.8954C141.209 56.6607 141.102 56.3711 141.102 56.0268V55.1582C140.57 55.8155 139.924 56.3398 139.164 56.7311C138.419 57.1067 137.599 57.2945 136.702 57.2945ZM137.158 55.1817C137.933 55.1817 138.625 54.9939 139.233 54.6183C139.841 54.227 140.319 53.7027 140.669 53.0454C141.019 52.3725 141.193 51.6212 141.193 50.7918C141.193 49.9467 141.019 49.1954 140.669 48.5381C140.319 47.8652 139.841 47.3409 139.233 46.9653C138.625 46.574 137.933 46.3784 137.158 46.3784C136.398 46.3784 135.706 46.574 135.083 46.9653C134.475 47.3409 133.989 47.8652 133.624 48.5381C133.274 49.1954 133.099 49.9467 133.099 50.7918C133.099 51.6212 133.274 52.3725 133.624 53.0454C133.989 53.7027 134.475 54.227 135.083 54.6183C135.706 54.9939 136.398 55.1817 137.158 55.1817Z" fill="black"/>
<path d="M152.543 57.2945C151.327 57.2945 150.24 57.0128 149.283 56.4494C148.34 55.8703 147.596 55.0956 147.048 54.1253C146.516 53.1393 146.25 52.0282 146.25 50.7918C146.25 49.5241 146.516 48.3973 147.048 47.4113C147.58 46.4253 148.31 45.6585 149.237 45.1107C150.164 44.5473 151.228 44.2656 152.429 44.2656C154.223 44.2656 155.712 44.9698 156.898 46.3784C157.111 46.6288 157.187 46.887 157.126 47.1531C157.065 47.4191 156.898 47.6539 156.624 47.8573C156.412 48.0138 156.176 48.0686 155.918 48.0217C155.659 47.9591 155.424 47.8182 155.211 47.5991C154.466 46.7853 153.539 46.3784 152.429 46.3784C151.259 46.3784 150.309 46.7853 149.579 47.5991C148.85 48.3973 148.485 49.4615 148.485 50.7918C148.485 51.6369 148.652 52.3881 148.986 53.0454C149.336 53.7027 149.815 54.227 150.423 54.6183C151.031 54.9939 151.738 55.1817 152.543 55.1817C153.577 55.1817 154.413 54.9078 155.051 54.3601C155.294 54.1566 155.545 54.0471 155.804 54.0314C156.062 54.0001 156.29 54.0705 156.488 54.2427C156.746 54.4618 156.89 54.7122 156.921 54.9939C156.951 55.26 156.86 55.5025 156.647 55.7216C155.553 56.7702 154.185 57.2945 152.543 57.2945Z" fill="black"/>
<path d="M166.442 57.2945C165.18 57.2945 164.055 57.0206 163.067 56.4729C162.095 55.9094 161.327 55.1426 160.765 54.1723C160.217 53.1863 159.944 52.0595 159.944 50.7918C159.944 49.5084 160.202 48.3816 160.719 47.4113C161.251 46.4253 161.981 45.6585 162.908 45.1107C163.835 44.5473 164.899 44.2656 166.1 44.2656C167.285 44.2656 168.304 44.5395 169.155 45.0872C170.006 45.6193 170.652 46.3627 171.093 47.3174C171.549 48.2564 171.777 49.3441 171.777 50.5805C171.777 50.8779 171.678 51.1283 171.481 51.3317C171.283 51.5195 171.032 51.6134 170.728 51.6134H162.064C162.231 52.6933 162.71 53.5775 163.501 54.2662C164.306 54.9391 165.287 55.2756 166.442 55.2756C166.913 55.2756 167.392 55.1895 167.878 55.0174C168.38 54.8296 168.783 54.6183 169.087 54.3835C169.315 54.2114 169.558 54.1253 169.816 54.1253C170.09 54.1097 170.325 54.1879 170.523 54.3601C170.781 54.5948 170.918 54.853 170.933 55.1348C170.949 55.4165 170.827 55.659 170.569 55.8625C170.052 56.2851 169.406 56.6294 168.631 56.8954C167.871 57.1615 167.141 57.2945 166.442 57.2945ZM166.1 46.2845C164.975 46.2845 164.071 46.6053 163.387 47.247C162.703 47.8886 162.269 48.7181 162.087 49.7354H169.679C169.543 48.7338 169.17 47.9121 168.562 47.2704C167.954 46.6131 167.133 46.2845 166.1 46.2845Z" fill="black"/>
<path d="M181.013 57.2945C179.828 57.2945 178.764 57.0128 177.821 56.4494C176.879 55.8703 176.134 55.0878 175.587 54.1018C175.04 53.1159 174.758 52.0047 174.743 50.7683V40.0634C174.743 39.7035 174.85 39.414 175.062 39.1949C175.29 38.9757 175.572 38.8662 175.906 38.8662C176.256 38.8662 176.537 38.9757 176.75 39.1949C176.962 39.414 177.069 39.7035 177.069 40.0634V46.4018C177.601 45.7445 178.239 45.2281 178.984 44.8525C179.744 44.4612 180.572 44.2656 181.469 44.2656C182.579 44.2656 183.574 44.5551 184.456 45.1342C185.338 45.6976 186.029 46.4723 186.531 47.4582C187.048 48.4286 187.306 49.5319 187.306 50.7683C187.306 52.0047 187.025 53.1159 186.462 54.1018C185.915 55.0878 185.17 55.8703 184.228 56.4494C183.286 57.0128 182.214 57.2945 181.013 57.2945ZM181.013 55.1817C181.788 55.1817 182.48 54.9939 183.088 54.6183C183.696 54.227 184.175 53.6949 184.524 53.022C184.889 52.349 185.072 51.5978 185.072 50.7683C185.072 49.9232 184.889 49.172 184.524 48.5146C184.175 47.8573 183.696 47.3409 183.088 46.9653C182.48 46.574 181.788 46.3784 181.013 46.3784C180.253 46.3784 179.562 46.574 178.938 46.9653C178.33 47.3409 177.852 47.8573 177.502 48.5146C177.152 49.172 176.978 49.9232 176.978 50.7683C176.978 51.5978 177.152 52.349 177.502 53.022C177.852 53.6949 178.33 54.227 178.938 54.6183C179.562 54.9939 180.253 55.1817 181.013 55.1817Z" fill="black"/>
<path d="M196.429 57.2945C195.198 57.2945 194.111 57.0206 193.168 56.4729C192.226 55.9094 191.481 55.1426 190.934 54.1723C190.402 53.1863 190.136 52.0595 190.136 50.7918C190.136 49.5084 190.402 48.3816 190.934 47.4113C191.481 46.4253 192.226 45.6585 193.168 45.1107C194.111 44.5473 195.198 44.2656 196.429 44.2656C197.645 44.2656 198.724 44.5473 199.666 45.1107C200.609 45.6585 201.346 46.4253 201.878 47.4113C202.425 48.3816 202.699 49.5084 202.699 50.7918C202.699 52.0595 202.433 53.1863 201.901 54.1723C201.369 55.1426 200.632 55.9094 199.689 56.4729C198.747 57.0206 197.66 57.2945 196.429 57.2945ZM196.429 55.1817C197.219 55.1817 197.918 54.9939 198.526 54.6183C199.134 54.2427 199.606 53.7262 199.94 53.0689C200.29 52.4116 200.464 51.6525 200.464 50.7918C200.464 49.931 200.29 49.172 199.94 48.5146C199.606 47.8417 199.134 47.3174 198.526 46.9418C197.918 46.5662 197.219 46.3784 196.429 46.3784C195.638 46.3784 194.939 46.5662 194.331 46.9418C193.723 47.3174 193.244 47.8417 192.895 48.5146C192.545 49.172 192.37 49.931 192.37 50.7918C192.37 51.6525 192.545 52.4116 192.895 53.0689C193.244 53.7262 193.723 54.2427 194.331 54.6183C194.939 54.9939 195.638 55.1817 196.429 55.1817Z" fill="black"/>
<path d="M211.814 57.2945C210.583 57.2945 209.496 57.0206 208.554 56.4729C207.612 55.9094 206.867 55.1426 206.32 54.1723C205.788 53.1863 205.522 52.0595 205.522 50.7918C205.522 49.5084 205.788 48.3816 206.32 47.4113C206.867 46.4253 207.612 45.6585 208.554 45.1107C209.496 44.5473 210.583 44.2656 211.814 44.2656C213.03 44.2656 214.11 44.5473 215.052 45.1107C215.994 45.6585 216.732 46.4253 217.264 47.4113C217.811 48.3816 218.084 49.5084 218.084 50.7918C218.084 52.0595 217.818 53.1863 217.286 54.1723C216.754 55.1426 216.017 55.9094 215.075 56.4729C214.132 57.0206 213.046 57.2945 211.814 57.2945ZM211.814 55.1817C212.605 55.1817 213.304 54.9939 213.912 54.6183C214.52 54.2427 214.991 53.7262 215.326 53.0689C215.675 52.4116 215.85 51.6525 215.85 50.7918C215.85 49.931 215.675 49.172 215.326 48.5146C214.991 47.8417 214.52 47.3174 213.912 46.9418C213.304 46.5662 212.605 46.3784 211.814 46.3784C211.024 46.3784 210.325 46.5662 209.717 46.9418C209.109 47.3174 208.63 47.8417 208.28 48.5146C207.931 49.172 207.756 49.931 207.756 50.7918C207.756 51.6525 207.931 52.4116 208.28 53.0689C208.63 53.7262 209.109 54.2427 209.717 54.6183C210.325 54.9939 211.024 55.1817 211.814 55.1817Z" fill="black"/>
<path d="M222.663 57.2006C222.328 57.2006 222.055 57.0989 221.842 56.8954C221.644 56.6763 221.546 56.3946 221.546 56.0503V40.0165C221.546 39.6722 221.644 39.3983 221.842 39.1949C222.055 38.9757 222.328 38.8662 222.663 38.8662C222.997 38.8662 223.263 38.9757 223.461 39.1949C223.674 39.3983 223.78 39.6722 223.78 40.0165V49.571L229.32 44.4769C229.548 44.2577 229.799 44.156 230.073 44.1717C230.362 44.1873 230.605 44.3125 230.802 44.5473C231.015 44.782 231.114 45.0403 231.099 45.322C231.083 45.6037 230.962 45.8541 230.734 46.0732L226.539 49.9232L230.962 55.5104C231.16 55.7608 231.243 56.0347 231.213 56.332C231.198 56.6137 231.061 56.8641 230.802 57.0832C230.559 57.2867 230.285 57.3728 229.981 57.3415C229.693 57.3258 229.45 57.1928 229.252 56.9424L224.92 51.4256L223.78 52.4585V56.0503C223.78 56.3946 223.674 56.6763 223.461 56.8954C223.263 57.0989 222.997 57.2006 222.663 57.2006Z" fill="black"/>
<g clip-path="url(#clip0_483_2727)">
<path d="M91.2016 51.8933C91.2016 35.5162 78.3074 22.24 62.4016 22.24C46.4958 22.24 33.6016 35.5162 33.6016 51.8933C33.6016 66.6939 44.1333 78.9619 57.9016 81.1864V60.465H50.5891V51.8933H57.9016V45.3603C57.9016 37.9285 62.2013 33.8233 68.7798 33.8233C71.9298 33.8233 75.2266 34.4025 75.2266 34.4025V41.7H71.5951C68.0176 41.7 66.9016 43.986 66.9016 46.3333V51.8933H74.8891L73.6122 60.465H66.9016V81.1864C80.6699 78.9619 91.2016 66.6939 91.2016 51.8933Z" fill="#1877F2"/>
<path d="M73.613 60.465L74.8898 51.8933H66.9023V46.3333C66.9023 43.9883 68.0183 41.7 71.5958 41.7H75.2273V34.4025C75.2273 34.4025 71.9317 33.8233 68.7805 33.8233C62.2021 33.8233 57.9023 37.9285 57.9023 45.3603V51.8933H50.5898V60.465H57.9023V81.1864C60.8842 81.6668 63.9205 81.6668 66.9023 81.1864V60.465H73.613Z" fill="white"/>
</g>
<defs>
<clipPath id="clip0_483_2727">
<rect width="57.6" height="59.3067" fill="white" transform="translate(33.6016 22.24)"/>
</clipPath>
</defs>
</svg>
