<svg width="1439" height="200" viewBox="0 0 1439 200" fill="none" xmlns="http://www.w3.org/2000/svg">
<g clip-path="url(#clip0_301_2506)">
<rect width="1440" height="200" fill="#F5EFF1"/>
<path fill-rule="evenodd" clip-rule="evenodd" d="M123.91 105.248C123.91 102.902 122.088 101 119.839 101C117.591 101 115.768 102.902 115.768 105.248V121.659L110.057 104.888C109.305 102.677 106.977 101.522 104.858 102.307C102.739 103.092 101.632 105.521 102.385 107.732L113.975 141.768H99.7513C96.7478 141.768 94.4984 144.64 95.0969 147.711L114.846 249.032C115.877 254.323 123.123 254.323 124.154 249.032L143.903 147.711C144.502 144.64 142.252 141.768 139.249 141.768H125.207L136.797 107.732C137.549 105.521 136.442 103.092 134.323 102.307C132.204 101.522 129.877 102.677 129.124 104.888L123.91 120.199V105.248ZM100.162 159.643C100.162 158.861 100.77 158.227 101.519 158.227H114.411C115.161 158.227 115.768 158.861 115.768 159.643C115.768 160.425 115.161 161.059 114.411 161.059H101.519C100.77 161.059 100.162 160.425 100.162 159.643ZM108.983 153.272C108.233 153.272 107.626 153.906 107.626 154.688C107.626 155.47 108.233 156.104 108.983 156.104H121.875C122.624 156.104 123.232 155.47 123.232 154.688C123.232 153.906 122.624 153.272 121.875 153.272H108.983ZM120.518 209.906C120.518 209.124 121.125 208.49 121.875 208.49H128.66C129.41 208.49 130.017 209.124 130.017 209.906C130.017 210.688 129.41 211.322 128.66 211.322H121.875C121.125 211.322 120.518 210.688 120.518 209.906ZM114.411 204.243C113.662 204.243 113.054 204.876 113.054 205.658C113.054 206.44 113.662 207.074 114.411 207.074H128.66C129.41 207.074 130.017 206.44 130.017 205.658C130.017 204.876 129.41 204.243 128.66 204.243H114.411Z" fill="white"/>
<path fill-rule="evenodd" clip-rule="evenodd" d="M69.1404 64.024C69.1404 61.8016 67.4293 60 65.3185 60C63.2077 60 61.4966 61.8016 61.4966 64.024V79.5717L56.1354 63.683C55.4288 61.5889 53.2436 60.4943 51.2546 61.2383C49.2656 61.9823 48.226 64.2831 48.9327 66.3772L59.8129 98.6223H46.4604C43.6408 98.6223 41.5291 101.343 42.091 104.253L60.6306 200.241C61.5986 205.253 68.4014 205.253 69.3694 200.241L87.909 104.253C88.4709 101.343 86.3592 98.6223 83.5396 98.6223H70.3573L81.2376 66.3772C81.9442 64.2831 80.9046 61.9823 78.9156 61.2383C76.9267 60.4943 74.7414 61.5889 74.0348 63.683L69.1404 78.1884V64.024ZM46.846 115.557C46.846 114.816 47.4164 114.215 48.12 114.215H60.2226C60.9262 114.215 61.4966 114.816 61.4966 115.557C61.4966 116.297 60.9262 116.898 60.2226 116.898H48.12C47.4164 116.898 46.846 116.297 46.846 115.557ZM55.1268 109.521C54.4232 109.521 53.8528 110.121 53.8528 110.862C53.8528 111.603 54.4232 112.203 55.1268 112.203H67.2294C67.933 112.203 68.5034 111.603 68.5034 110.862C68.5034 110.121 67.933 109.521 67.2294 109.521H55.1268ZM65.9555 163.174C65.9555 162.433 66.5258 161.833 67.2294 161.833H73.5993C74.3028 161.833 74.8732 162.433 74.8732 163.174C74.8732 163.915 74.3029 164.515 73.5993 164.515H67.2294C66.5258 164.515 65.9555 163.915 65.9555 163.174ZM60.2226 157.809C59.519 157.809 58.9487 158.409 58.9487 159.15C58.9487 159.891 59.519 160.491 60.2226 160.491H73.5993C74.3029 160.491 74.8732 159.891 74.8732 159.15C74.8732 158.409 74.3029 157.809 73.5993 157.809H60.2226Z" fill="white"/>
<path fill-rule="evenodd" clip-rule="evenodd" d="M4.14039 130.024C4.14039 127.802 2.42926 126 0.318491 126C-1.79228 126 -3.5034 127.802 -3.5034 130.024V145.572L-8.8646 129.683C-9.57122 127.589 -11.7564 126.494 -13.7454 127.238C-15.7344 127.982 -16.774 130.283 -16.0673 132.377L-5.18713 164.622H-18.5396C-21.3592 164.622 -23.4709 167.343 -22.909 170.253L-4.36944 266.241C-3.40137 271.253 3.40137 271.253 4.36944 266.241L22.909 170.253C23.4709 167.343 21.3592 164.622 18.5396 164.622H5.35735L16.2376 132.377C16.9442 130.283 15.9046 127.982 13.9156 127.238C11.9267 126.494 9.74144 127.589 9.03482 129.683L4.14039 144.188V130.024ZM-18.154 181.557C-18.154 180.816 -17.5836 180.215 -16.88 180.215H-4.77736C-4.07377 180.215 -3.5034 180.816 -3.5034 181.557C-3.5034 182.297 -4.07377 182.898 -4.77736 182.898H-16.88C-17.5836 182.898 -18.154 182.297 -18.154 181.557ZM-9.87322 175.521C-10.5768 175.521 -11.1472 176.121 -11.1472 176.862C-11.1472 177.603 -10.5768 178.203 -9.87322 178.203H2.22944C2.93303 178.203 3.5034 177.603 3.5034 176.862C3.5034 176.121 2.93303 175.521 2.22944 175.521H-9.87322ZM0.955474 229.174C0.955474 228.433 1.52585 227.833 2.22944 227.833H8.59926C9.30285 227.833 9.87322 228.433 9.87322 229.174C9.87322 229.915 9.30285 230.515 8.59926 230.515H2.22944C1.52585 230.515 0.955474 229.915 0.955474 229.174ZM-4.77736 223.809C-5.48095 223.809 -6.05133 224.409 -6.05133 225.15C-6.05133 225.891 -5.48095 226.491 -4.77736 226.491H8.59926C9.30285 226.491 9.87322 225.891 9.87322 225.15C9.87322 224.409 9.30285 223.809 8.59926 223.809H-4.77736Z" fill="white"/>
<path fill-rule="evenodd" clip-rule="evenodd" d="M1379.96 123.8C1379.96 121.702 1378.32 120 1376.3 120C1374.29 120 1372.65 121.702 1372.65 123.8V138.484L1367.52 123.478C1366.84 121.501 1364.75 120.467 1362.85 121.17C1360.95 121.872 1359.96 124.045 1360.63 126.023L1371.04 156.477H1358.27C1355.57 156.477 1353.55 159.046 1354.09 161.794L1371.82 252.45C1372.75 257.183 1379.25 257.183 1380.18 252.45L1397.91 161.794C1398.45 159.046 1396.43 156.477 1393.73 156.477H1381.12L1391.53 126.023C1392.21 124.045 1391.21 121.872 1389.31 121.17C1387.41 120.467 1385.32 121.501 1384.64 123.478L1379.96 137.178V123.8ZM1358.64 172.47C1358.64 171.771 1359.18 171.203 1359.85 171.203H1371.43C1372.1 171.203 1372.65 171.771 1372.65 172.47C1372.65 173.17 1372.1 173.737 1371.43 173.737H1359.85C1359.18 173.737 1358.64 173.17 1358.64 172.47ZM1366.56 166.77C1365.88 166.77 1365.34 167.337 1365.34 168.036C1365.34 168.736 1365.88 169.303 1366.56 169.303H1378.13C1378.81 169.303 1379.35 168.736 1379.35 168.036C1379.35 167.337 1378.81 166.77 1378.13 166.77H1366.56ZM1376.91 217.442C1376.91 216.743 1377.46 216.175 1378.13 216.175H1384.23C1384.9 216.175 1385.44 216.743 1385.44 217.442C1385.44 218.142 1384.9 218.709 1384.23 218.709H1378.13C1377.46 218.709 1376.91 218.142 1376.91 217.442ZM1371.43 212.375C1370.76 212.375 1370.21 212.942 1370.21 213.642C1370.21 214.341 1370.76 214.909 1371.43 214.909H1384.23C1384.9 214.909 1385.44 214.341 1385.44 213.642C1385.44 212.942 1384.9 212.375 1384.23 212.375H1371.43Z" fill="white"/>
<path fill-rule="evenodd" clip-rule="evenodd" d="M1317.78 75.6887C1317.78 73.6515 1316.22 72 1314.29 72C1312.36 72 1310.8 73.6515 1310.8 75.6887V89.9407L1305.91 75.3761C1305.26 73.4564 1303.27 72.4531 1301.45 73.1351C1299.63 73.8171 1298.68 75.9261 1299.33 77.8458L1309.26 107.404H1297.07C1294.5 107.404 1292.57 109.898 1293.08 112.565L1310.01 200.554C1310.89 205.149 1317.11 205.149 1317.99 200.554L1334.92 112.565C1335.43 109.898 1333.5 107.404 1330.93 107.404H1318.89L1328.83 77.8458C1329.47 75.9261 1328.52 73.8171 1326.71 73.1351C1324.89 72.4531 1322.89 73.4564 1322.25 75.3761L1317.78 88.6727V75.6887ZM1297.42 122.927C1297.42 122.248 1297.95 121.697 1298.59 121.697H1309.64C1310.28 121.697 1310.8 122.248 1310.8 122.927C1310.8 123.606 1310.28 124.157 1309.64 124.157H1298.59C1297.95 124.157 1297.42 123.606 1297.42 122.927ZM1304.99 117.394C1304.34 117.394 1303.82 117.944 1303.82 118.623C1303.82 119.303 1304.34 119.853 1304.99 119.853H1316.04C1316.68 119.853 1317.2 119.303 1317.2 118.623C1317.2 117.944 1316.68 117.394 1316.04 117.394H1304.99ZM1314.87 166.576C1314.87 165.897 1315.39 165.347 1316.04 165.347H1321.85C1322.49 165.347 1323.01 165.897 1323.01 166.576C1323.01 167.255 1322.49 167.806 1321.85 167.806H1316.04C1315.39 167.806 1314.87 167.255 1314.87 166.576ZM1309.64 161.658C1309 161.658 1308.47 162.209 1308.47 162.888C1308.47 163.567 1309 164.117 1309.64 164.117H1321.85C1322.49 164.117 1323.01 163.567 1323.01 162.888C1323.01 162.209 1322.49 161.658 1321.85 161.658H1309.64Z" fill="white"/>
<path fill-rule="evenodd" clip-rule="evenodd" d="M1248.78 135.689C1248.78 133.651 1247.22 132 1245.29 132C1243.36 132 1241.8 133.651 1241.8 135.689V149.941L1236.91 135.376C1236.26 133.456 1234.27 132.453 1232.45 133.135C1230.63 133.817 1229.68 135.926 1230.33 137.846L1240.26 167.404H1228.07C1225.5 167.404 1223.57 169.898 1224.08 172.565L1241.01 260.554C1241.89 265.149 1248.11 265.149 1248.99 260.554L1265.92 172.565C1266.43 169.898 1264.5 167.404 1261.93 167.404H1249.89L1259.83 137.846C1260.47 135.926 1259.52 133.817 1257.71 133.135C1255.89 132.453 1253.89 133.456 1253.25 135.376L1248.78 148.673V135.689ZM1228.42 182.927C1228.42 182.248 1228.95 181.697 1229.59 181.697H1240.64C1241.28 181.697 1241.8 182.248 1241.8 182.927C1241.8 183.606 1241.28 184.157 1240.64 184.157H1229.59C1228.95 184.157 1228.42 183.606 1228.42 182.927ZM1235.99 177.394C1235.34 177.394 1234.82 177.944 1234.82 178.623C1234.82 179.303 1235.34 179.853 1235.99 179.853H1247.04C1247.68 179.853 1248.2 179.303 1248.2 178.623C1248.2 177.944 1247.68 177.394 1247.04 177.394H1235.99ZM1245.87 226.576C1245.87 225.897 1246.39 225.347 1247.04 225.347H1252.85C1253.49 225.347 1254.01 225.897 1254.01 226.576C1254.01 227.255 1253.49 227.806 1252.85 227.806H1247.04C1246.39 227.806 1245.87 227.255 1245.87 226.576ZM1240.64 221.658C1240 221.658 1239.47 222.209 1239.47 222.888C1239.47 223.567 1240 224.117 1240.64 224.117H1252.85C1253.49 224.117 1254.01 223.567 1254.01 222.888C1254.01 222.209 1253.49 221.658 1252.85 221.658H1240.64Z" fill="white"/>
<path fill-rule="evenodd" clip-rule="evenodd" d="M1179.78 148.689C1179.78 146.651 1178.22 145 1176.29 145C1174.36 145 1172.8 146.651 1172.8 148.689V162.941L1167.91 148.376C1167.26 146.456 1165.27 145.453 1163.45 146.135C1161.63 146.817 1160.68 148.926 1161.33 150.846L1171.26 180.404H1159.07C1156.5 180.404 1154.57 182.898 1155.08 185.565L1172.01 273.554C1172.89 278.149 1179.11 278.149 1179.99 273.554L1196.92 185.565C1197.43 182.898 1195.5 180.404 1192.93 180.404H1180.89L1190.83 150.846C1191.47 148.926 1190.52 146.817 1188.71 146.135C1186.89 145.453 1184.89 146.456 1184.25 148.376L1179.78 161.673V148.689ZM1159.42 195.927C1159.42 195.248 1159.95 194.697 1160.59 194.697H1171.64C1172.28 194.697 1172.8 195.248 1172.8 195.927C1172.8 196.606 1172.28 197.157 1171.64 197.157H1160.59C1159.95 197.157 1159.42 196.606 1159.42 195.927ZM1166.99 190.394C1166.34 190.394 1165.82 190.944 1165.82 191.623C1165.82 192.303 1166.34 192.853 1166.99 192.853H1178.04C1178.68 192.853 1179.2 192.303 1179.2 191.623C1179.2 190.944 1178.68 190.394 1178.04 190.394H1166.99ZM1176.87 239.576C1176.87 238.897 1177.39 238.347 1178.04 238.347H1183.85C1184.49 238.347 1185.01 238.897 1185.01 239.576C1185.01 240.255 1184.49 240.806 1183.85 240.806H1178.04C1177.39 240.806 1176.87 240.255 1176.87 239.576ZM1171.64 234.658C1171 234.658 1170.47 235.209 1170.47 235.888C1170.47 236.567 1171 237.117 1171.64 237.117H1183.85C1184.49 237.117 1185.01 236.567 1185.01 235.888C1185.01 235.209 1184.49 234.658 1183.85 234.658H1171.64Z" fill="white"/>
<path fill-rule="evenodd" clip-rule="evenodd" d="M1110.78 135.689C1110.78 133.651 1109.22 132 1107.29 132C1105.36 132 1103.8 133.651 1103.8 135.689V149.941L1098.91 135.376C1098.26 133.456 1096.27 132.453 1094.45 133.135C1092.63 133.817 1091.68 135.926 1092.33 137.846L1102.26 167.404H1090.07C1087.5 167.404 1085.57 169.898 1086.08 172.565L1103.01 260.554C1103.89 265.149 1110.11 265.149 1110.99 260.554L1127.92 172.565C1128.43 169.898 1126.5 167.404 1123.93 167.404H1111.89L1121.83 137.846C1122.47 135.926 1121.52 133.817 1119.71 133.135C1117.89 132.453 1115.89 133.456 1115.25 135.376L1110.78 148.673V135.689ZM1090.42 182.927C1090.42 182.248 1090.95 181.697 1091.59 181.697H1102.64C1103.28 181.697 1103.8 182.248 1103.8 182.927C1103.8 183.606 1103.28 184.157 1102.64 184.157H1091.59C1090.95 184.157 1090.42 183.606 1090.42 182.927ZM1097.99 177.394C1097.34 177.394 1096.82 177.944 1096.82 178.623C1096.82 179.303 1097.34 179.853 1097.99 179.853H1109.04C1109.68 179.853 1110.2 179.303 1110.2 178.623C1110.2 177.944 1109.68 177.394 1109.04 177.394H1097.99ZM1107.87 226.576C1107.87 225.897 1108.39 225.347 1109.04 225.347H1114.85C1115.49 225.347 1116.01 225.897 1116.01 226.576C1116.01 227.255 1115.49 227.806 1114.85 227.806H1109.04C1108.39 227.806 1107.87 227.255 1107.87 226.576ZM1102.64 221.658C1102 221.658 1101.47 222.209 1101.47 222.888C1101.47 223.567 1102 224.117 1102.64 224.117H1114.85C1115.49 224.117 1116.01 223.567 1116.01 222.888C1116.01 222.209 1115.49 221.658 1114.85 221.658H1102.64Z" fill="white"/>
<path fill-rule="evenodd" clip-rule="evenodd" d="M1056.78 148.689C1056.78 146.651 1055.22 145 1053.29 145C1051.36 145 1049.8 146.651 1049.8 148.689V162.941L1044.91 148.376C1044.26 146.456 1042.27 145.453 1040.45 146.135C1038.63 146.817 1037.68 148.926 1038.33 150.846L1048.26 180.404H1036.07C1033.5 180.404 1031.57 182.898 1032.08 185.565L1049.01 273.554C1049.89 278.149 1056.11 278.149 1056.99 273.554L1073.92 185.565C1074.43 182.898 1072.5 180.404 1069.93 180.404H1057.89L1067.83 150.846C1068.47 148.926 1067.52 146.817 1065.71 146.135C1063.89 145.453 1061.89 146.456 1061.25 148.376L1056.78 161.673V148.689ZM1036.42 195.927C1036.42 195.248 1036.95 194.697 1037.59 194.697H1048.64C1049.28 194.697 1049.8 195.248 1049.8 195.927C1049.8 196.606 1049.28 197.157 1048.64 197.157H1037.59C1036.95 197.157 1036.42 196.606 1036.42 195.927ZM1043.99 190.394C1043.34 190.394 1042.82 190.944 1042.82 191.623C1042.82 192.303 1043.34 192.853 1043.99 192.853H1055.04C1055.68 192.853 1056.2 192.303 1056.2 191.623C1056.2 190.944 1055.68 190.394 1055.04 190.394H1043.99ZM1053.87 239.576C1053.87 238.897 1054.39 238.347 1055.04 238.347H1060.85C1061.49 238.347 1062.01 238.897 1062.01 239.576C1062.01 240.255 1061.49 240.806 1060.85 240.806H1055.04C1054.39 240.806 1053.87 240.255 1053.87 239.576ZM1048.64 234.658C1048 234.658 1047.47 235.209 1047.47 235.888C1047.47 236.567 1048 237.117 1048.64 237.117H1060.85C1061.49 237.117 1062.01 236.567 1062.01 235.888C1062.01 235.209 1061.49 234.658 1060.85 234.658H1048.64Z" fill="white"/>
<path fill-rule="evenodd" clip-rule="evenodd" d="M987.78 135.689C987.78 133.651 986.218 132 984.291 132C982.364 132 980.801 133.651 980.801 135.689V149.941L975.906 135.376C975.261 133.456 973.266 132.453 971.45 133.135C969.634 133.817 968.685 135.926 969.33 137.846L979.264 167.404H967.073C964.498 167.404 962.57 169.898 963.083 172.565L980.011 260.554C980.894 265.149 987.106 265.149 987.989 260.554L1004.92 172.565C1005.43 169.898 1003.5 167.404 1000.93 167.404H988.891L998.826 137.846C999.471 135.926 998.522 133.817 996.706 133.135C994.89 132.453 992.894 133.456 992.249 135.376L987.78 148.673V135.689ZM967.425 182.927C967.425 182.248 967.945 181.697 968.588 181.697H979.638C980.28 181.697 980.801 182.248 980.801 182.927C980.801 183.606 980.28 184.157 979.638 184.157H968.588C967.945 184.157 967.425 183.606 967.425 182.927ZM974.985 177.394C974.343 177.394 973.822 177.944 973.822 178.623C973.822 179.303 974.343 179.853 974.985 179.853H986.036C986.678 179.853 987.199 179.303 987.199 178.623C987.199 177.944 986.678 177.394 986.036 177.394H974.985ZM984.872 226.576C984.872 225.897 985.393 225.347 986.036 225.347H991.851C992.494 225.347 993.015 225.897 993.015 226.576C993.015 227.255 992.494 227.806 991.851 227.806H986.036C985.393 227.806 984.872 227.255 984.872 226.576ZM979.638 221.658C978.996 221.658 978.475 222.209 978.475 222.888C978.475 223.567 978.996 224.117 979.638 224.117H991.851C992.494 224.117 993.015 223.567 993.015 222.888C993.015 222.209 992.494 221.658 991.851 221.658H979.638Z" fill="white"/>
<path fill-rule="evenodd" clip-rule="evenodd" d="M926.78 148.689C926.78 146.651 925.218 145 923.291 145C921.364 145 919.801 146.651 919.801 148.689V162.941L914.906 148.376C914.261 146.456 912.266 145.453 910.45 146.135C908.634 146.817 907.685 148.926 908.33 150.846L918.264 180.404H906.073C903.498 180.404 901.57 182.898 902.083 185.565L919.011 273.554C919.894 278.149 926.106 278.149 926.989 273.554L943.917 185.565C944.43 182.898 942.502 180.404 939.927 180.404H927.891L937.826 150.846C938.471 148.926 937.522 146.817 935.706 146.135C933.89 145.453 931.894 146.456 931.249 148.376L926.78 161.673V148.689ZM906.425 195.927C906.425 195.248 906.945 194.697 907.588 194.697H918.638C919.28 194.697 919.801 195.248 919.801 195.927C919.801 196.606 919.28 197.157 918.638 197.157H907.588C906.945 197.157 906.425 196.606 906.425 195.927ZM913.985 190.394C913.343 190.394 912.822 190.944 912.822 191.623C912.822 192.303 913.343 192.853 913.985 192.853H925.036C925.678 192.853 926.199 192.303 926.199 191.623C926.199 190.944 925.678 190.394 925.036 190.394H913.985ZM923.872 239.576C923.872 238.897 924.393 238.347 925.036 238.347H930.851C931.494 238.347 932.015 238.897 932.015 239.576C932.015 240.255 931.494 240.806 930.851 240.806H925.036C924.393 240.806 923.872 240.255 923.872 239.576ZM918.638 234.658C917.996 234.658 917.475 235.209 917.475 235.888C917.475 236.567 917.996 237.117 918.638 237.117H930.851C931.494 237.117 932.015 236.567 932.015 235.888C932.015 235.209 931.494 234.658 930.851 234.658H918.638Z" fill="white"/>
<path fill-rule="evenodd" clip-rule="evenodd" d="M857.78 135.689C857.78 133.651 856.218 132 854.291 132C852.364 132 850.801 133.651 850.801 135.689V149.941L845.906 135.376C845.261 133.456 843.266 132.453 841.45 133.135C839.634 133.817 838.685 135.926 839.33 137.846L849.264 167.404H837.073C834.498 167.404 832.57 169.898 833.083 172.565L850.011 260.554C850.894 265.149 857.106 265.149 857.989 260.554L874.917 172.565C875.43 169.898 873.502 167.404 870.927 167.404H858.891L868.826 137.846C869.471 135.926 868.522 133.817 866.706 133.135C864.89 132.453 862.894 133.456 862.249 135.376L857.78 148.673V135.689ZM837.425 182.927C837.425 182.248 837.945 181.697 838.588 181.697H849.638C850.28 181.697 850.801 182.248 850.801 182.927C850.801 183.606 850.28 184.157 849.638 184.157H838.588C837.945 184.157 837.425 183.606 837.425 182.927ZM844.985 177.394C844.343 177.394 843.822 177.944 843.822 178.623C843.822 179.303 844.343 179.853 844.985 179.853H856.036C856.678 179.853 857.199 179.303 857.199 178.623C857.199 177.944 856.678 177.394 856.036 177.394H844.985ZM854.872 226.576C854.872 225.897 855.393 225.347 856.036 225.347H861.851C862.494 225.347 863.015 225.897 863.015 226.576C863.015 227.255 862.494 227.806 861.851 227.806H856.036C855.393 227.806 854.872 227.255 854.872 226.576ZM849.638 221.658C848.996 221.658 848.475 222.209 848.475 222.888C848.475 223.567 848.996 224.117 849.638 224.117H861.851C862.494 224.117 863.015 223.567 863.015 222.888C863.015 222.209 862.494 221.658 861.851 221.658H849.638Z" fill="white"/>
<path fill-rule="evenodd" clip-rule="evenodd" d="M803.78 148.689C803.78 146.651 802.218 145 800.291 145C798.364 145 796.801 146.651 796.801 148.689V162.941L791.906 148.376C791.261 146.456 789.266 145.453 787.45 146.135C785.634 146.817 784.685 148.926 785.33 150.846L795.264 180.404H783.073C780.498 180.404 778.57 182.898 779.083 185.565L796.011 273.554C796.894 278.149 803.106 278.149 803.989 273.554L820.917 185.565C821.43 182.898 819.502 180.404 816.927 180.404H804.891L814.826 150.846C815.471 148.926 814.522 146.817 812.706 146.135C810.89 145.453 808.894 146.456 808.249 148.376L803.78 161.673V148.689ZM783.425 195.927C783.425 195.248 783.945 194.697 784.588 194.697H795.638C796.28 194.697 796.801 195.248 796.801 195.927C796.801 196.606 796.28 197.157 795.638 197.157H784.588C783.945 197.157 783.425 196.606 783.425 195.927ZM790.985 190.394C790.343 190.394 789.822 190.944 789.822 191.623C789.822 192.303 790.343 192.853 790.985 192.853H802.036C802.678 192.853 803.199 192.303 803.199 191.623C803.199 190.944 802.678 190.394 802.036 190.394H790.985ZM800.872 239.576C800.872 238.897 801.393 238.347 802.036 238.347H807.851C808.494 238.347 809.015 238.897 809.015 239.576C809.015 240.255 808.494 240.806 807.851 240.806H802.036C801.393 240.806 800.872 240.255 800.872 239.576ZM795.638 234.658C794.996 234.658 794.475 235.209 794.475 235.888C794.475 236.567 794.996 237.117 795.638 237.117H807.851C808.494 237.117 809.015 236.567 809.015 235.888C809.015 235.209 808.494 234.658 807.851 234.658H795.638Z" fill="white"/>
<path fill-rule="evenodd" clip-rule="evenodd" d="M734.78 135.689C734.78 133.651 733.218 132 731.291 132C729.364 132 727.801 133.651 727.801 135.689V149.941L722.906 135.376C722.261 133.456 720.266 132.453 718.45 133.135C716.634 133.817 715.685 135.926 716.33 137.846L726.264 167.404H714.073C711.498 167.404 709.57 169.898 710.083 172.565L727.011 260.554C727.894 265.149 734.106 265.149 734.989 260.554L751.917 172.565C752.43 169.898 750.502 167.404 747.927 167.404H735.891L745.826 137.846C746.471 135.926 745.522 133.817 743.706 133.135C741.89 132.453 739.894 133.456 739.249 135.376L734.78 148.673V135.689ZM714.425 182.927C714.425 182.248 714.945 181.697 715.588 181.697H726.638C727.28 181.697 727.801 182.248 727.801 182.927C727.801 183.606 727.28 184.157 726.638 184.157H715.588C714.945 184.157 714.425 183.606 714.425 182.927ZM721.985 177.394C721.343 177.394 720.822 177.944 720.822 178.623C720.822 179.303 721.343 179.853 721.985 179.853H733.036C733.678 179.853 734.199 179.303 734.199 178.623C734.199 177.944 733.678 177.394 733.036 177.394H721.985ZM731.872 226.576C731.872 225.897 732.393 225.347 733.036 225.347H738.851C739.494 225.347 740.015 225.897 740.015 226.576C740.015 227.255 739.494 227.806 738.851 227.806H733.036C732.393 227.806 731.872 227.255 731.872 226.576ZM726.638 221.658C725.996 221.658 725.475 222.209 725.475 222.888C725.475 223.567 725.996 224.117 726.638 224.117H738.851C739.494 224.117 740.015 223.567 740.015 222.888C740.015 222.209 739.494 221.658 738.851 221.658H726.638Z" fill="white"/>
<path fill-rule="evenodd" clip-rule="evenodd" d="M673.78 148.689C673.78 146.651 672.218 145 670.291 145C668.364 145 666.801 146.651 666.801 148.689V162.941L661.906 148.376C661.261 146.456 659.266 145.453 657.45 146.135C655.634 146.817 654.685 148.926 655.33 150.846L665.264 180.404H653.073C650.498 180.404 648.57 182.898 649.083 185.565L666.011 273.554C666.894 278.149 673.106 278.149 673.989 273.554L690.917 185.565C691.43 182.898 689.502 180.404 686.927 180.404H674.891L684.826 150.846C685.471 148.926 684.522 146.817 682.706 146.135C680.89 145.453 678.894 146.456 678.249 148.376L673.78 161.673V148.689ZM653.425 195.927C653.425 195.248 653.945 194.697 654.588 194.697H665.638C666.28 194.697 666.801 195.248 666.801 195.927C666.801 196.606 666.28 197.157 665.638 197.157H654.588C653.945 197.157 653.425 196.606 653.425 195.927ZM660.985 190.394C660.343 190.394 659.822 190.944 659.822 191.623C659.822 192.303 660.343 192.853 660.985 192.853H672.036C672.678 192.853 673.199 192.303 673.199 191.623C673.199 190.944 672.678 190.394 672.036 190.394H660.985ZM670.872 239.576C670.872 238.897 671.393 238.347 672.036 238.347H677.851C678.494 238.347 679.015 238.897 679.015 239.576C679.015 240.255 678.494 240.806 677.851 240.806H672.036C671.393 240.806 670.872 240.255 670.872 239.576ZM665.638 234.658C664.996 234.658 664.475 235.209 664.475 235.888C664.475 236.567 664.996 237.117 665.638 237.117H677.851C678.494 237.117 679.015 236.567 679.015 235.888C679.015 235.209 678.494 234.658 677.851 234.658H665.638Z" fill="white"/>
<path fill-rule="evenodd" clip-rule="evenodd" d="M604.78 135.689C604.78 133.651 603.218 132 601.291 132C599.364 132 597.801 133.651 597.801 135.689V149.941L592.906 135.376C592.261 133.456 590.266 132.453 588.45 133.135C586.634 133.817 585.685 135.926 586.33 137.846L596.264 167.404H584.073C581.498 167.404 579.57 169.898 580.083 172.565L597.011 260.554C597.894 265.149 604.106 265.149 604.989 260.554L621.917 172.565C622.43 169.898 620.502 167.404 617.927 167.404H605.891L615.826 137.846C616.471 135.926 615.522 133.817 613.706 133.135C611.89 132.453 609.894 133.456 609.249 135.376L604.78 148.673V135.689ZM584.425 182.927C584.425 182.248 584.945 181.697 585.588 181.697H596.638C597.28 181.697 597.801 182.248 597.801 182.927C597.801 183.606 597.28 184.157 596.638 184.157H585.588C584.945 184.157 584.425 183.606 584.425 182.927ZM591.985 177.394C591.343 177.394 590.822 177.944 590.822 178.623C590.822 179.303 591.343 179.853 591.985 179.853H603.036C603.678 179.853 604.199 179.303 604.199 178.623C604.199 177.944 603.678 177.394 603.036 177.394H591.985ZM601.872 226.576C601.872 225.897 602.393 225.347 603.036 225.347H608.851C609.494 225.347 610.015 225.897 610.015 226.576C610.015 227.255 609.494 227.806 608.851 227.806H603.036C602.393 227.806 601.872 227.255 601.872 226.576ZM596.638 221.658C595.996 221.658 595.475 222.209 595.475 222.888C595.475 223.567 595.996 224.117 596.638 224.117H608.851C609.494 224.117 610.015 223.567 610.015 222.888C610.015 222.209 609.494 221.658 608.851 221.658H596.638Z" fill="white"/>
<path fill-rule="evenodd" clip-rule="evenodd" d="M550.78 148.689C550.78 146.651 549.218 145 547.291 145C545.364 145 543.801 146.651 543.801 148.689V162.941L538.906 148.376C538.261 146.456 536.266 145.453 534.45 146.135C532.634 146.817 531.685 148.926 532.33 150.846L542.264 180.404H530.073C527.498 180.404 525.57 182.898 526.083 185.565L543.011 273.554C543.894 278.149 550.106 278.149 550.989 273.554L567.917 185.565C568.43 182.898 566.502 180.404 563.927 180.404H551.891L561.826 150.846C562.471 148.926 561.522 146.817 559.706 146.135C557.89 145.453 555.894 146.456 555.249 148.376L550.78 161.673V148.689ZM530.425 195.927C530.425 195.248 530.945 194.697 531.588 194.697H542.638C543.28 194.697 543.801 195.248 543.801 195.927C543.801 196.606 543.28 197.157 542.638 197.157H531.588C530.945 197.157 530.425 196.606 530.425 195.927ZM537.985 190.394C537.343 190.394 536.822 190.944 536.822 191.623C536.822 192.303 537.343 192.853 537.985 192.853H549.036C549.678 192.853 550.199 192.303 550.199 191.623C550.199 190.944 549.678 190.394 549.036 190.394H537.985ZM547.872 239.576C547.872 238.897 548.393 238.347 549.036 238.347H554.851C555.494 238.347 556.015 238.897 556.015 239.576C556.015 240.255 555.494 240.806 554.851 240.806H549.036C548.393 240.806 547.872 240.255 547.872 239.576ZM542.638 234.658C541.996 234.658 541.475 235.209 541.475 235.888C541.475 236.567 541.996 237.117 542.638 237.117H554.851C555.494 237.117 556.015 236.567 556.015 235.888C556.015 235.209 555.494 234.658 554.851 234.658H542.638Z" fill="white"/>
<path fill-rule="evenodd" clip-rule="evenodd" d="M481.78 135.689C481.78 133.651 480.218 132 478.291 132C476.364 132 474.801 133.651 474.801 135.689V149.941L469.906 135.376C469.261 133.456 467.266 132.453 465.45 133.135C463.634 133.817 462.685 135.926 463.33 137.846L473.264 167.404H461.073C458.498 167.404 456.57 169.898 457.083 172.565L474.011 260.554C474.894 265.149 481.106 265.149 481.989 260.554L498.917 172.565C499.43 169.898 497.502 167.404 494.927 167.404H482.891L492.826 137.846C493.471 135.926 492.522 133.817 490.706 133.135C488.89 132.453 486.894 133.456 486.249 135.376L481.78 148.673V135.689ZM461.425 182.927C461.425 182.248 461.945 181.697 462.588 181.697H473.638C474.28 181.697 474.801 182.248 474.801 182.927C474.801 183.606 474.28 184.157 473.638 184.157H462.588C461.945 184.157 461.425 183.606 461.425 182.927ZM468.985 177.394C468.343 177.394 467.822 177.944 467.822 178.623C467.822 179.303 468.343 179.853 468.985 179.853H480.036C480.678 179.853 481.199 179.303 481.199 178.623C481.199 177.944 480.678 177.394 480.036 177.394H468.985ZM478.872 226.576C478.872 225.897 479.393 225.347 480.036 225.347H485.851C486.494 225.347 487.015 225.897 487.015 226.576C487.015 227.255 486.494 227.806 485.851 227.806H480.036C479.393 227.806 478.872 227.255 478.872 226.576ZM473.638 221.658C472.996 221.658 472.475 222.209 472.475 222.888C472.475 223.567 472.996 224.117 473.638 224.117H485.851C486.494 224.117 487.015 223.567 487.015 222.888C487.015 222.209 486.494 221.658 485.851 221.658H473.638Z" fill="white"/>
<path fill-rule="evenodd" clip-rule="evenodd" d="M420.78 148.689C420.78 146.651 419.218 145 417.291 145C415.364 145 413.801 146.651 413.801 148.689V162.941L408.906 148.376C408.261 146.456 406.266 145.453 404.45 146.135C402.634 146.817 401.685 148.926 402.33 150.846L412.264 180.404H400.073C397.498 180.404 395.57 182.898 396.083 185.565L413.011 273.554C413.894 278.149 420.106 278.149 420.989 273.554L437.917 185.565C438.43 182.898 436.502 180.404 433.927 180.404H421.891L431.826 150.846C432.471 148.926 431.522 146.817 429.706 146.135C427.89 145.453 425.894 146.456 425.249 148.376L420.78 161.673V148.689ZM400.425 195.927C400.425 195.248 400.945 194.697 401.588 194.697H412.638C413.28 194.697 413.801 195.248 413.801 195.927C413.801 196.606 413.28 197.157 412.638 197.157H401.588C400.945 197.157 400.425 196.606 400.425 195.927ZM407.985 190.394C407.343 190.394 406.822 190.944 406.822 191.623C406.822 192.303 407.343 192.853 407.985 192.853H419.036C419.678 192.853 420.199 192.303 420.199 191.623C420.199 190.944 419.678 190.394 419.036 190.394H407.985ZM417.872 239.576C417.872 238.897 418.393 238.347 419.036 238.347H424.851C425.494 238.347 426.015 238.897 426.015 239.576C426.015 240.255 425.494 240.806 424.851 240.806H419.036C418.393 240.806 417.872 240.255 417.872 239.576ZM412.638 234.658C411.996 234.658 411.475 235.209 411.475 235.888C411.475 236.567 411.996 237.117 412.638 237.117H424.851C425.494 237.117 426.015 236.567 426.015 235.888C426.015 235.209 425.494 234.658 424.851 234.658H412.638Z" fill="white"/>
<path fill-rule="evenodd" clip-rule="evenodd" d="M351.78 135.689C351.78 133.651 350.218 132 348.291 132C346.364 132 344.801 133.651 344.801 135.689V149.941L339.906 135.376C339.261 133.456 337.266 132.453 335.45 133.135C333.634 133.817 332.685 135.926 333.33 137.846L343.264 167.404H331.073C328.498 167.404 326.57 169.898 327.083 172.565L344.011 260.554C344.894 265.149 351.106 265.149 351.989 260.554L368.917 172.565C369.43 169.898 367.502 167.404 364.927 167.404H352.891L362.826 137.846C363.471 135.926 362.522 133.817 360.706 133.135C358.89 132.453 356.894 133.456 356.249 135.376L351.78 148.673V135.689ZM331.425 182.927C331.425 182.248 331.945 181.697 332.588 181.697H343.638C344.28 181.697 344.801 182.248 344.801 182.927C344.801 183.606 344.28 184.157 343.638 184.157H332.588C331.945 184.157 331.425 183.606 331.425 182.927ZM338.985 177.394C338.343 177.394 337.822 177.944 337.822 178.623C337.822 179.303 338.343 179.853 338.985 179.853H350.036C350.678 179.853 351.199 179.303 351.199 178.623C351.199 177.944 350.678 177.394 350.036 177.394H338.985ZM348.872 226.576C348.872 225.897 349.393 225.347 350.036 225.347H355.851C356.494 225.347 357.015 225.897 357.015 226.576C357.015 227.255 356.494 227.806 355.851 227.806H350.036C349.393 227.806 348.872 227.255 348.872 226.576ZM343.638 221.658C342.996 221.658 342.475 222.209 342.475 222.888C342.475 223.567 342.996 224.117 343.638 224.117H355.851C356.494 224.117 357.015 223.567 357.015 222.888C357.015 222.209 356.494 221.658 355.851 221.658H343.638Z" fill="white"/>
<path fill-rule="evenodd" clip-rule="evenodd" d="M282.78 148.689C282.78 146.651 281.218 145 279.291 145C277.364 145 275.801 146.651 275.801 148.689V162.941L270.906 148.376C270.261 146.456 268.266 145.453 266.45 146.135C264.634 146.817 263.685 148.926 264.33 150.846L274.264 180.404H262.073C259.498 180.404 257.57 182.898 258.083 185.565L275.011 273.554C275.894 278.149 282.106 278.149 282.989 273.554L299.917 185.565C300.43 182.898 298.502 180.404 295.927 180.404H283.891L293.826 150.846C294.471 148.926 293.522 146.817 291.706 146.135C289.89 145.453 287.894 146.456 287.249 148.376L282.78 161.673V148.689ZM262.425 195.927C262.425 195.248 262.945 194.697 263.588 194.697H274.638C275.28 194.697 275.801 195.248 275.801 195.927C275.801 196.606 275.28 197.157 274.638 197.157H263.588C262.945 197.157 262.425 196.606 262.425 195.927ZM269.985 190.394C269.343 190.394 268.822 190.944 268.822 191.623C268.822 192.303 269.343 192.853 269.985 192.853H281.036C281.678 192.853 282.199 192.303 282.199 191.623C282.199 190.944 281.678 190.394 281.036 190.394H269.985ZM279.872 239.576C279.872 238.897 280.393 238.347 281.036 238.347H286.851C287.494 238.347 288.015 238.897 288.015 239.576C288.015 240.255 287.494 240.806 286.851 240.806H281.036C280.393 240.806 279.872 240.255 279.872 239.576ZM274.638 234.658C273.996 234.658 273.475 235.209 273.475 235.888C273.475 236.567 273.996 237.117 274.638 237.117H286.851C287.494 237.117 288.015 236.567 288.015 235.888C288.015 235.209 287.494 234.658 286.851 234.658H274.638Z" fill="white"/>
<path fill-rule="evenodd" clip-rule="evenodd" d="M213.78 135.689C213.78 133.651 212.218 132 210.291 132C208.364 132 206.801 133.651 206.801 135.689V149.941L201.906 135.376C201.261 133.456 199.266 132.453 197.45 133.135C195.634 133.817 194.685 135.926 195.33 137.846L205.264 167.404H193.073C190.498 167.404 188.57 169.898 189.083 172.565L206.011 260.554C206.894 265.149 213.106 265.149 213.989 260.554L230.917 172.565C231.43 169.898 229.502 167.404 226.927 167.404H214.891L224.826 137.846C225.471 135.926 224.522 133.817 222.706 133.135C220.89 132.453 218.894 133.456 218.249 135.376L213.78 148.673V135.689ZM193.425 182.927C193.425 182.248 193.945 181.697 194.588 181.697H205.638C206.28 181.697 206.801 182.248 206.801 182.927C206.801 183.606 206.28 184.157 205.638 184.157H194.588C193.945 184.157 193.425 183.606 193.425 182.927ZM200.985 177.394C200.343 177.394 199.822 177.944 199.822 178.623C199.822 179.303 200.343 179.853 200.985 179.853H212.036C212.678 179.853 213.199 179.303 213.199 178.623C213.199 177.944 212.678 177.394 212.036 177.394H200.985ZM210.872 226.576C210.872 225.897 211.393 225.347 212.036 225.347H217.851C218.494 225.347 219.015 225.897 219.015 226.576C219.015 227.255 218.494 227.806 217.851 227.806H212.036C211.393 227.806 210.872 227.255 210.872 226.576ZM205.638 221.658C204.996 221.658 204.475 222.209 204.475 222.888C204.475 223.567 204.996 224.117 205.638 224.117H217.851C218.494 224.117 219.015 223.567 219.015 222.888C219.015 222.209 218.494 221.658 217.851 221.658H205.638Z" fill="white"/>
<path fill-rule="evenodd" clip-rule="evenodd" d="M1433.6 47.4651C1433.6 45.5514 1432.11 44 1430.28 44C1428.44 44 1426.95 45.5514 1426.95 47.4651V60.8534L1422.29 47.1715C1421.68 45.3682 1419.78 44.4257 1418.05 45.0663C1416.32 45.707 1415.41 47.6882 1416.03 49.4915L1425.49 77.2581H1413.88C1411.43 77.2581 1409.59 79.6012 1410.08 82.1063L1426.2 164.763C1427.04 169.079 1432.96 169.079 1433.8 164.763L1449.92 82.1064C1450.41 79.6012 1448.57 77.2581 1446.12 77.2581H1434.66L1444.12 49.4915C1444.73 47.6882 1443.83 45.707 1442.1 45.0663C1440.37 44.4257 1438.47 45.3682 1437.86 47.1715L1433.6 59.6622V47.4651ZM1414.21 91.8405C1414.21 91.2026 1414.71 90.6854 1415.32 90.6854H1425.85C1426.46 90.6854 1426.95 91.2026 1426.95 91.8405C1426.95 92.4784 1426.46 92.9955 1425.85 92.9955H1415.32C1414.71 92.9955 1414.21 92.4784 1414.21 91.8405ZM1421.41 86.6428C1420.8 86.6428 1420.31 87.1599 1420.31 87.7978C1420.31 88.4357 1420.8 88.9529 1421.41 88.9529H1431.94C1432.55 88.9529 1433.05 88.4357 1433.05 87.7978C1433.05 87.1599 1432.55 86.6428 1431.94 86.6428H1421.41ZM1430.83 132.844C1430.83 132.206 1431.33 131.689 1431.94 131.689H1437.48C1438.09 131.689 1438.59 132.206 1438.59 132.844C1438.59 133.482 1438.09 133.999 1437.48 133.999H1431.94C1431.33 133.999 1430.83 133.482 1430.83 132.844ZM1425.85 128.224C1425.23 128.224 1424.74 128.741 1424.74 129.379C1424.74 130.017 1425.23 130.534 1425.85 130.534H1437.48C1438.09 130.534 1438.59 130.017 1438.59 129.379C1438.59 128.741 1438.09 128.224 1437.48 128.224H1425.85Z" fill="white"/>
</g>
<defs>
<clipPath id="clip0_301_2506">
<rect width="1440" height="200" fill="white"/>
</clipPath>
</defs>
</svg>
