<svg width="15" height="45" viewBox="0 0 15 45" fill="none" xmlns="http://www.w3.org/2000/svg">
<path fill-rule="evenodd" clip-rule="evenodd" d="M8.56511 1.2575C8.56511 0.563003 8.02514 0 7.35904 0C6.69295 0 6.15298 0.563003 6.15298 1.2575V6.11615L4.46115 1.15094C4.23817 0.496516 3.54858 0.154473 2.92092 0.38697C2.29326 0.619466 1.96521 1.33846 2.1882 1.99289L5.62164 12.0695H1.40804C0.518256 12.0695 -0.148129 12.9198 0.0291862 13.8289L5.87968 43.8253C6.18517 45.3916 8.3319 45.3916 8.63739 43.8253L14.4879 13.8289C14.6652 12.9198 13.9988 12.0695 13.109 12.0695H8.94915L12.3826 1.99289C12.6056 1.33846 12.2775 0.619466 11.6499 0.38697C11.0222 0.154473 10.3326 0.496516 10.1096 1.15094L8.56511 5.68387V1.2575ZM1.52972 17.3615C1.52972 17.13 1.70971 16.9423 1.93174 16.9423H5.75095C5.97298 16.9423 6.15298 17.13 6.15298 17.3615C6.15298 17.593 5.97298 17.7806 5.75095 17.7806H1.93174C1.70971 17.7806 1.52972 17.593 1.52972 17.3615ZM4.14286 15.4752C3.92083 15.4752 3.74084 15.6629 3.74084 15.8944C3.74084 16.1259 3.92083 16.3135 4.14286 16.3135H7.96208C8.18411 16.3135 8.3641 16.1259 8.3641 15.8944C8.3641 15.6629 8.18411 15.4752 7.96208 15.4752H4.14286ZM7.56005 32.2419C7.56005 32.0104 7.74005 31.8227 7.96208 31.8227H9.97219C10.1942 31.8227 10.3742 32.0104 10.3742 32.2419C10.3742 32.4734 10.1942 32.6611 9.97219 32.6611H7.96208C7.74005 32.6611 7.56005 32.4734 7.56005 32.2419ZM5.75095 30.5652C5.52892 30.5652 5.34893 30.7529 5.34893 30.9844C5.34893 31.2159 5.52892 31.4036 5.75095 31.4036H9.97219C10.1942 31.4036 10.3742 31.2159 10.3742 30.9844C10.3742 30.7529 10.1942 30.5652 9.97219 30.5652H5.75095Z" fill="white"/>
</svg>
