<svg width="1487" height="230" viewBox="0 0 1487 230" fill="none" xmlns="http://www.w3.org/2000/svg">
<path fill-rule="evenodd" clip-rule="evenodd" d="M743.975 221.24C746.379 218.837 746.484 215.046 744.21 212.772C741.937 210.499 738.146 210.604 735.742 213.007L718.93 229.82L730.337 206.864C731.84 203.838 730.67 200.301 727.723 198.963C724.776 197.625 721.169 198.994 719.665 202.019L696.515 248.607L682.133 234.225C679.096 231.188 673.879 231.856 671.339 235.608L587.508 359.376C583.131 365.838 590.458 373.166 596.921 368.788L720.689 284.958C724.44 282.417 725.108 277.2 722.071 274.163L707.873 259.965L754.461 236.815C757.486 235.311 758.855 231.704 757.517 228.757C756.179 225.81 752.642 224.64 749.616 226.143L728.659 236.557L743.975 221.24ZM664.236 252.953C665.037 252.152 666.301 252.117 667.059 252.875L680.095 265.911C680.852 266.668 680.817 267.932 680.016 268.733C679.215 269.534 677.952 269.569 677.194 268.812L664.158 255.776C663.4 255.018 663.435 253.754 664.236 252.953ZM679.683 255.345C678.925 254.587 677.661 254.622 676.86 255.423C676.059 256.225 676.024 257.488 676.782 258.246L689.817 271.282C690.575 272.04 691.839 272.005 692.64 271.204C693.441 270.403 693.476 269.139 692.718 268.381L679.683 255.345ZM633.327 325.028C634.128 324.227 635.392 324.192 636.149 324.95L643.01 331.811C643.768 332.569 643.733 333.832 642.932 334.633C642.131 335.435 640.867 335.47 640.109 334.712L633.248 327.851C632.491 327.093 632.526 325.829 633.327 325.028ZM632.954 313.051C632.196 312.294 630.932 312.329 630.131 313.13C629.33 313.931 629.295 315.195 630.053 315.952L644.461 330.36C645.219 331.118 646.482 331.083 647.284 330.282C648.085 329.481 648.12 328.217 647.362 327.459L632.954 313.051Z" fill="white" fill-opacity="0.5"/>
<path fill-rule="evenodd" clip-rule="evenodd" d="M668.475 145.741C670.879 143.338 670.984 139.546 668.71 137.273C666.437 134.999 662.646 135.105 660.242 137.508L643.43 154.321L654.837 131.364C656.34 128.339 655.17 124.802 652.223 123.464C649.276 122.126 645.669 123.494 644.165 126.52L621.015 173.108L606.633 158.726C603.596 155.689 598.379 156.357 595.839 160.108L512.008 283.876C507.631 290.339 514.958 297.666 521.421 293.289L645.189 209.459C648.94 206.918 649.608 201.701 646.571 198.664L632.373 184.465L678.961 161.315C681.986 159.812 683.355 156.204 682.017 153.257C680.679 150.311 677.142 149.14 674.116 150.644L653.159 161.058L668.475 145.741ZM588.736 177.454C589.537 176.653 590.801 176.618 591.559 177.375L604.595 190.411C605.352 191.169 605.317 192.433 604.516 193.234C603.715 194.035 602.452 194.07 601.694 193.312L588.658 180.276C587.9 179.518 587.935 178.255 588.736 177.454ZM604.183 179.846C603.425 179.088 602.161 179.123 601.36 179.924C600.559 180.725 600.524 181.989 601.282 182.747L614.317 195.782C615.075 196.54 616.339 196.505 617.14 195.704C617.941 194.903 617.976 193.639 617.218 192.881L604.183 179.846ZM557.827 249.529C558.628 248.728 559.892 248.693 560.649 249.45L567.51 256.311C568.268 257.069 568.233 258.333 567.432 259.134C566.631 259.935 565.367 259.97 564.609 259.212L557.748 252.351C556.991 251.594 557.026 250.33 557.827 249.529ZM557.454 237.552C556.696 236.794 555.432 236.829 554.631 237.63C553.83 238.431 553.795 239.695 554.553 240.453L568.961 254.861C569.719 255.619 570.982 255.584 571.784 254.783C572.585 253.981 572.62 252.718 571.862 251.96L557.454 237.552Z" fill="white" fill-opacity="0.5"/>
<path fill-rule="evenodd" clip-rule="evenodd" d="M592.975 70.2414C595.379 67.8381 595.484 64.0469 593.21 61.7734C590.937 59.4998 587.146 59.605 584.742 62.0083L567.93 78.8211L579.337 55.865C580.84 52.8393 579.67 49.302 576.723 47.9642C573.776 46.6264 570.169 47.9947 568.665 51.0204L545.515 97.6084L531.133 83.2265C528.096 80.1895 522.879 80.8574 520.339 84.6085L436.508 208.377C432.131 214.839 439.458 222.167 445.921 217.789L569.689 133.959C573.44 131.418 574.108 126.201 571.071 123.164L556.873 108.966L603.461 85.816C606.486 84.3125 607.855 80.7048 606.517 77.7579C605.179 74.811 601.642 73.641 598.616 75.1444L577.659 85.5583L592.975 70.2414ZM513.236 101.954C514.037 101.153 515.301 101.118 516.059 101.876L529.095 114.912C529.852 115.669 529.817 116.933 529.016 117.734C528.215 118.535 526.952 118.57 526.194 117.813L513.158 104.777C512.4 104.019 512.435 102.755 513.236 101.954ZM528.683 104.346C527.925 103.588 526.661 103.623 525.86 104.424C525.059 105.226 525.024 106.489 525.782 107.247L538.817 120.283C539.575 121.041 540.839 121.006 541.64 120.205C542.441 119.404 542.476 118.14 541.718 117.382L528.683 104.346ZM482.327 174.029C483.128 173.228 484.392 173.193 485.149 173.951L492.01 180.812C492.768 181.57 492.733 182.833 491.932 183.634C491.131 184.436 489.867 184.471 489.109 183.713L482.248 176.852C481.491 176.094 481.526 174.83 482.327 174.029ZM481.954 162.052C481.196 161.295 479.932 161.33 479.131 162.131C478.33 162.932 478.295 164.196 479.053 164.953L493.461 179.361C494.219 180.119 495.482 180.084 496.284 179.283C497.085 178.482 497.12 177.218 496.362 176.46L481.954 162.052Z" fill="white" fill-opacity="0.5"/>
<path fill-rule="evenodd" clip-rule="evenodd" d="M517.477 -5.25815C519.881 -7.66139 519.986 -11.4527 517.712 -13.7262C515.439 -15.9997 511.648 -15.8945 509.244 -13.4913L492.431 3.32158L503.839 -19.6345C505.342 -22.6602 504.172 -26.1975 501.225 -27.5353C498.278 -28.8731 494.67 -27.5048 493.167 -24.4792L470.017 22.1089L455.635 7.72695C452.598 4.68993 447.381 5.35787 444.841 9.10901L361.01 132.877C356.633 139.34 363.96 146.667 370.423 142.29L494.191 58.4596C497.942 55.9189 498.61 50.7019 495.573 47.6649L481.375 33.4663L527.963 10.3164C530.988 8.81295 532.357 5.20524 531.019 2.25838C529.681 -0.688482 526.144 -1.85857 523.118 -0.355098L502.16 10.0588L517.477 -5.25815ZM437.738 26.4546C438.539 25.6536 439.803 25.6185 440.561 26.3763L453.597 39.4121C454.354 40.1699 454.319 41.4337 453.518 42.2348C452.717 43.0359 451.453 43.0709 450.696 42.3131L437.66 29.2773C436.902 28.5195 436.937 27.2557 437.738 26.4546ZM453.185 28.8467C452.427 28.0888 451.163 28.1239 450.362 28.925C449.561 29.726 449.526 30.9898 450.284 31.7476L463.319 44.7834C464.077 45.5412 465.341 45.5062 466.142 44.7051C466.943 43.904 466.978 42.6403 466.22 41.8824L453.185 28.8467ZM406.829 98.5297C407.63 97.7286 408.894 97.6935 409.651 98.4514L416.512 105.312C417.27 106.07 417.235 107.334 416.434 108.135C415.633 108.936 414.369 108.971 413.611 108.213L406.75 101.352C405.993 100.594 406.028 99.3308 406.829 98.5297ZM406.456 86.5529C405.698 85.795 404.434 85.8301 403.633 86.6312C402.832 87.4323 402.797 88.696 403.555 89.4539L417.963 103.862C418.721 104.62 419.984 104.585 420.785 103.784C421.587 102.982 421.622 101.719 420.864 100.961L406.456 86.5529Z" fill="white" fill-opacity="0.5"/>
<path fill-rule="evenodd" clip-rule="evenodd" d="M441.977 -80.7577C444.381 -83.1609 444.486 -86.9522 442.212 -89.2257C439.939 -91.4992 436.148 -91.394 433.744 -88.9908L416.931 -72.178L428.339 -95.1341C429.842 -98.1598 428.672 -101.697 425.725 -103.035C422.778 -104.373 419.17 -103.004 417.667 -99.9787L394.517 -53.3907L380.135 -67.7726C377.098 -70.8096 371.881 -70.1417 369.341 -66.3905L285.51 57.3776C281.133 63.8404 288.46 71.1676 294.923 66.7903L418.691 -17.04C422.442 -19.5807 423.11 -24.7976 420.073 -27.8347L405.875 -42.0332L452.463 -65.1831C455.488 -66.6866 456.857 -70.2943 455.519 -73.2412C454.181 -76.188 450.644 -77.3581 447.618 -75.8546L426.66 -65.4407L441.977 -80.7577ZM362.238 -49.0449C363.039 -49.846 364.303 -49.881 365.061 -49.1232L378.097 -36.0874C378.854 -35.3296 378.819 -34.0658 378.018 -33.2648C377.217 -32.4637 375.953 -32.4286 375.196 -33.1865L362.16 -46.2222C361.402 -46.9801 361.437 -48.2438 362.238 -49.0449ZM377.685 -46.6529C376.927 -47.4107 375.663 -47.3757 374.862 -46.5746C374.061 -45.7735 374.026 -44.5097 374.784 -43.7519L387.819 -30.7161C388.577 -29.9583 389.841 -29.9934 390.642 -30.7944C391.443 -31.5955 391.478 -32.8593 390.72 -33.6171L377.685 -46.6529ZM331.329 23.0301C332.13 22.2291 333.394 22.194 334.151 22.9518L341.012 29.8128C341.77 30.5706 341.735 31.8344 340.934 32.6354C340.133 33.4365 338.869 33.4716 338.111 32.7137L331.25 25.8528C330.493 25.095 330.528 23.8312 331.329 23.0301ZM330.956 11.0534C330.198 10.2955 328.934 10.3306 328.133 11.1317C327.332 11.9327 327.297 13.1965 328.055 13.9543L342.463 28.3623C343.221 29.1201 344.484 29.0851 345.285 28.284C346.087 27.4829 346.122 26.2191 345.364 25.4613L330.956 11.0534Z" fill="white" fill-opacity="0.5"/>
<path fill-rule="evenodd" clip-rule="evenodd" d="M366.477 -156.257C368.881 -158.66 368.986 -162.452 366.712 -164.725C364.439 -166.999 360.648 -166.894 358.244 -164.49L341.431 -147.677L352.839 -170.634C354.342 -173.659 353.172 -177.197 350.225 -178.534C347.278 -179.872 343.67 -178.504 342.167 -175.478L319.017 -128.89L304.635 -143.272C301.598 -146.309 296.381 -145.641 293.841 -141.89L210.01 -18.1219C205.633 -11.6591 212.96 -4.33184 219.423 -8.70916L343.191 -92.5394C346.942 -95.0802 347.61 -100.297 344.573 -103.334L330.375 -117.533L376.963 -140.683C379.988 -142.186 381.357 -145.794 380.019 -148.741C378.681 -151.688 375.144 -152.858 372.118 -151.354L351.16 -140.94L366.477 -156.257ZM286.738 -124.544C287.539 -125.345 288.803 -125.381 289.561 -124.623L302.597 -111.587C303.354 -110.829 303.319 -109.565 302.518 -108.764C301.717 -107.963 300.453 -107.928 299.696 -108.686L286.66 -121.722C285.902 -122.48 285.937 -123.743 286.738 -124.544ZM302.185 -122.152C301.427 -122.91 300.163 -122.875 299.362 -122.074C298.561 -121.273 298.526 -120.009 299.284 -119.251L312.319 -106.216C313.077 -105.458 314.341 -105.493 315.142 -106.294C315.943 -107.095 315.978 -108.359 315.22 -109.117L302.185 -122.152ZM255.829 -52.4693C256.63 -53.2704 257.894 -53.3055 258.651 -52.5476L265.512 -45.6867C266.27 -44.9289 266.235 -43.6651 265.434 -42.864C264.633 -42.063 263.369 -42.0279 262.611 -42.7858L255.75 -49.6467C254.993 -50.4045 255.028 -51.6683 255.829 -52.4693ZM255.456 -64.4461C254.698 -65.204 253.434 -65.1689 252.633 -64.3678C251.832 -63.5668 251.797 -62.303 252.555 -61.5452L266.963 -47.1372C267.721 -46.3794 268.984 -46.4144 269.785 -47.2155C270.587 -48.0166 270.622 -49.2803 269.864 -50.0382L255.456 -64.4461Z" fill="white" fill-opacity="0.5"/>
<path fill-rule="evenodd" clip-rule="evenodd" d="M1091.98 257.811C1094.38 255.407 1094.49 251.616 1092.22 249.342C1089.94 247.069 1086.15 247.174 1083.75 249.577L1066.94 266.39L1078.34 243.434C1079.85 240.408 1078.68 236.871 1075.73 235.533C1072.78 234.196 1069.17 235.564 1067.67 238.59L1044.52 285.178L1030.14 270.796C1027.1 267.759 1021.89 268.427 1019.34 272.178L935.514 395.946C931.137 402.409 938.464 409.736 944.927 405.359L1068.69 321.528C1072.45 318.988 1073.11 313.771 1070.08 310.734L1055.88 296.535L1102.47 273.385C1105.49 271.882 1106.86 268.274 1105.52 265.327C1104.18 262.38 1100.65 261.21 1097.62 262.714L1076.66 273.127L1091.98 257.811ZM1012.24 289.523C1013.04 288.722 1014.31 288.687 1015.06 289.445L1028.1 302.481C1028.86 303.239 1028.82 304.502 1028.02 305.303C1027.22 306.105 1025.96 306.14 1025.2 305.382L1012.16 292.346C1011.41 291.588 1011.44 290.324 1012.24 289.523ZM1027.69 291.915C1026.93 291.157 1025.67 291.193 1024.87 291.994C1024.06 292.795 1024.03 294.058 1024.79 294.816L1037.82 307.852C1038.58 308.61 1039.84 308.575 1040.65 307.774C1041.45 306.973 1041.48 305.709 1040.72 304.951L1027.69 291.915ZM981.333 361.598C982.134 360.797 983.397 360.762 984.155 361.52L991.016 368.381C991.774 369.139 991.739 370.403 990.938 371.204C990.137 372.005 988.873 372.04 988.115 371.282L981.254 364.421C980.496 363.663 980.532 362.399 981.333 361.598ZM980.96 349.622C980.202 348.864 978.938 348.899 978.137 349.7C977.336 350.501 977.301 351.765 978.059 352.523L992.467 366.93C993.225 367.688 994.488 367.653 995.289 366.852C996.09 366.051 996.126 364.787 995.368 364.029L980.96 349.622Z" fill="white" fill-opacity="0.5"/>
<path fill-rule="evenodd" clip-rule="evenodd" d="M1016.48 182.311C1018.88 179.908 1018.99 176.116 1016.71 173.843C1014.44 171.569 1010.65 171.675 1008.25 174.078L991.433 190.891L1002.84 167.935C1004.34 164.909 1003.17 161.372 1000.23 160.034C997.28 158.696 993.672 160.064 992.169 163.09L969.019 209.678L954.637 195.296C951.6 192.259 946.383 192.927 943.842 196.678L860.012 320.446C855.635 326.909 862.962 334.236 869.425 329.859L993.193 246.029C996.944 243.488 997.612 238.271 994.575 235.234L980.377 221.035L1026.96 197.886C1029.99 196.382 1031.36 192.774 1030.02 189.827C1028.68 186.881 1025.15 185.711 1022.12 187.214L1001.16 197.628L1016.48 182.311ZM936.74 214.024C937.541 213.223 938.805 213.188 939.563 213.945L952.599 226.981C953.356 227.739 953.321 229.003 952.52 229.804C951.719 230.605 950.455 230.64 949.698 229.882L936.662 216.846C935.904 216.089 935.939 214.825 936.74 214.024ZM952.186 216.416C951.429 215.658 950.165 215.693 949.364 216.494C948.563 217.295 948.528 218.559 949.286 219.317L962.321 232.352C963.079 233.11 964.343 233.075 965.144 232.274C965.945 231.473 965.98 230.209 965.222 229.452L952.186 216.416ZM905.831 286.099C906.632 285.298 907.895 285.263 908.653 286.02L915.514 292.881C916.272 293.639 916.237 294.903 915.436 295.704C914.635 296.505 913.371 296.54 912.613 295.782L905.752 288.921C904.995 288.164 905.03 286.9 905.831 286.099ZM905.458 274.122C904.7 273.364 903.436 273.399 902.635 274.2C901.834 275.001 901.799 276.265 902.557 277.023L916.965 291.431C917.723 292.189 918.986 292.154 919.787 291.353C920.588 290.552 920.624 289.288 919.866 288.53L905.458 274.122Z" fill="white" fill-opacity="0.5"/>
<path fill-rule="evenodd" clip-rule="evenodd" d="M940.981 106.811C943.385 104.408 943.49 100.617 941.216 98.3434C938.943 96.0699 935.151 96.175 932.748 98.5783L915.935 115.391L927.342 92.435C928.846 89.4093 927.676 85.872 924.729 84.5342C921.782 83.1964 918.174 84.5647 916.671 87.5904L893.521 134.178L879.139 119.796C876.102 116.759 870.885 117.427 868.344 121.179L784.514 244.947C780.137 251.409 787.464 258.737 793.927 254.359L917.695 170.529C921.446 167.988 922.114 162.771 919.077 159.734L904.878 145.536L951.466 122.386C954.492 120.882 955.86 117.275 954.523 114.328C953.185 111.381 949.648 110.211 946.622 111.714L925.664 122.128L940.981 106.811ZM861.242 138.524C862.043 137.723 863.307 137.688 864.065 138.446L877.1 151.482C877.858 152.239 877.823 153.503 877.022 154.304C876.221 155.105 874.957 155.14 874.2 154.383L861.164 141.347C860.406 140.589 860.441 139.325 861.242 138.524ZM876.688 140.916C875.931 140.158 874.667 140.193 873.866 140.994C873.065 141.796 873.03 143.059 873.787 143.817L886.823 156.853C887.581 157.611 888.845 157.576 889.646 156.775C890.447 155.974 890.482 154.71 889.724 153.952L876.688 140.916ZM830.333 210.599C831.134 209.798 832.397 209.763 833.155 210.521L840.016 217.382C840.774 218.14 840.739 219.403 839.938 220.205C839.137 221.006 837.873 221.041 837.115 220.283L830.254 213.422C829.496 212.664 829.532 211.4 830.333 210.599ZM829.96 198.622C829.202 197.865 827.938 197.9 827.137 198.701C826.336 199.502 826.301 200.766 827.059 201.523L841.467 215.931C842.225 216.689 843.488 216.654 844.289 215.853C845.09 215.052 845.126 213.788 844.368 213.03L829.96 198.622Z" fill="white" fill-opacity="0.5"/>
<path fill-rule="evenodd" clip-rule="evenodd" d="M865.483 31.3119C867.887 28.9087 867.992 25.1174 865.718 22.8439C863.445 20.5704 859.653 20.6755 857.25 23.0788L840.437 39.8916L851.844 16.9355C853.348 13.9098 852.178 10.3725 849.231 9.03473C846.284 7.69693 842.676 9.06522 841.173 12.0909L818.023 58.6789L803.641 44.297C800.604 41.26 795.387 41.9279 792.846 45.6791L709.016 169.447C704.639 175.91 711.966 183.237 718.429 178.86L842.197 95.0296C845.948 92.4889 846.616 87.2719 843.579 84.2349L829.38 70.0364L875.968 46.8865C878.994 45.383 880.362 41.7753 879.025 38.8284C877.687 35.8816 874.15 34.7115 871.124 36.215L850.166 46.6289L865.483 31.3119ZM785.744 63.0247C786.545 62.2236 787.809 62.1886 788.567 62.9464L801.602 75.9822C802.36 76.74 802.325 78.0037 801.524 78.8048C800.723 79.6059 799.459 79.641 798.701 78.8831L785.666 65.8474C784.908 65.0895 784.943 63.8258 785.744 63.0247ZM801.19 65.4167C800.433 64.6589 799.169 64.6939 798.368 65.495C797.567 66.2961 797.532 67.5599 798.289 68.3177L811.325 81.3535C812.083 82.1113 813.347 82.0762 814.148 81.2751C814.949 80.4741 814.984 79.2103 814.226 78.4525L801.19 65.4167ZM754.835 135.1C755.636 134.299 756.899 134.264 757.657 135.021L764.518 141.882C765.276 142.64 765.241 143.904 764.44 144.705C763.639 145.506 762.375 145.541 761.617 144.783L754.756 137.922C753.998 137.165 754.033 135.901 754.835 135.1ZM754.462 123.123C753.704 122.365 752.44 122.4 751.639 123.201C750.838 124.002 750.803 125.266 751.561 126.024L765.969 140.432C766.726 141.19 767.99 141.155 768.791 140.354C769.592 139.552 769.627 138.289 768.87 137.531L754.462 123.123Z" fill="white" fill-opacity="0.5"/>
<path fill-rule="evenodd" clip-rule="evenodd" d="M789.983 -44.1876C792.387 -46.5908 792.492 -50.3821 790.218 -52.6556C787.945 -54.9291 784.153 -54.8239 781.75 -52.4207L764.937 -35.6078L776.344 -58.564C777.848 -61.5896 776.678 -65.1269 773.731 -66.4647C770.784 -67.8025 767.176 -66.4342 765.673 -63.4086L742.523 -16.8206L728.141 -31.2025C725.104 -34.2395 719.887 -33.5715 717.346 -29.8204L633.516 93.9478C629.139 100.41 636.466 107.738 642.929 103.36L766.697 19.5302C770.448 16.9894 771.116 11.7725 768.079 8.73545L753.88 -5.46311L800.468 -28.613C803.494 -30.1165 804.862 -33.7242 803.525 -36.671C802.187 -39.6179 798.65 -40.788 795.624 -39.2845L774.666 -28.8706L789.983 -44.1876ZM710.244 -12.4748C711.045 -13.2759 712.309 -13.3109 713.067 -12.5531L726.102 0.482693C726.86 1.24053 726.825 2.50428 726.024 3.30537C725.223 4.10645 723.959 4.1415 723.201 3.38366L710.166 -9.6521C709.408 -10.4099 709.443 -11.6737 710.244 -12.4748ZM725.69 -10.0828C724.933 -10.8406 723.669 -10.8055 722.868 -10.0045C722.067 -9.20337 722.032 -7.93961 722.789 -7.18178L735.825 5.85399C736.583 6.61183 737.847 6.57676 738.648 5.77568C739.449 4.9746 739.484 3.71085 738.726 2.95301L725.69 -10.0828ZM679.335 59.6003C680.136 58.7992 681.399 58.7641 682.157 59.522L689.018 66.3829C689.776 67.1407 689.741 68.4045 688.94 69.2056C688.139 70.0066 686.875 70.0417 686.117 69.2839L679.256 62.4229C678.498 61.6651 678.533 60.4013 679.335 59.6003ZM678.962 47.6235C678.204 46.8656 676.94 46.9007 676.139 47.7018C675.338 48.5029 675.303 49.7666 676.061 50.5244L690.469 64.9324C691.226 65.6902 692.49 65.6552 693.291 64.8541C694.092 64.053 694.127 62.7893 693.37 62.0314L678.962 47.6235Z" fill="white" fill-opacity="0.5"/>
<path fill-rule="evenodd" clip-rule="evenodd" d="M714.481 -119.687C716.885 -122.09 716.99 -125.882 714.716 -128.155C712.443 -130.429 708.651 -130.323 706.248 -127.92L689.435 -111.107L700.842 -134.063C702.346 -137.089 701.176 -140.626 698.229 -141.964C695.282 -143.302 691.674 -141.934 690.171 -138.908L667.021 -92.3201L652.639 -106.702C649.602 -109.739 644.385 -109.071 641.844 -105.32L558.014 18.4482C553.637 24.911 560.964 32.2383 567.427 27.8609L691.195 -55.9693C694.946 -58.5101 695.614 -63.727 692.577 -66.7641L678.378 -80.9626L724.966 -104.112C727.992 -105.616 729.36 -109.224 728.023 -112.171C726.685 -115.117 723.148 -116.287 720.122 -114.784L699.164 -104.37L714.481 -119.687ZM634.742 -87.9743C635.543 -88.7754 636.807 -88.8104 637.565 -88.0526L650.6 -75.0168C651.358 -74.259 651.323 -72.9952 650.522 -72.1941C649.721 -71.3931 648.457 -71.358 647.7 -72.1158L634.664 -85.1516C633.906 -85.9094 633.941 -87.1732 634.742 -87.9743ZM650.188 -85.5823C649.431 -86.3401 648.167 -86.305 647.366 -85.504C646.565 -84.7029 646.53 -83.4391 647.287 -82.6813L660.323 -69.6455C661.081 -68.8877 662.345 -68.9227 663.146 -69.7238C663.947 -70.5249 663.982 -71.7887 663.224 -72.5465L650.188 -85.5823ZM603.833 -15.8993C604.634 -16.7003 605.897 -16.7354 606.655 -15.9776L613.516 -9.11662C614.274 -8.35879 614.239 -7.09503 613.438 -6.29395C612.637 -5.49287 611.373 -5.45782 610.615 -6.21566L603.754 -13.0766C602.996 -13.8344 603.032 -15.0982 603.833 -15.8993ZM603.46 -27.876C602.702 -28.6339 601.438 -28.5988 600.637 -27.7977C599.836 -26.9967 599.801 -25.7329 600.559 -24.9751L614.967 -10.5671C615.725 -9.80927 616.988 -9.84433 617.789 -10.6454C618.59 -11.4465 618.626 -12.7102 617.868 -13.4681L603.46 -27.876Z" fill="white" fill-opacity="0.5"/>
<path fill-rule="evenodd" clip-rule="evenodd" d="M1362.13 207.084C1364.53 204.681 1364.64 200.89 1362.36 198.616C1360.09 196.343 1356.3 196.448 1353.89 198.851L1337.08 215.664L1348.49 192.708C1349.99 189.682 1348.82 186.145 1345.88 184.807C1342.93 183.469 1339.32 184.837 1337.82 187.863L1314.67 234.451L1300.29 220.069C1297.25 217.032 1292.03 217.7 1289.49 221.451L1205.66 345.219C1201.28 351.682 1208.61 359.009 1215.07 354.632L1338.84 270.802C1342.59 268.261 1343.26 263.044 1340.22 260.007L1326.02 245.809L1372.61 222.659C1375.64 221.155 1377.01 217.548 1375.67 214.601C1374.33 211.654 1370.79 210.484 1367.77 211.987L1346.81 222.401L1362.13 207.084ZM1282.39 238.797C1283.19 237.996 1284.45 237.961 1285.21 238.719L1298.25 251.754C1299 252.512 1298.97 253.776 1298.17 254.577C1297.37 255.378 1296.1 255.413 1295.35 254.655L1282.31 241.62C1281.55 240.862 1281.59 239.598 1282.39 238.797ZM1297.83 241.189C1297.08 240.431 1295.81 240.466 1295.01 241.267C1294.21 242.068 1294.18 243.332 1294.93 244.09L1307.97 257.126C1308.73 257.884 1309.99 257.848 1310.79 257.047C1311.59 256.246 1311.63 254.983 1310.87 254.225L1297.83 241.189ZM1251.48 310.872C1252.28 310.071 1253.54 310.036 1254.3 310.794L1261.16 317.655C1261.92 318.412 1261.89 319.676 1261.08 320.477C1260.28 321.278 1259.02 321.313 1258.26 320.556L1251.4 313.695C1250.64 312.937 1250.68 311.673 1251.48 310.872ZM1251.11 298.895C1250.35 298.137 1249.08 298.172 1248.28 298.973C1247.48 299.775 1247.45 301.038 1248.21 301.796L1262.61 316.204C1263.37 316.962 1264.63 316.927 1265.44 316.126C1266.24 315.325 1266.27 314.061 1265.51 313.303L1251.11 298.895Z" fill="white" fill-opacity="0.5"/>
<path fill-rule="evenodd" clip-rule="evenodd" d="M1286.63 131.585C1289.03 129.181 1289.14 125.39 1286.86 123.117C1284.59 120.843 1280.8 120.948 1278.4 123.352L1261.58 140.164L1272.99 117.208C1274.49 114.183 1273.32 110.645 1270.38 109.308C1267.43 107.97 1263.82 109.338 1262.32 112.364L1239.17 158.952L1224.79 144.57C1221.75 141.533 1216.53 142.201 1213.99 145.952L1130.16 269.72C1125.79 276.183 1133.11 283.51 1139.58 279.133L1263.34 195.302C1267.09 192.762 1267.76 187.545 1264.73 184.508L1250.53 170.309L1297.11 147.159C1300.14 145.656 1301.51 142.048 1300.17 139.101C1298.83 136.154 1295.3 134.984 1292.27 136.488L1271.31 146.902L1286.63 131.585ZM1206.89 163.297C1207.69 162.496 1208.96 162.461 1209.71 163.219L1222.75 176.255C1223.51 177.013 1223.47 178.277 1222.67 179.078C1221.87 179.879 1220.61 179.914 1219.85 179.156L1206.81 166.12C1206.05 165.362 1206.09 164.099 1206.89 163.297ZM1222.34 165.69C1221.58 164.932 1220.32 164.967 1219.51 165.768C1218.71 166.569 1218.68 167.833 1219.44 168.59L1232.47 181.626C1233.23 182.384 1234.49 182.349 1235.29 181.548C1236.1 180.747 1236.13 179.483 1235.37 178.725L1222.34 165.69ZM1175.98 235.373C1176.78 234.571 1178.05 234.536 1178.8 235.294L1185.66 242.155C1186.42 242.913 1186.39 244.177 1185.59 244.978C1184.79 245.779 1183.52 245.814 1182.76 245.056L1175.9 238.195C1175.14 237.437 1175.18 236.174 1175.98 235.373ZM1175.61 223.396C1174.85 222.638 1173.59 222.673 1172.79 223.474C1171.98 224.275 1171.95 225.539 1172.71 226.297L1187.12 240.705C1187.87 241.462 1189.14 241.427 1189.94 240.626C1190.74 239.825 1190.77 238.562 1190.02 237.804L1175.61 223.396Z" fill="white" fill-opacity="0.5"/>
<path fill-rule="evenodd" clip-rule="evenodd" d="M1211.13 56.0852C1213.53 53.6819 1213.64 49.8907 1211.36 47.6171C1209.09 45.3436 1205.3 45.4488 1202.89 47.852L1186.08 64.6649L1197.49 41.7088C1198.99 38.6831 1197.82 35.1458 1194.88 33.808C1191.93 32.4702 1188.32 33.8385 1186.82 36.8642L1163.67 83.4522L1149.29 69.0703C1146.25 66.0332 1141.03 66.7012 1138.49 70.4523L1054.66 194.22C1050.28 200.683 1057.61 208.01 1064.07 203.633L1187.84 119.803C1191.59 117.262 1192.26 112.045 1189.22 109.008L1175.02 94.8096L1221.61 71.6597C1224.64 70.1563 1226.01 66.5485 1224.67 63.6017C1223.33 60.6548 1219.79 59.4847 1216.77 60.9882L1195.81 71.4021L1211.13 56.0852ZM1131.39 87.798C1132.19 86.9969 1133.45 86.9618 1134.21 87.7196L1147.25 100.755C1148 101.513 1147.97 102.777 1147.17 103.578C1146.37 104.379 1145.1 104.414 1144.35 103.656L1131.31 90.6206C1130.55 89.8628 1130.59 88.599 1131.39 87.798ZM1146.83 90.19C1146.08 89.4321 1144.81 89.4672 1144.01 90.2683C1143.21 91.0693 1143.18 92.3331 1143.93 93.0909L1156.97 106.127C1157.73 106.885 1158.99 106.849 1159.79 106.048C1160.59 105.247 1160.63 103.984 1159.87 103.226L1146.83 90.19ZM1100.48 159.873C1101.28 159.072 1102.54 159.037 1103.3 159.795L1110.16 166.656C1110.92 167.413 1110.89 168.677 1110.08 169.478C1109.28 170.279 1108.02 170.314 1107.26 169.557L1100.4 162.696C1099.64 161.938 1099.68 160.674 1100.48 159.873ZM1100.11 147.896C1099.35 147.138 1098.08 147.173 1097.28 147.974C1096.48 148.776 1096.45 150.039 1097.21 150.797L1111.61 165.205C1112.37 165.963 1113.63 165.928 1114.44 165.127C1115.24 164.326 1115.27 163.062 1114.51 162.304L1100.11 147.896Z" fill="white" fill-opacity="0.5"/>
<path fill-rule="evenodd" clip-rule="evenodd" d="M1135.63 -19.4144C1138.03 -21.8176 1138.14 -25.6089 1135.86 -27.8824C1133.59 -30.1559 1129.8 -30.0507 1127.4 -27.6475L1110.58 -10.8346L1121.99 -33.7907C1123.49 -36.8164 1122.32 -40.3537 1119.38 -41.6915C1116.43 -43.0293 1112.82 -41.661 1111.32 -38.6354L1088.17 7.95265L1073.79 -6.42925C1070.75 -9.46627 1065.53 -8.79834 1062.99 -5.04719L979.163 118.721C974.785 125.184 982.112 132.511 988.575 128.134L1112.34 44.3034C1116.09 41.7627 1116.76 36.5457 1113.73 33.5087L1099.53 19.3101L1146.11 -3.83977C1149.14 -5.34325 1150.51 -8.95097 1149.17 -11.8978C1147.83 -14.8447 1144.3 -16.0148 1141.27 -14.5113L1120.31 -4.09739L1135.63 -19.4144ZM1055.89 12.2984C1056.69 11.4974 1057.96 11.4623 1058.71 12.2201L1071.75 25.2559C1072.51 26.0137 1072.47 27.2775 1071.67 28.0786C1070.87 28.8797 1069.61 28.9147 1068.85 28.1569L1055.81 15.1211C1055.05 14.3633 1055.09 13.0995 1055.89 12.2984ZM1071.34 14.6905C1070.58 13.9326 1069.32 13.9677 1068.51 14.7688C1067.71 15.5698 1067.68 16.8336 1068.44 17.5914L1081.47 30.6272C1082.23 31.385 1083.49 31.35 1084.29 30.5489C1085.1 29.7478 1085.13 28.4841 1084.37 27.7262L1071.34 14.6905ZM1024.98 84.3735C1025.78 83.5724 1027.05 83.5373 1027.8 84.2952L1034.66 91.1561C1035.42 91.9139 1035.39 93.1777 1034.59 93.9788C1033.79 94.7799 1032.52 94.8149 1031.76 94.0571L1024.9 87.1961C1024.14 86.4383 1024.18 85.1746 1024.98 84.3735ZM1024.61 72.3967C1023.85 71.6388 1022.59 71.6739 1021.79 72.475C1020.98 73.2761 1020.95 74.5398 1021.71 75.2977L1036.12 89.7056C1036.87 90.4634 1038.14 90.4284 1038.94 89.6273C1039.74 88.8262 1039.77 87.5625 1039.02 86.8046L1024.61 72.3967Z" fill="white" fill-opacity="0.5"/>
<path fill-rule="evenodd" clip-rule="evenodd" d="M1060.13 -94.9139C1062.53 -97.3171 1062.64 -101.108 1060.36 -103.382C1058.09 -105.655 1054.3 -105.55 1051.9 -103.147L1035.08 -86.3341L1046.49 -109.29C1047.99 -112.316 1046.82 -115.853 1043.88 -117.191C1040.93 -118.529 1037.32 -117.161 1035.82 -114.135L1012.67 -67.5468L998.288 -81.9288C995.251 -84.9658 990.034 -84.2978 987.493 -80.5467L903.663 43.2215C899.285 49.6842 906.612 57.0115 913.075 52.6342L1036.84 -31.1961C1040.59 -33.7368 1041.26 -38.9538 1038.23 -41.9908L1024.03 -56.1894L1070.61 -79.3393C1073.64 -80.8428 1075.01 -84.4505 1073.67 -87.3973C1072.33 -90.3442 1068.8 -91.5143 1065.77 -90.0108L1044.81 -79.5969L1060.13 -94.9139ZM980.39 -63.2011C981.192 -64.0021 982.455 -64.0372 983.213 -63.2794L996.249 -50.2436C997.007 -49.4858 996.972 -48.222 996.171 -47.4209C995.37 -46.6198 994.106 -46.5848 993.348 -47.3426L980.312 -60.3784C979.554 -61.1362 979.589 -62.4 980.39 -63.2011ZM995.837 -60.809C995.079 -61.5669 993.815 -61.5318 993.014 -60.7307C992.213 -59.9297 992.178 -58.6659 992.936 -57.9081L1005.97 -44.8723C1006.73 -44.1145 1007.99 -44.1495 1008.79 -44.9506C1009.6 -45.7517 1009.63 -47.0154 1008.87 -47.7733L995.837 -60.809ZM949.481 8.87397C950.282 8.07288 951.546 8.03783 952.304 8.79567L959.165 15.6566C959.922 16.4144 959.887 17.6782 959.086 18.4793C958.285 19.2804 957.022 19.3154 956.264 18.5576L949.403 11.6966C948.645 10.9388 948.68 9.67505 949.481 8.87397ZM949.108 -3.10282C948.35 -3.86066 947.087 -3.82559 946.285 -3.02452C945.484 -2.22344 945.449 -0.959681 946.207 -0.201844L960.615 14.2061C961.373 14.9639 962.637 14.9289 963.438 14.1278C964.239 13.3267 964.274 12.063 963.516 11.3051L949.108 -3.10282Z" fill="white" fill-opacity="0.5"/>
<path fill-rule="evenodd" clip-rule="evenodd" d="M984.63 -170.413C987.033 -172.817 987.138 -176.608 984.865 -178.881C982.591 -181.155 978.8 -181.05 976.397 -178.646L959.584 -161.834L970.991 -184.79C972.494 -187.815 971.324 -191.353 968.377 -192.691C965.431 -194.028 961.823 -192.66 960.319 -189.634L937.169 -143.046L922.788 -157.428C919.751 -160.465 914.534 -159.797 911.993 -156.046L828.163 -32.278C823.785 -25.8153 831.112 -18.488 837.575 -22.8653L961.343 -106.696C965.095 -109.236 965.762 -114.453 962.725 -117.49L948.527 -131.689L995.115 -154.839C998.141 -156.342 999.509 -159.95 998.171 -162.897C996.833 -165.844 993.296 -167.014 990.27 -165.51L969.313 -155.096L984.63 -170.413ZM904.89 -138.701C905.692 -139.502 906.955 -139.537 907.713 -138.779L920.749 -125.743C921.507 -124.985 921.472 -123.721 920.671 -122.92C919.87 -122.119 918.606 -122.084 917.848 -122.842L904.812 -135.878C904.054 -136.636 904.089 -137.899 904.89 -138.701ZM920.337 -136.309C919.579 -137.066 918.315 -137.031 917.514 -136.23C916.713 -135.429 916.678 -134.165 917.436 -133.408L930.472 -120.372C931.23 -119.614 932.493 -119.649 933.294 -120.45C934.095 -121.251 934.13 -122.515 933.373 -123.273L920.337 -136.309ZM873.981 -66.6255C874.782 -67.4266 876.046 -67.4617 876.804 -66.7038L883.665 -59.8429C884.422 -59.0851 884.387 -57.8213 883.586 -57.0202C882.785 -56.2191 881.522 -56.1841 880.764 -56.9419L873.903 -63.8029C873.145 -64.5607 873.18 -65.8244 873.981 -66.6255ZM873.608 -78.6023C872.85 -79.3601 871.587 -79.3251 870.785 -78.524C869.984 -77.7229 869.949 -76.4592 870.707 -75.7013L885.115 -61.2934C885.873 -60.5355 887.137 -60.5706 887.938 -61.3717C888.739 -62.1728 888.774 -63.4365 888.016 -64.1944L873.608 -78.6023Z" fill="white" fill-opacity="0.5"/>
<path fill-rule="evenodd" clip-rule="evenodd" d="M1634.64 168.155C1637.04 165.751 1637.14 161.96 1634.87 159.687C1632.6 157.413 1628.81 157.518 1626.4 159.922L1609.59 176.734L1621 153.778C1622.5 150.753 1621.33 147.215 1618.38 145.878C1615.44 144.54 1611.83 145.908 1610.33 148.934L1587.18 195.522L1572.79 181.14C1569.76 178.103 1564.54 178.771 1562 182.522L1478.17 306.29C1473.79 312.753 1481.12 320.08 1487.58 315.703L1611.35 231.872C1615.1 229.332 1615.77 224.115 1612.73 221.078L1598.53 206.879L1645.12 183.729C1648.15 182.226 1649.51 178.618 1648.18 175.671C1646.84 172.724 1643.3 171.554 1640.28 173.058L1619.32 183.472L1634.64 168.155ZM1554.9 199.868C1555.7 199.066 1556.96 199.031 1557.72 199.789L1570.75 212.825C1571.51 213.583 1571.48 214.847 1570.68 215.648C1569.88 216.449 1568.61 216.484 1567.85 215.726L1554.82 202.69C1554.06 201.932 1554.1 200.669 1554.9 199.868ZM1570.34 202.26C1569.58 201.502 1568.32 201.537 1567.52 202.338C1566.72 203.139 1566.68 204.403 1567.44 205.161L1580.48 218.196C1581.24 218.954 1582.5 218.919 1583.3 218.118C1584.1 217.317 1584.14 216.053 1583.38 215.295L1570.34 202.26ZM1523.99 271.943C1524.79 271.141 1526.05 271.106 1526.81 271.864L1533.67 278.725C1534.43 279.483 1534.39 280.747 1533.59 281.548C1532.79 282.349 1531.53 282.384 1530.77 281.626L1523.91 274.765C1523.15 274.007 1523.19 272.744 1523.99 271.943ZM1523.61 259.966C1522.86 259.208 1521.59 259.243 1520.79 260.044C1519.99 260.845 1519.96 262.109 1520.71 262.867L1535.12 277.275C1535.88 278.033 1537.14 277.997 1537.94 277.196C1538.74 276.395 1538.78 275.132 1538.02 274.374L1523.61 259.966Z" fill="white" fill-opacity="0.5"/>
<path fill-rule="evenodd" clip-rule="evenodd" d="M1559.13 92.6552C1561.54 90.252 1561.64 86.4607 1559.37 84.1872C1557.1 81.9137 1553.3 82.0188 1550.9 84.4221L1534.09 101.235L1545.49 78.2788C1547 75.2531 1545.83 71.7158 1542.88 70.378C1539.93 69.0402 1536.33 70.4085 1534.82 73.4342L1511.67 120.022L1497.29 105.64C1494.25 102.603 1489.04 103.271 1486.5 107.022L1402.67 230.791C1398.29 237.253 1405.62 244.581 1412.08 240.203L1535.85 156.373C1539.6 153.832 1540.27 148.615 1537.23 145.578L1523.03 131.38L1569.62 108.23C1572.64 106.726 1574.01 103.119 1572.67 100.172C1571.34 97.2249 1567.8 96.0548 1564.77 97.5582L1543.82 107.972L1559.13 92.6552ZM1479.39 124.368C1480.2 123.567 1481.46 123.532 1482.22 124.29L1495.25 137.325C1496.01 138.083 1495.98 139.347 1495.17 140.148C1494.37 140.949 1493.11 140.984 1492.35 140.226L1479.32 127.191C1478.56 126.433 1478.59 125.169 1479.39 124.368ZM1494.84 126.76C1494.08 126.002 1492.82 126.037 1492.02 126.838C1491.22 127.639 1491.18 128.903 1491.94 129.661L1504.98 142.697C1505.73 143.455 1507 143.42 1507.8 142.618C1508.6 141.817 1508.63 140.554 1507.88 139.796L1494.84 126.76ZM1448.48 196.443C1449.29 195.642 1450.55 195.607 1451.31 196.365L1458.17 203.226C1458.93 203.983 1458.89 205.247 1458.09 206.048C1457.29 206.849 1456.03 206.884 1455.27 206.127L1448.41 199.266C1447.65 198.508 1447.68 197.244 1448.48 196.443ZM1448.11 184.466C1447.35 183.708 1446.09 183.743 1445.29 184.545C1444.49 185.346 1444.45 186.609 1445.21 187.367L1459.62 201.775C1460.38 202.533 1461.64 202.498 1462.44 201.697C1463.24 200.896 1463.28 199.632 1462.52 198.874L1448.11 184.466Z" fill="white" fill-opacity="0.5"/>
<path fill-rule="evenodd" clip-rule="evenodd" d="M1483.64 17.1558C1486.04 14.7525 1486.14 10.9613 1483.87 8.68774C1481.6 6.41423 1477.81 6.5194 1475.4 8.92265L1458.59 25.7355L1470 2.77937C1471.5 -0.24631 1470.33 -3.78361 1467.38 -5.12141C1464.44 -6.45921 1460.83 -5.09092 1459.33 -2.06524L1436.18 44.5228L1421.79 30.1409C1418.76 27.1038 1413.54 27.7718 1411 31.5229L1327.17 155.291C1322.79 161.754 1330.12 169.081 1336.58 164.704L1460.35 80.8735C1464.1 78.3328 1464.77 73.1158 1461.73 70.0788L1447.53 55.8802L1494.12 32.7303C1497.15 31.2269 1498.51 27.6191 1497.18 24.6723C1495.84 21.7254 1492.3 20.5553 1489.28 22.0588L1468.32 32.4727L1483.64 17.1558ZM1403.9 48.8686C1404.7 48.0675 1405.96 48.0324 1406.72 48.7903L1419.75 61.826C1420.51 62.5839 1420.48 63.8476 1419.68 64.6487C1418.88 65.4498 1417.61 65.4848 1416.85 64.727L1403.82 51.6912C1403.06 50.9334 1403.1 49.6696 1403.9 48.8686ZM1419.34 51.2606C1418.58 50.5027 1417.32 50.5378 1416.52 51.3389C1415.72 52.1399 1415.68 53.4037 1416.44 54.1615L1429.48 67.1973C1430.24 67.9551 1431.5 67.9201 1432.3 67.119C1433.1 66.3179 1433.14 65.0542 1432.38 64.2963L1419.34 51.2606ZM1372.99 120.944C1373.79 120.142 1375.05 120.107 1375.81 120.865L1382.67 127.726C1383.43 128.484 1383.39 129.748 1382.59 130.549C1381.79 131.35 1380.53 131.385 1379.77 130.627L1372.91 123.766C1372.15 123.008 1372.19 121.745 1372.99 120.944ZM1372.61 108.967C1371.86 108.209 1370.59 108.244 1369.79 109.045C1368.99 109.846 1368.96 111.11 1369.71 111.868L1384.12 126.276C1384.88 127.034 1386.14 126.999 1386.94 126.197C1387.74 125.396 1387.78 124.133 1387.02 123.375L1372.61 108.967Z" fill="white" fill-opacity="0.5"/>
<path fill-rule="evenodd" clip-rule="evenodd" d="M1408.14 -58.3438C1410.54 -60.7471 1410.64 -64.5383 1408.37 -66.8118C1406.1 -69.0854 1402.31 -68.9802 1399.9 -66.5769L1383.09 -49.7641L1394.5 -72.7202C1396 -75.7459 1394.83 -79.2832 1391.88 -80.621C1388.94 -81.9588 1385.33 -80.5905 1383.83 -77.5648L1360.68 -30.9768L1346.29 -45.3587C1343.26 -48.3958 1338.04 -47.7278 1335.5 -43.9767L1251.67 79.7915C1247.29 86.2542 1254.62 93.5815 1261.08 89.2042L1384.85 5.37389C1388.6 2.83318 1389.27 -2.3838 1386.23 -5.42082L1372.03 -19.6194L1418.62 -42.7693C1421.65 -44.2727 1423.01 -47.8804 1421.68 -50.8273C1420.34 -53.7742 1416.8 -54.9443 1413.78 -53.4408L1392.82 -43.0269L1408.14 -58.3438ZM1328.4 -26.631C1329.2 -27.4321 1330.46 -27.4672 1331.22 -26.7093L1344.25 -13.6736C1345.01 -12.9157 1344.98 -11.652 1344.18 -10.8509C1343.38 -10.0498 1342.11 -10.0148 1341.35 -10.7726L1328.32 -23.8084C1327.56 -24.5662 1327.6 -25.83 1328.4 -26.631ZM1343.84 -24.239C1343.08 -24.9969 1341.82 -24.9618 1341.02 -24.1607C1340.22 -23.3596 1340.18 -22.0959 1340.94 -21.338L1353.98 -8.30228C1354.74 -7.54444 1356 -7.5795 1356.8 -8.38059C1357.6 -9.18167 1357.64 -10.4454 1356.88 -11.2033L1343.84 -24.239ZM1297.49 45.444C1298.29 44.6429 1299.55 44.6079 1300.31 45.3657L1307.17 52.2266C1307.93 52.9845 1307.89 54.2482 1307.09 55.0493C1306.29 55.8504 1305.03 55.8854 1304.27 55.1276L1297.41 48.2667C1296.65 47.5088 1296.69 46.2451 1297.49 45.444ZM1297.11 33.4672C1296.36 32.7094 1295.09 32.7444 1294.29 33.5455C1293.49 34.3466 1293.46 35.6103 1294.21 36.3682L1308.62 50.7761C1309.38 51.534 1310.64 51.4989 1311.44 50.6978C1312.24 49.8968 1312.28 48.633 1311.52 47.8752L1297.11 33.4672Z" fill="white" fill-opacity="0.5"/>
<path fill-rule="evenodd" clip-rule="evenodd" d="M1332.64 -133.843C1335.04 -136.246 1335.15 -140.038 1332.87 -142.311C1330.6 -144.585 1326.81 -144.48 1324.4 -142.076L1307.59 -125.264L1319 -148.22C1320.5 -151.245 1319.33 -154.783 1316.39 -156.12C1313.44 -157.458 1309.83 -156.09 1308.33 -153.064L1285.18 -106.476L1270.8 -120.858C1267.76 -123.895 1262.54 -123.227 1260 -119.476L1176.17 4.29206C1171.79 10.7548 1179.12 18.0821 1185.58 13.7048L1309.35 -70.1255C1313.1 -72.6662 1313.77 -77.8832 1310.73 -80.9202L1296.53 -95.1188L1343.12 -118.269C1346.15 -119.772 1347.52 -123.38 1346.18 -126.327C1344.84 -129.274 1341.3 -130.444 1338.28 -128.94L1317.32 -118.526L1332.64 -133.843ZM1252.9 -102.13C1253.7 -102.932 1254.96 -102.967 1255.72 -102.209L1268.76 -89.173C1269.51 -88.4152 1269.48 -87.1514 1268.68 -86.3503C1267.88 -85.5492 1266.61 -85.5142 1265.86 -86.272L1252.82 -99.3078C1252.06 -100.066 1252.1 -101.329 1252.9 -102.13ZM1268.34 -99.7384C1267.59 -100.496 1266.32 -100.461 1265.52 -99.6602C1264.72 -98.8591 1264.69 -97.5953 1265.44 -96.8375L1278.48 -83.8017C1279.24 -83.0439 1280.5 -83.0789 1281.3 -83.88C1282.1 -84.6811 1282.14 -85.9448 1281.38 -86.7027L1268.34 -99.7384ZM1221.99 -30.0554C1222.79 -30.8565 1224.05 -30.8916 1224.81 -30.1337L1231.67 -23.2728C1232.43 -22.515 1232.4 -21.2512 1231.59 -20.4501C1230.79 -19.649 1229.53 -19.614 1228.77 -20.3718L1221.91 -27.2328C1221.15 -27.9906 1221.19 -29.2543 1221.99 -30.0554ZM1221.62 -42.0322C1220.86 -42.7901 1219.59 -42.755 1218.79 -41.9539C1217.99 -41.1528 1217.96 -39.8891 1218.71 -39.1312L1233.12 -24.7233C1233.88 -23.9655 1235.14 -24.0005 1235.95 -24.8016C1236.75 -25.6027 1236.78 -26.8664 1236.02 -27.6243L1221.62 -42.0322Z" fill="white" fill-opacity="0.5"/>
</svg>
