<svg width="15" height="45" viewBox="0 0 15 45" fill="none" xmlns="http://www.w3.org/2000/svg">
<path d="M6.40298 6.11615L5.91634 6.19678L4.22451 1.23158C4.04431 0.702703 3.49614 0.440499 3.00776 0.621403C2.514 0.804303 2.24317 1.37909 2.42484 1.91226L5.85828 11.9888L5.97094 12.3195H5.62164H1.40804C0.688179 12.3195 0.124885 13.0136 0.274563 13.7811L6.12506 43.7774C6.37798 45.0742 8.13909 45.0742 8.39202 43.7774L14.2425 13.7811C14.3922 13.0136 13.8289 12.3195 13.109 12.3195H8.94914H8.59985L8.7125 11.9888L12.146 1.91226C12.3276 1.37909 12.0568 0.804303 11.563 0.621403C11.0747 0.440499 10.5265 0.702703 10.3463 1.23158L8.80175 5.7645L8.31511 5.68387V1.2575C8.31511 0.691132 7.87733 0.25 7.35904 0.25C6.84076 0.25 6.40298 0.691132 6.40298 1.2575V6.11615ZM1.27972 17.3615C1.27972 17.0018 1.5619 16.6923 1.93174 16.6923H5.75095C6.12079 16.6923 6.40298 17.0018 6.40298 17.3615C6.40298 17.7211 6.12079 18.0306 5.75095 18.0306H1.93174C1.5619 18.0306 1.27972 17.7211 1.27972 17.3615ZM3.49084 15.8944C3.49084 15.5347 3.77302 15.2252 4.14286 15.2252H7.96208C8.33192 15.2252 8.6141 15.5347 8.6141 15.8944C8.6141 16.254 8.33192 16.5635 7.96208 16.5635H4.14286C3.77303 16.5635 3.49084 16.254 3.49084 15.8944ZM7.31005 32.2419C7.31005 31.9933 7.44493 31.7686 7.6504 31.6536H5.75095C5.38111 31.6536 5.09893 31.344 5.09893 30.9844C5.09893 30.6248 5.38111 30.3152 5.75095 30.3152H9.97219C10.342 30.3152 10.6242 30.6248 10.6242 30.9844C10.6242 31.2667 10.4504 31.518 10.1968 31.6132C10.4504 31.7083 10.6242 31.9597 10.6242 32.2419C10.6242 32.6015 10.342 32.9111 9.97219 32.9111H7.96208C7.59224 32.9111 7.31005 32.6015 7.31005 32.2419Z" stroke="white" stroke-width="0.5"/>
</svg>
