<svg width="1440" height="161" viewBox="0 0 1440 161" fill="none" xmlns="http://www.w3.org/2000/svg">
<path fill-rule="evenodd" clip-rule="evenodd" d="M1081.3 0.525672C1080 -0.157746 1078.4 -0.200818 1077.1 0.550199C1069.49 4.94287 1068.15 10.6752 1067.7 20.0285C1067.31 20.0064 1066.92 19.9952 1066.53 19.9952C1066.1 19.9952 1065.68 20.0085 1065.26 20.0345C1064.81 10.6776 1063.47 4.94381 1055.86 0.550199C1054.56 -0.200818 1052.96 -0.157746 1051.65 0.525672C1048.15 2.3631 1048.81 7.36922 1052.25 9.47635C1056.15 11.8652 1058.96 15.2377 1060.39 20.9507C1053.17 23.2755 1048 29.584 1048 37.0016C1048 41.9774 1050.32 46.4541 1054.04 49.564C1055.75 39.69 1062.44 31.6954 1071.22 28.7037L1071.53 28.8661C1071.54 28.7759 1071.54 28.6862 1071.54 28.5968C1073.87 27.8416 1076.33 27.4355 1078.89 27.4355C1079.94 27.4355 1080.98 27.505 1082.01 27.64C1079.77 24.542 1076.47 22.1531 1072.58 20.9208C1074.01 15.226 1076.82 11.861 1080.71 9.47635C1084.15 7.36922 1084.81 2.3631 1081.3 0.525672ZM724.375 52.9387C493.396 33.9639 285.065 16.8495 -6 65.0078V160.997H1447V65.0078C1333.71 73.321 1232.4 76.0535 1139.48 75.357L1140.2 72.17C1140.57 70.5174 1139.18 68.9717 1137.32 68.9717H1128.65L1135.81 50.6547C1136.27 49.4651 1135.59 48.1581 1134.28 47.7355C1132.97 47.3129 1131.53 47.9346 1131.07 49.1242L1127.84 57.3641V49.3179C1127.84 48.0555 1126.72 47.0321 1125.33 47.0321C1123.94 47.0321 1122.81 48.0555 1122.81 49.3179V58.1499L1119.29 49.1242C1118.82 47.9346 1117.38 47.3129 1116.07 47.7355C1114.77 48.1581 1114.08 49.4651 1114.55 50.6547L1121.71 68.9717H1112.92C1111.06 68.9717 1109.67 70.5174 1110.04 72.17L1110.68 75.0297C1106.22 74.9617 1101.77 74.8861 1097.34 74.803C1097.92 73.8972 1098.2 72.8761 1098.2 71.7396C1094.91 70.0458 1094.21 67.7152 1095.7 64.8148C1097.67 63.0428 1099.19 60.8511 1100.25 58.2398C1101.36 55.6284 1101.91 52.6206 1101.91 49.2165C1101.91 45.2994 1100.9 41.8487 1098.88 38.8643C1096.91 35.8798 1094.24 33.5949 1090.85 32.0094C1087.47 30.3773 1083.71 29.5612 1079.57 29.5612C1074.42 29.5612 1070.05 30.7737 1066.46 33.1985C1062.88 35.5767 1060.2 38.7244 1058.43 42.6414C1056.72 46.5119 1055.86 50.6621 1055.86 55.0921C1055.86 61.6206 1056.72 67.1464 1058.43 71.6697C1058.75 72.4888 1059.1 73.2338 1059.49 73.9046C936.802 70.3895 828.296 61.4758 724.375 52.9387ZM1126.96 75.242C1124.71 75.2175 1122.46 75.1911 1120.21 75.1626H1126.59C1126.72 75.1626 1126.85 75.1912 1126.96 75.242ZM1074.03 74.294C1076.77 74.3622 1079.52 74.4276 1082.27 74.4902C1081.97 74.1389 1081.68 73.7583 1081.39 73.3484C1080.53 72.136 1079.85 70.877 1079.34 69.5713C1077.67 69.3847 1076.01 68.9884 1074.34 68.3821C1073.74 69.3925 1073.74 71.5143 1073.74 72.307C1073.74 72.9853 1073.84 73.3969 1073.93 73.8035C1073.97 73.9625 1074 74.1208 1074.03 74.294ZM1075.63 56.7009C1074.27 55.4885 1073.58 54.0895 1073.58 52.5041C1073.58 50.9186 1074.27 49.5196 1075.63 48.3072C1076.99 47.0948 1078.56 46.4886 1080.32 46.4886C1082.14 46.4886 1083.71 47.0948 1085.02 48.3072C1086.38 49.473 1087.07 50.8719 1087.07 52.5041C1087.07 54.0895 1086.38 55.4885 1085.02 56.7009C1083.71 57.8667 1082.14 58.4496 1080.32 58.4496C1078.56 58.4496 1076.99 57.8667 1075.63 56.7009Z" fill="#3F4C6D"/>
</svg>
