<svg width="1439" height="192" viewBox="0 0 1439 192" fill="none" xmlns="http://www.w3.org/2000/svg">
<path fill-rule="evenodd" clip-rule="evenodd" d="M250.388 0.557091C251.684 -0.211923 253.312 -0.158932 254.644 0.556882C258.137 2.43418 257.608 7.4045 254.234 9.4621C250.248 11.8935 247.38 15.333 245.926 21.2399C249.785 22.4917 253.06 24.9187 255.271 28.0659C254.258 27.9288 253.226 27.8582 252.179 27.8582C249.648 27.8582 247.206 28.2708 244.903 29.038C244.899 29.1288 244.895 29.22 244.892 29.3116L244.585 29.1466C235.885 32.186 229.246 40.3077 227.553 50.3389C223.874 47.1795 221.566 42.6315 221.566 37.5765C221.566 30.0408 226.695 23.632 233.849 21.2702C232.398 15.3448 229.527 11.8977 225.534 9.4621C222.16 7.4045 221.63 2.43418 225.123 0.556882C226.456 -0.158932 228.084 -0.211923 229.38 0.557091C236.901 5.01905 238.232 10.8422 238.675 20.3394C239.091 20.3129 239.511 20.2995 239.934 20.2995C240.323 20.2995 240.71 20.3109 241.093 20.3333C241.536 10.8397 242.868 5.01809 250.388 0.557091ZM207.208 50.0035C208.584 50.0035 209.7 50.9744 209.7 52.172V59.8051L212.892 51.9883C213.353 50.8597 214.778 50.2699 216.075 50.6708C217.373 51.0718 218.051 52.3116 217.59 53.4401L210.494 70.8167H219.091C220.93 70.8167 222.307 72.2831 221.941 73.8508L221.428 76.0427C225.35 75.821 229.262 75.6136 233.165 75.4201C232.691 74.6498 232.273 73.7752 231.911 72.7964C230.209 68.2012 229.358 62.5874 229.358 55.955C229.358 51.4545 230.209 47.2382 231.911 43.3062C233.662 39.3268 236.315 36.1291 239.868 33.713C243.421 31.2496 247.75 30.0178 252.855 30.0178C256.958 30.0178 260.687 30.8469 264.04 32.505C267.393 34.1157 270.045 36.437 271.997 39.4689C273.999 42.5009 275 46.0065 275 49.9859C275 53.4442 274.449 56.4998 273.348 59.1528C272.297 61.8057 270.796 64.0323 268.844 65.8325C267.368 68.779 268.057 71.1467 271.322 72.8675C271.322 73.2428 271.292 73.6058 271.232 73.9563C419.486 69.8862 555.123 84.9806 694.317 100.471C913.143 124.823 1140.76 150.153 1440 103.536V192H0V103.536C67.5205 90.561 131.506 82.4182 193.004 77.8917L192.059 73.8508C191.693 72.2831 193.07 70.8167 194.909 70.8167H203.617L196.521 53.4401C196.06 52.3116 196.738 51.0718 198.036 50.6708C199.333 50.2699 200.758 50.8597 201.219 51.9883L204.715 60.5505V52.172C204.715 50.9744 205.831 50.0035 207.208 50.0035ZM254.649 74.4905C252.178 74.5819 249.705 74.6788 247.227 74.7811C247.15 74.4225 247.083 74.0318 247.083 73.4439C247.083 72.6385 247.083 70.483 247.675 69.4566C249.327 70.0724 250.978 70.4751 252.63 70.6646C253.128 71.987 253.801 73.2623 254.649 74.4905ZM208.892 76.7984C205.844 76.9935 202.79 77.1974 199.73 77.4102C199.732 77.0121 200.103 76.6897 200.561 76.6897H208.454C208.615 76.6897 208.765 76.7295 208.892 76.7984ZM246.924 53.3258C246.924 54.9365 247.6 56.3577 248.951 57.5894C250.302 58.7738 251.854 59.3659 253.605 59.3659C255.407 59.3659 256.958 58.7738 258.26 57.5894C259.611 56.3577 260.287 54.9365 260.287 53.3258C260.287 51.6677 259.611 50.2465 258.26 49.0621C256.958 47.8304 255.407 47.2146 253.605 47.2146C251.854 47.2146 250.302 47.8304 248.951 49.0621C247.6 50.2939 246.924 51.7151 246.924 53.3258Z" fill="#F5EFF1"/>
</svg>
